SplineFontDB: 3.0
FontName: LinLibertineOC
FullName: Linux Libertine O Capitals
FamilyName: Linux Libertine O C
Weight: Book
Copyright: Linux Libertine by Philipp H. Poll,\nOpen Font under Terms of following Free Software Licenses:\nGPL (General Public License) with font-exception and OFL (Open Font License).\nCreated with FontForge (http://fontforge.sf.net)\nSept 2003, 2004, 2005, 2006, 2007, 2008, 2009
UComments: "2003-8-29: Created.+AAoA-2004-7-25: v(1.0) release candidate+AAoA-2005-12-28: v(1.1.0) stable+AAoA-2006-01-01: v(2.0.0) stable+AAoA-2006-09-05: v(2.2.0) stable+AAoA-2006-12-04: v(2.3.0) stable+AAoA-2007-03-11: v(2.4.0) stable+AAoA" 
Version: 4.0.4
ItalicAngle: 0
UnderlinePosition: -98
UnderlineWidth: 40
Ascent: 754
Descent: 246
LayerCount: 2
Layer: 0 0 "Back"  1
Layer: 1 0 "Fore"  0
NeedsXUIDChange: 1
XUID: [1021 993 1524925707 3543303]
FSType: 0
OS2Version: 0
OS2_WeightWidthSlopeOnly: 0
OS2_UseTypoMetrics: 0
CreationTime: 1156455862
ModificationTime: 1259491212
PfmFamily: 17
TTFWeight: 400
TTFWidth: 5
LineGap: 0
VLineGap: 0
OS2TypoAscent: 894
OS2TypoAOffset: 0
OS2TypoDescent: -246
OS2TypoDOffset: 0
OS2TypoLinegap: 0
OS2WinAscent: 894
OS2WinAOffset: 0
OS2WinDescent: 246
OS2WinDOffset: 0
HheadAscent: 894
HheadAOffset: 0
HheadDescent: -246
HheadDOffset: 0
OS2FamilyClass: 261
OS2Vendor: 'PfEd'
Lookup: 258 0 0 "'kern' Horizontales Kerning 1"  {"'kern' Horizontales Kerning 1-1"  } ['kern' ('DFLT' <'dflt' > 'cyrl' <'dflt' > 'grek' <'dflt' > 'latn' <'dflt' > ) ]
Lookup: 260 0 0 "'mark' Mark Positioning lookup 0"  {"'mark' Mark Positioning lookup 0"  } ['mark' ('DFLT' <'dflt' > 'cyrl' <'dflt' > 'goth' <'dflt' > 'grek' <'dflt' > 'latn' <'dflt' > ) ]
Lookup: 260 0 0 "'mark' Mark Positioning lookup 1"  {"'mark' Mark Positioning lookup 1"  } ['mark' ('DFLT' <'dflt' > 'cyrl' <'dflt' > 'goth' <'dflt' > 'grek' <'dflt' > 'latn' <'dflt' > ) ]

StartChar: exclam
Encoding: 33 33 0
Width: 227
VWidth: 999
Flags: HW
HStem: -12 106<75 151> 648 10G<102 127>
VStem: 59 110<501 650> 60 106<3 79>
LayerCount: 2
Fore
SplineSet
113 658 m 0
 140 658 169 635 169 585 c 0
 169 520 153.2 478 143 392 c 0
 130.2 284 129 224 127 210 c 0
 126 199 123 190 113 190 c 0
 102 190 100 197 99 203 c 0
 97 224 92 314 84 392 c 0
 75 480 59 515 59 585 c 0
 59 639 91 658 113 658 c 0
60 43 m 0
 60 72 84 96 113 96 c 0
 142 96 166 72 166 43 c 0
 166 14 142 -10 113 -10 c 0
 84 -10 60 14 60 43 c 0
EndSplineSet
Colour: ff87bf
EndChar

StartChar: quotedbl
Encoding: 34 34 1
Width: 336
VWidth: 999
Flags: HW
HStem: 426 218<89 112 89 114> 427 218<215 239 215 240>
LayerCount: 2
Fore
SplineSet
89 426 m 1
 89 426 63 585 63 594 c 0
 63 616 84 644 114 644 c 0
 140 644 149 627 149 611 c 0
 149 595 116 430 116 430 c 1
 89 426 l 1
215 427 m 1
 215 427 189 586 189 595 c 0
 189 617 210 645 240 645 c 0
 266 645 275 628 275 612 c 0
 275 596 242 431 242 431 c 1
 215 427 l 1
EndSplineSet
Colour: ff00ff
EndChar

StartChar: numbersign
Encoding: 35 35 2
Width: 438
VWidth: 487
Flags: HW
HStem: 183 49<31 114 155 257 298 381> 341 49<57 139 180 283 323 406>
LayerCount: 2
Fore
SplineSet
266 231 m 1
 283 341 l 1
 173 341 l 1
 155 231 l 1
 266 231 l 1
316 341 m 1
 298 231 l 1
 388 231 l 1
 381 183 l 1
 292 183 l 1
 264 13 l 1
 231 13 l 1
 257 183 l 1
 148 183 l 1
 120 13 l 1
 87 13 l 1
 114 183 l 1
 24 183 l 1
 31 231 l 1
 122 231 l 1
 139 341 l 1
 49 341 l 1
 57 390 l 1
 147 390 l 1
 174 560 l 1
 208 560 l 1
 180 390 l 1
 291 390 l 1
 317 560 l 1
 350 560 l 1
 323 390 l 1
 414 390 l 1
 406 341 l 1
 316 341 l 1
EndSplineSet
EndChar

StartChar: dollar
Encoding: 36 36 3
Width: 438
VWidth: 999
Flags: HW
HStem: -12 10G<181 302> 10 11<91 213> 542 30<144 288>
VStem: 45 64<361 524> 197 34<-81 627> 327 72<111 260>
LayerCount: 2
Fore
SplineSet
91 10 m 0
 75 10 78 -1 56 -1 c 1
 56 36 49 90 41 146 c 1
 67 149 l 1
 82.8 87.6 128 29.7 197 21.9 c 1
 197 264.2 l 1
 137.6 290.6 45 335.8 45 434 c 0
 45 520.4 130.4 564.5 197 571.1 c 1
 197 627 l 1
 231 627 l 1
 231 571.7 l 1
 280.5 569.8 321.8 560.4 347 564 c 1
 349 519 359 470 367 421 c 1
 341 417 l 1
 336 435 l 2
 316.9 500.6 286.2 535.5 231 541.2 c 1
 231 327.3 l 1
 287.7 305.6 399 257.6 399 156 c 0
 399 123.2 390.6 -2.7 231 -11.5 c 1
 231 -81 l 1
 197 -81 l 1
 197 -11.5 l 1
 142.1 -8.4 111.1 10 91 10 c 0
231 250.9 m 1
 231 22.4 l 1
 270.5 28.3 327 54.2 327 127 c 0
 327 206.7 271.5 235.1 231 250.9 c 1
197 341.3 m 1
 197 540.7 l 1
 149.8 533.6 109 497 109 438 c 0
 109 391.1 158.2 359.4 197 341.3 c 1
EndSplineSet
EndChar

StartChar: percent
Encoding: 37 37 4
Width: 637
VWidth: 999
Flags: HW
HStem: -19 29<453 549> 218 31<459 542> 297 29<132 226> 478 37<320 411> 533 32<138 224>
VStem: 59 51<339 467> 246 31<398 506> 380 51<23 152> 568 30<85 225>
LayerCount: 2
Fore
SplineSet
432 77 m 0
 432 25 458 10 477 10 c 0
 532 10 568 102 568 157 c 0
 568 209 537 218 523 218 c 0
 474 218 432 134 432 77 c 0
380 91 m 0
 380 167 438 250 512 250 c 0
 552 250 598 231 598 159 c 0
 598 91 554 -19 471 -19 c 0
 410 -19 380 39 380 91 c 0
364 515 m 0
 406 515 473 525 514 569 c 1
 552 562 l 1
 139 -14 l 1
 102 -5 l 1
 462 497 l 1
 423 481 384 478 354 478 c 0
 331 478 293 488 274 499 c 1
 276 491 277 482 277 474 c 0
 277 409 233 297 149 297 c 0
 87 297 59 354 59 406 c 0
 59 482 118 565 190 565 c 0
 218 565 247 552 257 540 c 1
 311 515 346 515 364 515 c 0
110 392 m 0
 110 340 137 326 155 326 c 0
 210 326 246 415 246 473 c 0
 246 522 219 533 201 533 c 0
 152 533 110 450 110 392 c 0
EndSplineSet
EndChar

StartChar: parenleft
Encoding: 40 40 5
Width: 295
VWidth: 999
Flags: HW
VStem: 44 78<182 495>
LayerCount: 2
Fore
SplineSet
44 252 m 0
 44 439 137 605 256 707 c 1
 274 689 l 1
 242 653 122 514 122 252 c 0
 122 -11 240 -150 274 -187 c 1
 256 -204 l 1
 48 -24 44 207 44 252 c 0
EndSplineSet
EndChar

StartChar: parenright
Encoding: 41 41 6
Width: 295
VWidth: 999
Flags: HW
VStem: 174 78<9 322>
LayerCount: 2
Fore
SplineSet
252 252 m 0
 252 65 159 -101 40 -203 c 1
 22 -185 l 1
 54 -149 174 -10 174 252 c 0
 174 515 56 654 22 691 c 1
 40 708 l 1
 248 528 252 297 252 252 c 0
EndSplineSet
Colour: ff00ff
EndChar

StartChar: asterisk
Encoding: 42 42 7
Width: 433
VWidth: 999
Flags: HW
HStem: 571 67<93 152 277 330>
VStem: 181 63<648 707>
LayerCount: 2
Fore
SplineSet
198 567 m 1
 185 570 171 571 156 571 c 0
 107 571 75 578 75 608 c 0
 75 622 84 638 108 638 c 0
 142 638 160 605 204 587 c 1
 200 626 181 653 181 679 c 0
 181 700 193 718 211 718 c 0
 229 718 244 707 244 683 c 0
 244 656 227 616 225 586 c 1
 271 606 287 638 320 638 c 0
 347 638 354 618 354 608 c 0
 354 578 319 571 285 571 c 0
 266 571 248 570 230 567 c 1
 264 530 313 520 313 480 c 0
 313 462 298 451 284 451 c 0
 245 451 238 516 213 555 c 1
 188 510 181 451 143 451 c 0
 126 451 114 464 114 479 c 0
 114 522 165 530 198 567 c 1
EndSplineSet
EndChar

StartChar: plus
Encoding: 43 43 8
Width: 527
VWidth: 999
Flags: HW
HStem: 208 49<66 238 289 461>
VStem: 238 51<34 208 257 431>
LayerCount: 2
Fore
SplineSet
289 257 m 1
 461 257 l 1
 461 208 l 1
 289 208 l 1
 289 34 l 1
 238 34 l 1
 238 208 l 1
 66 208 l 1
 66 257 l 1
 238 257 l 1
 238 431 l 1
 289 431 l 1
 289 257 l 1
EndSplineSet
EndChar

StartChar: slash
Encoding: 47 47 9
Width: 291
VWidth: 999
Flags: HW
VStem: 4 278<-21 682>
LayerCount: 2
Fore
SplineSet
282 682 m 1
 45 -21 l 1
 4 -21 l 1
 241 682 l 1
 282 682 l 1
EndSplineSet
EndChar

StartChar: one
Encoding: 49 49 10
Width: 440
VWidth: 999
Flags: HW
HStem: -2 33<107 207.831 286.209 379> 558 20G<251.5 279.75>
VStem: 211 72<33.1182 476.982>
LayerCount: 2
Fore
SplineSet
189 477 m 0
 170 477 126 459 104 449 c 1
 92 480 l 1
 180 521 225 542 278 578 c 1
 282 578 283 578 283 573 c 2
 283 77 l 2
 283 41 288 32.3 321 31 c 2
 373 29 l 2
 376 29 381 27 381 21 c 2
 381 0 l 1
 379 -2 l 1
 244 0 l 1
 107 -2 l 1
 105 0 l 1
 105 21 l 2
 105 24 108 29 113 29 c 2
 173 31 l 2
 210 32.2 211 48 211 77 c 2
 211 419 l 2
 211 453 211 477 189 477 c 0
EndSplineSet
EndChar

StartChar: two
Encoding: 50 50 11
Width: 440
VWidth: 487
Flags: HW
HStem: 0 58<125 340> 547 31<152 260>
VStem: 58 66<426 508> 308 77<350 506>
DStem2: 159 194 197 176 0.716277 0.697816<-95.6577 205.725>
LayerCount: 2
Fore
SplineSet
59 443 m 0
 59 500 114 578 219 578 c 0
 296 578 388 536 388 434 c 0
 388 362 346.9 320.2 293 268 c 2
 198 176 l 2
 193 171 126 103 126 58 c 1
 296 58 l 2
 330 58 348 75 362 130 c 1
 387 126 l 1
 367 0 l 1
 58 0 l 1
 58 56 67 99 160 194 c 1
 230 263 l 1
 286 320 309 369 309 430 c 0
 309 521 247 547 213 547 c 0
 144 547 125 511 125 487 c 0
 125 479 127 471 129 464 c 0
 131 457 133 450 133 442 c 0
 133 416 113 406 97 406 c 0
 75 406 59 423 59 443 c 0
EndSplineSet
EndChar

StartChar: three
Encoding: 51 51 12
Width: 440
VWidth: 487
Flags: HMW
HStem: -10 31<140.448 243.376> 298 30<159.067 190.577> 547 31<157.939 262.399>
VStem: 294 68<413.721 522.753> 317 77<95.6058 258.538>
LayerCount: 2
Fore
SplineSet
217 547 m 0
 192 547 119 533 119 472 c 0
 119 454 112 423 85 423 c 0
 59 423 57 452 57 455 c 0
 57 486 98 578 237 578 c 0
 334 578 363 517 363 477 c 0
 363 452 355 402 265 345 c 1
 321 336 395 295 395 191 c 0
 395 59 295 -10 182 -10 c 0
 125 -10 45 15 45 53 c 0
 45 68 60 85 80 85 c 0
 99 85 108 75 117 62 c 0
 128 45 146 21 194 21 c 0
 227 21 318 52 318 178 c 0
 318 285 246 302 192 302 c 0
 183 302 172 300 161 298 c 1
 157 328 l 1
 234 341 295 416 295 462 c 0
 295 519 258 547 217 547 c 0
EndSplineSet
EndChar

StartChar: four
Encoding: 52 52 13
Width: 440
VWidth: 487
Flags: HW
HStem: -2 29<183 215 360 392> 153 45<101 259 327 419.054> 558 20G<266 269.5>
VStem: 259 68<33.8382 153 198 381.915>
LayerCount: 2
Fore
SplineSet
407 198 m 2
 417 198 421 192 421 183 c 0
 421 172 407 153 394 153 c 2
 327 153 l 1
 327 72 l 2
 327 44 332 31.1 360 29 c 2
 387 27 l 2
 393 27 394 22 394 20 c 2
 394 0 l 1
 392 -2 l 1
 392 -2 329 0 288 0 c 0
 247 0 183 -2 183 -2 c 1
 181 0 l 1
 181 20 l 2
 181 22 182 27 188 27 c 2
 215 29 l 2
 245 31.2 259 43 259 72 c 2
 259 153 l 1
 73 153 l 2
 44 153 36 179 33 193 c 0
 33 194 34 195 35 196 c 0
 100 268 221 490 261 573 c 0
 263 577 264 578 268 578 c 0
 271 578 291 569 303 567 c 1
 252 445 174 314 101 198 c 1
 259 198 l 1
 259 355 l 2
 259 362 260 370 269 375 c 1
 280 383 298 392 313 392 c 0
 326 392 327 381 327 361 c 2
 327 198 l 1
 407 198 l 2
EndSplineSet
EndChar

StartChar: five
Encoding: 53 53 14
Width: 440
VWidth: 487
Flags: HMW
HStem: -10 34<149.749 246.796> 323 47<122.071 254.941> 505 63<139.224 352.798> 510 68<139.51 204.36 208.345 251.899 255.315 353>
VStem: 306 77<90.8258 265.745>
DStem2: 72 300 121 355 0.116419 0.9932<60.3305 219.549>
LayerCount: 2
Fore
SplineSet
306 169 m 0
 306 272 254 323 192 323 c 0
 146 323 111 316 72 300 c 1
 104 573 l 1
 137 570 171 568 206 568 c 0
 256 568 308 572 362 578 c 1
 368 575 l 1
 353 510 l 1
 314 506 282 505 254 505 c 0
 209 505 175 509 140 513 c 1
 121 355 l 1
 142 363 178 370 217 370 c 0
 323 370 383 278 383 186 c 0
 383 74 304 -10 191 -10 c 0
 134 -10 51 22 51 61 c 0
 51 80 67 93 85 93 c 0
 105 93 118 78 130 62 c 0
 144.2 43.1 161 24 193 24 c 0
 257 24 306 82 306 169 c 0
EndSplineSet
EndChar

StartChar: six
Encoding: 54 54 15
Width: 440
VWidth: 487
Flags: HW
HStem: -10 29<190.531 283.625> 307 32<170.244 274.338> 552 26<309.619 376.808>
VStem: 44 75<103.494 306.795> 330 75<79.16 252.271>
LayerCount: 2
Fore
SplineSet
120 262 m 1
 119 252 119 237 119 227 c 0
 119 59 191 19 241 19 c 0
 287 19 330 60 330 164 c 0
 330 211 312 307 216 307 c 0
 195 307 160 305 120 262 c 1
379 552 m 1
 314 546 258 529 210 482 c 0
 164 437 134 370 123 290 c 1
 146 318 198 339 236 339 c 0
 384 339 405 217 405 171 c 0
 405 103 369 -10 231 -10 c 0
 158 -10 44 31 44 230 c 0
 44 322 78.3 411.7 147 481 c 0
 211.3 545.8 278 573 376 578 c 1
 379 552 l 1
EndSplineSet
EndChar

StartChar: seven
Encoding: 55 55 16
Width: 440
VWidth: 487
Flags: HMW
HStem: -12 21G<117 185> 439 21G<52 87.5> 509 59<101.327 330.284>
VStem: 52 26<441.192 470.989>
LayerCount: 2
Fore
SplineSet
162 509 m 2
 132 509 97 508 78 439 c 1
 52 442 l 1
 60 491 66 533 67 578 c 0
 67 580 69 581 71 581 c 0
 88 578 86 568 118 568 c 2
 313 568 l 2
 349 568 370 573 386 578 c 1
 401 567 l 1
 295 309 239 152 185 -9 c 1
 120 -12 l 1
 117 -6 l 1
 181 138 257 325 331 509 c 1
 162 509 l 2
EndSplineSet
EndChar

StartChar: eight
Encoding: 56 56 17
Width: 440
VWidth: 487
Flags: HMW
HStem: -10 28<165.248 273.1> 554 24<176.273 267.755>
VStem: 44 62<66.1096 210.584> 67 67<400.899 515.627> 310 62<402.597 523.824> 330 66<76.1398 202.964>
DStem2: 200 362 151 319 0.842522 -0.538662<-82.4017 1.58836 34.0199 41.3486 75.4679 193.25>
LayerCount: 2
Fore
SplineSet
223 554 m 0
 166 554 135 509 135 465 c 0
 135 436 141 401 201 362 c 1
 230 344 l 1
 256 363 311 409 311 460 c 0
 311 504 285 554 223 554 c 0
373 459 m 0
 373 398 307 350 265 322 c 1
 323 284 l 2
 372 251.9 397 208 397 153 c 0
 397 81 338 -10 214 -10 c 0
 114 -10 45 41 45 138 c 0
 45 175 61 218 100 252 c 0
 124 273 145 291 169 309 c 1
 152 319 l 1
 94 355 68 394 68 447 c 0
 68 520 131 578 228 578 c 0
 321 578 373 527 373 459 c 0
216 18 m 0
 259 18 331 39 331 134 c 0
 331 179 305.9 223.9 247 260 c 2
 203 287 l 1
 122 233 107 166 107 138 c 0
 107 53 173 18 216 18 c 0
EndSplineSet
EndChar

StartChar: nine
Encoding: 57 57 18
Width: 440
VWidth: 487
Flags: HW
HStem: -10 26<59.1923 126.381> 229 32<161.662 265.756> 549 29<152.375 245.469>
VStem: 31 75<315.729 488.84> 317 75<261.205 464.506>
LayerCount: 2
Fore
SplineSet
316 306 m 1
 317 316 317 331 317 341 c 0
 317 509 245 549 195 549 c 0
 149 549 106 508 106 404 c 0
 106 357 124 261 220 261 c 0
 241 261 276 263 316 306 c 1
57 16 m 1
 122 22 178 39 226 86 c 0
 272 131 302 198 313 278 c 1
 290 250 238 229 200 229 c 0
 52 229 31 351 31 397 c 0
 31 465 67 578 205 578 c 0
 278 578 392 537 392 338 c 0
 392 246 357.7 156.3 289 87 c 0
 224.7 22.2 158 -5 60 -10 c 1
 57 16 l 1
EndSplineSet
Colour: ff00ff
EndChar

StartChar: colon
Encoding: 58 58 19
Width: 220
VWidth: 999
Flags: HW
HStem: 39 106<74.6089 159.391> 302 106<74.6089 159.391>
VStem: 64 106<49.6089 134.391 312.609 397.391>
LayerCount: 2
Fore
SplineSet
64 92 m 0
 64 121 88 145 117 145 c 0
 146 145 170 121 170 92 c 0
 170 63 146 39 117 39 c 0
 88 39 64 63 64 92 c 0
64 355 m 0
 64 384 88 408 117 408 c 0
 146 408 170 384 170 355 c 0
 170 326 146 302 117 302 c 0
 88 302 64 326 64 355 c 0
EndSplineSet
Colour: ff00ff
EndChar

StartChar: less
Encoding: 60 60 20
Width: 487
VWidth: 999
Flags: HW
HStem: 73 331
DStem2: 49 263 122 239 0.940425 0.34<60.4911 397.706> 122 239 49 215 0.939653 -0.34213<0 337.557>
LayerCount: 2
Fore
SplineSet
122 239 m 1
 439 123 l 1
 439 73 l 1
 49 215 l 1
 49 263 l 1
 439 404 l 1
 439 354 l 1
 122 239 l 1
EndSplineSet
EndChar

StartChar: equal
Encoding: 61 61 21
Width: 527
VWidth: 999
Flags: HW
HStem: 144 49<66 461> 269 49<66 461>
LayerCount: 2
Fore
SplineSet
461 318 m 1
 461 269 l 1
 66 269 l 1
 66 318 l 1
 461 318 l 1
461 193 m 1
 461 144 l 1
 66 144 l 1
 66 193 l 1
 461 193 l 1
EndSplineSet
EndChar

StartChar: greater
Encoding: 62 62 22
Width: 487
VWidth: 999
Flags: HW
HStem: 71 331
DStem2: 366 236 439 260 0.939653 -0.34213<-337.557 0> 439 212 366 236 0.940425 0.34<-397.706 -60.4911>
LayerCount: 2
Fore
SplineSet
366 236 m 1
 49 352 l 1
 49 402 l 1
 439 260 l 1
 439 212 l 1
 49 71 l 1
 49 121 l 1
 366 236 l 1
EndSplineSet
Colour: ff00ff
EndChar

StartChar: question
Encoding: 63 63 23
Width: 405
VWidth: 487
Flags: HMW
HStem: -12 106<138 223> 629 29<130 240>
VStem: 29 67<507 591> 127 106<-2 84> 294 74<435 580>
LayerCount: 2
Fore
SplineSet
97 572 m 0
 97 557 99 551 103 546 c 0
 107 541 109 535 109 522 c 0
 109 499 89 487 70 487 c 0
 54 487 29 495 29 530 c 0
 29 568 50 596 80 620 c 1
 109 645 151 659 204 659 c 0
 306 659 369 599 369 508 c 0
 369 429 310 385 263 351 c 0
 240 334 220 318 211 301 c 0
 198 276 193 252 193 228 c 2
 193 184 l 2
 193 177 188 174 180 174 c 0
 172 174 167 177 167 184 c 2
 167 230 l 2
 167 273 169.6 331.4 234 391 c 0
 274 428 294 457 294 504 c 0
 294 569 251 629 194 629 c 0
 137 629 97 602 97 572 c 0
127 43 m 0
 127 72 151 96 180 96 c 0
 209 96 233 72 233 43 c 0
 233 14 209 -10 180 -10 c 0
 151 -10 127 14 127 43 c 0
EndSplineSet
Colour: ff87bf
EndChar

StartChar: at
Encoding: 64 64 24
Width: 895
VWidth: 999
Flags: HW
HStem: -158 33<366.698 569.227> 27 43<368.151 451.044> 27 35<536.5 668.322> 379 31<449.098 547.769> 581 30<366.475 546.302>
VStem: 59 80<106.897 345.058> 273 73<90.7683 252.641> 760 79<177.345 388.516>
LayerCount: 2
Fore
SplineSet
569 316 m 0
 569 354 540 379 504 379 c 0
 487 379 444 370 414 339 c 0
 363 288 346 224 346 162 c 0
 346 114 361 70 424 70 c 0
 459 70 508 127 539 200 c 0
 552 231 569 282 569 316 c 0
583 74 m 0
 583 64 592 62 594 62 c 0
 696 62 760 109 760 275 c 0
 760 481 584 581 459 581 c 0
 307 581 139 478 139 241 c 0
 139 91 215 -125 473 -125 c 0
 558 -125 620 -102 674 -59 c 1
 687 -77 l 1
 627 -123 567 -158 454 -158 c 0
 215 -158 59 10 59 223 c 0
 59 438 244 611 469 611 c 0
 684 611 839 469 839 282 c 0
 839 168 769 27 551 27 c 0
 522 27 515 52 515 68 c 0
 515 83 522 106 530 131 c 1
 528 132 l 1
 484 58 430 29 395 29 c 0
 295 29 273 113 273 153 c 0
 273 296 400 410 506 410 c 0
 539 410 573 393 583 367 c 1
 588 391 l 1
 641 404 l 1
 656 399 l 1
 596 141 l 2
 590 114 583 80.5 583 74 c 0
EndSplineSet
EndChar

StartChar: A
Encoding: 65 65 25
Width: 695
VWidth: 999
Flags: HW
HStem: -2 29<4 62.9309 192 227 438 472 669 687> 241 42<240.956 437> 638 20G<355.667 370>
AnchorPoint: "unten_punkt" 308 -108 basechar 0
AnchorPoint: "unten_anhang" 116 5 basechar 0
AnchorPoint: "top_akzent" 360 798 basechar 0
AnchorPoint: "top_punkt" 360 700 basechar 0
LayerCount: 2
Fore
SplineSet
263 283 m 2
 437 283 l 1
 340 550 l 1
 338 550 l 1
 237.8 296.3 l 2
 233.6 285.5 240.8 283 263 283 c 2
152 79 m 2
 142 53.6 154.5 31.6 192 29 c 2
 221 27 l 2
 225 26.7 229 24 229 19 c 2
 229 0 l 1
 227 -2 l 1
 227 -2 118 0 94 0 c 0
 68 0 4 -2 4 -2 c 1
 2 0 l 1
 2 19 l 2
 2 24 5 26.7 10 27 c 0
 53.5 30 79.2 37.8 107 102 c 2
 329.3 622.3 l 2
 340.3 648.1 348.3 658 363 658 c 0
 377 658 382.4 648.1 390 628 c 2
 595 86 l 2
 609 47 629.2 31.6 669 28 c 2
 680 27 l 2
 685 26.5 690 24 690 19 c 2
 690 0 l 1
 687 -2 l 1
 687 -2 610 0 571 0 c 0
 536 0 438 -2 438 -2 c 1
 437 0 l 1
 437 19 l 2
 437 24 439 26.6 444 27 c 2
 472 29 l 2
 509.8 31.7 524 44.3 514 72 c 2
 453 241 l 1
 245 241 l 2
 221 241 215.1 236.6 210 224 c 2
 152 79 l 2
EndSplineSet
EndChar

StartChar: B
Encoding: 66 66 26
Width: 582
VWidth: 999
Flags: HW
HStem: -2 34<19 54 194.805 379.143> 332 34<187 348.649> 612 34<19 54 190.534 342.72>
VStem: 106 81<39.6512 332 366 607.096> 405 77<424.289 558.778> 452 89<97.5427 251.316>
AnchorPoint: "unten_punkt" 268 -108 basechar 0
AnchorPoint: "unten_anhang" 250 0 basechar 0
AnchorPoint: "top_punkt" 282 700 basechar 0
AnchorPoint: "top_akzent" 281 798 basechar 0
LayerCount: 2
Fore
SplineSet
187 569 m 2
 187 366 l 1
 261 366 l 2
 344 366 405 396 405 481 c 0
 405 583 330 612 274 612 c 0
 187 612 187 602 187 569 c 2
187 332 m 1
 187 78 l 2
 187 45 200 32 270 32 c 0
 422 32 452 92 452 165 c 0
 452 255 393 332 276 332 c 2
 187 332 l 1
17 19 m 2
 17 24 19 26.7 24 27 c 2
 54 29 l 2
 95.7 31.8 106 36 106 71 c 2
 106 574 l 2
 106 608 96.7 613.2 54 616 c 2
 24 618 l 2
 19 618.3 17 621 17 625 c 2
 17 645 l 1
 19 646 l 1
 19 646 96.5 645 146 645 c 0
 193.2 645 232 646 267 646 c 0
 453 646 482 560 482 493 c 0
 482 438 440 385 389 360 c 1
 476 335 541 280 541 184 c 0
 541 98 488 -2 289 -2 c 0
 200 -2 201.8 0 146 0 c 0
 96.5 0 19 -2 19 -2 c 1
 17 0 l 1
 17 19 l 2
EndSplineSet
EndChar

StartChar: C
Encoding: 67 67 27
Width: 644
VWidth: 999
Flags: HW
HStem: -12 42<270 460> 621 37<278 443>
VStem: 37 87<204 436>
AnchorPoint: "unten_punkt" 363 -110 basechar 0
AnchorPoint: "unten_anhang" 356 -7 basechar 0
AnchorPoint: "top_punkt" 360 700 basechar 0
AnchorPoint: "top_akzent" 360 798 basechar 0
LayerCount: 2
Fore
SplineSet
355 -10 m 0
 140 -10 37 154 37 315 c 0
 37 512 190 658 356 658 c 0
 479 658 518 616 575 613 c 1
 579 559 587 510 597 458 c 1
 567 454 l 1
 541 540 483 621 345 621 c 0
 266 621 124 537 124 334 c 0
 124 188 199 31 354 31 c 0
 447 31 515 62 586 140 c 1
 609 125 l 1
 541 36 452 -10 355 -10 c 0
EndSplineSet
EndChar

StartChar: D
Encoding: 68 68 28
Width: 697
VWidth: 999
Flags: HW
HStem: -2 34<19 54 192.542 414.496> 612 35<19 54 193.234 378.064>
VStem: 106 81<38.9214 605.112> 562 92<179.249 418.811>
AnchorPoint: "unten_punkt" 279 -107 basechar 0
AnchorPoint: "unten_anhang" 279 4 basechar 0
AnchorPoint: "top_punkt" 306 700 basechar 0
AnchorPoint: "top_akzent" 306 798 basechar 0
LayerCount: 2
Fore
SplineSet
17 18 m 2
 17 23 20 26.7 24 27 c 2
 54 29 l 2
 88.9 31.3 106 42 106 74 c 2
 106 572 l 2
 106 608 94.6 613.1 54 616 c 2
 26 618 l 2
 21 618.4 17 621 17 626 c 2
 17 645 l 1
 19 647 l 1
 68.1 646.2 95.9 645 145 645 c 0
 209.3 645 245 647 309 647 c 0
 501 647 654 494 654 308 c 0
 654 62 468 -2 327 -2 c 0
 224 -2 216 0 145 0 c 0
 95.9 0 63 0 19 -2 c 1
 17 0 l 1
 17 18 l 2
187 72 m 2
 187 40 198 32 296 32 c 0
 437 32 562 82 562 284 c 0
 562 438 487 612 271 612 c 0
 222 612 187 609 187 574 c 2
 187 72 l 2
EndSplineSet
EndChar

StartChar: E
Encoding: 69 69 29
Width: 549
VWidth: 999
Flags: HW
HStem: -2 29<14 50> 0 39<183.683 419.99> 323 38<182 352.245> 416 20G<367 392.5> 605 40<183.485 390.274> 618 28<14 50>
VStem: 101 81<40.3443 323 361 603.225> 361 34<252 316.054 403 436> 438 29<499.793 534.346> 489 31<128.12 166.129>
AnchorPoint: "unten_anhang" 279 4 basechar 0
AnchorPoint: "unten_punkt" 279 -107 basechar 0
AnchorPoint: "top_punkt" 280 700 basechar 0
AnchorPoint: "top_akzent" 283 805 basechar 0
LayerCount: 2
Fore
SplineSet
445.3 646 m 0
 446.7 638.4 461.8 542 467 501 c 1
 438 496 l 1
 416 565 398 605 323 605 c 2
 218 605 l 2
 194 605 182 597 182 573 c 2
 182 361 l 1
 309 361 l 2
 344 361 355.6 374.6 359 403 c 2
 362 428 l 2
 362 432 365 436 369 436 c 2
 391 436 l 2
 394 436 395 434 395 432 c 2
 395 432 391 379 391 346 c 0
 391 312 395 255 395 255 c 1
 392 252 l 1
 369 252 l 2
 364 252 361 256 361 259 c 2
 359 285 l 2
 356.7 314.3 343 323 309 323 c 2
 182 323 l 1
 182 72 l 2
 182 45 196 39 218 39 c 2
 354 39 l 2
 430 39 469 98 489 170 c 1
 520 165 l 1
 508 113 493.5 49.5 483 -2 c 1
 483 -2 402.7 0 355 0 c 2
 142 0 l 1
 14 -2 l 1
 12 0 l 1
 12 20 l 2
 12 23 14 26.6 20 27 c 2
 50 29 l 2
 89.4 31.6 101 44 101 72 c 2
 101 573 l 2
 101 604 88.4 613.4 50 616 c 2
 20 618 l 2
 13 618.5 12 622 12 625 c 2
 12 645 l 1
 14 646 l 1
 14 646 115 645 142 645 c 2
 394.3 645 l 2
 418.5 645 423.8 645.6 441.3 649 c 0
 443.7 649 444.9 648.3 445.3 646 c 0
EndSplineSet
EndChar

StartChar: F
Encoding: 70 70 30
Width: 477
VWidth: 999
Flags: HW
HStem: -2 29<15 91.5969 191.451 270> 323 38<182 352.245> 416 20G<367 392.5> 605 40<183.485 390.274> 618 28<14 50>
VStem: 101 81<32.7827 323 361 603.225> 361 34<252 316.054 403 436> 438 29<499.793 534.346>
AnchorPoint: "unten_anhang" 145 -1 basechar 0
AnchorPoint: "unten_punkt" 201 -111 basechar 0
AnchorPoint: "top_punkt" 287 700 basechar 0
AnchorPoint: "top_akzent" 286 798 basechar 0
LayerCount: 2
Fore
SplineSet
101 573 m 2
 101 604 88.4 613.4 50 616 c 2
 20 618 l 2
 13 618.5 12 622 12 625 c 2
 12 645 l 1
 14 646 l 1
 14 646 115 645 142 645 c 2
 394.3 645 l 2
 418.5 645 423.8 645.6 441.3 649 c 0
 443.7 649 444.9 648.3 445.3 646 c 0
 446.7 638.4 461.8 542 467 501 c 1
 438 496 l 1
 416 565 398 605 323 605 c 2
 218 605 l 2
 194 605 182 597 182 573 c 2
 182 361 l 1
 309 361 l 2
 344 361 355.6 374.6 359 403 c 2
 362 428 l 2
 362 432 365 436 369 436 c 2
 391 436 l 2
 394 436 395 434 395 432 c 2
 395 432 391 377 391 344 c 0
 391 310 395 255 395 255 c 1
 392 252 l 1
 369 252 l 2
 364 252 361 256 361 259 c 2
 359 285 l 2
 356.7 314.3 343 323 309 323 c 2
 182 323 l 1
 182 72 l 2
 182 41 197 27 237 27 c 2
 263 27 l 2
 268 27 271 24 271 19 c 2
 271 0 l 1
 270 -2 l 1
 270 -2 193.1 0 144 0 c 0
 93.7 0 15 -2 15 -2 c 1
 13 0 l 1
 13 19 l 2
 13 24 16 27 21 27 c 2
 47 27 l 2
 88 27 101 44 101 72 c 2
 101 573 l 2
EndSplineSet
EndChar

StartChar: G
Encoding: 71 71 31
Width: 693
VWidth: 999
Flags: HW
HStem: -10 36<299.692 489.453> 271 36<453 485 626.062 672> 621 37<278.364 463.377>
VStem: 32 87<215.673 431.42> 540 81<83.4212 262.951> 585 30<457.6 492.683>
AnchorPoint: "unten_anhang" 365 2 basechar 0
AnchorPoint: "unten_punkt" 365 -111 basechar 0
AnchorPoint: "top_punkt" 363 700 basechar 0
AnchorPoint: "top_akzent" 363 798 basechar 0
LayerCount: 2
Fore
SplineSet
375 658 m 0
 497 658 533 613 593 613 c 1
 600 541 606 501 615 459 c 1
 585 453 l 1
 559 539 506 621 361 621 c 0
 226 621 119 502 119 327 c 0
 119 195 215 26 393 26 c 0
 447 26 506 42 540 74 c 1
 540 227 l 2
 540 258 525.2 265.9 485 269 c 2
 459 271 l 2
 455 271.3 451 274 451 279 c 2
 451 305 l 1
 453 307 l 1
 453 307 540 305 579 305 c 0
 614 305 672 307 672 307 c 1
 674 305 l 1
 674 279 l 2
 674 274 671 271.5 666 271 c 0
 637 268 621 262.2 621 227 c 2
 621 111 l 2
 621 100 626 92 637 83 c 1
 569 25 488 -10 370 -10 c 0
 169 -10 32 134 32 307 c 0
 32 527 203 658 375 658 c 0
EndSplineSet
EndChar

StartChar: grave
Encoding: 96 96 32
Width: 392
VWidth: 999
Flags: HW
HStem: 538 163<164 240>
VStem: 96 158<549 667>
LayerCount: 2
Fore
SplineSet
178 699 m 1
 248 573 l 2
 253 563 254 556 254 549 c 0
 254 544 247 538 239 538 c 0
 233 538 226 543 210 558 c 2
 96 667 l 1
 98 678 l 1
 106 684 129 701 163 701 c 0
 168 701 174 700 178 699 c 1
EndSplineSet
Colour: ff00ff
EndChar

StartChar: ograve
Encoding: 242 242 33
Width: 555
VWidth: 714
Flags: HW
HStem: -12 32<206 363> 442 32<198 343>
VStem: 37 81<120 330> 436 81<126 333>
LayerCount: 2
Fore
SplineSet
270 439 m 0
 195 439 120 369 120 234 c 0
 120 111 189 22 286 22 c 0
 375 22 436 98 436 221 c 0
 436 355 359 439 270 439 c 0
519 235 m 0
 519 105 435 -12 271 -12 c 0
 136 -12 37 86 37 222 c 0
 37 369 140 474 279 474 c 0
 409 474 519 377 519 235 c 0
265 668 m 1
 335 542 l 2
 340 532 341 525 341 518 c 0
 341 513 334 507 326 507 c 0
 320 507 313 512 297 527 c 2
 183 636 l 1
 185 647 l 1
 193 653 216 670 250 670 c 0
 255 670 261 669 265 668 c 1
EndSplineSet
Colour: ff00ff
EndChar

StartChar: oacute
Encoding: 243 243 34
Width: 555
VWidth: 714
Flags: HW
HStem: -12 32<206 363> 442 32<198 343>
VStem: 37 81<120 330> 436 81<126 333>
LayerCount: 2
Fore
SplineSet
270 439 m 0
 195 439 120 369 120 234 c 0
 120 111 189 22 286 22 c 0
 375 22 436 98 436 221 c 0
 436 355 359 439 270 439 c 0
519 235 m 0
 519 105 435 -12 271 -12 c 0
 136 -12 37 86 37 222 c 0
 37 369 140 474 279 474 c 0
 409 474 519 377 519 235 c 0
309 663 m 1
 312 664 318 665 323 665 c 0
 351 665 364 654 372 647 c 0
 374 645 376 643 378 642 c 1
 381 631 l 1
 266 522 l 2
 251 507 244 502 237 502 c 0
 230 502 223 508 223 514 c 0
 223 520 223 527 229 537 c 2
 309 663 l 1
EndSplineSet
Colour: ff00ff
EndChar

StartChar: ocircumflex
Encoding: 244 244 35
Width: 555
VWidth: 714
Flags: HW
HStem: -12 32<206 363> 442 32<198 343>
VStem: 37 81<120 330> 436 81<126 333>
LayerCount: 2
Fore
SplineSet
270 439 m 0
 195 439 120 369 120 234 c 0
 120 111 189 22 286 22 c 0
 375 22 436 98 436 221 c 0
 436 355 359 439 270 439 c 0
519 235 m 0
 519 105 435 -12 271 -12 c 0
 136 -12 37 86 37 222 c 0
 37 369 140 474 279 474 c 0
 409 474 519 377 519 235 c 0
309 647 m 1
 338 600 374 558 410 518 c 1
 389 504 l 1
 350 533 317 558 283 594 c 1
 246 556 214 531 176 504 c 1
 156 518 l 1
 192 558 230 601 259 647 c 1
 309 647 l 1
EndSplineSet
Colour: ff00ff
EndChar

StartChar: otilde
Encoding: 245 245 36
Width: 555
VWidth: 714
Flags: HW
HStem: -12 32<206 363> 442 32<198 343> 526 44<315 367> 575 46<174 231>
VStem: 37 81<120 330> 136 277<532 617> 436 81<126 333>
LayerCount: 2
Fore
SplineSet
270 439 m 0
 195 439 120 369 120 234 c 0
 120 111 189 22 286 22 c 0
 375 22 436 98 436 221 c 0
 436 355 359 439 270 439 c 0
519 235 m 0
 519 105 435 -12 271 -12 c 0
 136 -12 37 86 37 222 c 0
 37 369 140 474 279 474 c 0
 409 474 519 377 519 235 c 0
339 571 m 0
 361 571 375 581 389 623 c 1
 413 617 l 1
 401 557 372 527 326 527 c 0
 304 527 283 539 262 553 c 0
 244 564 225 575 208 575 c 0
 182 575 169 560 159 527 c 1
 135 532 l 1
 149 591 172 621 215 621 c 0
 245 621 267 607 287 593 c 0
 303 581 320 571 339 571 c 0
EndSplineSet
Colour: ff00ff
EndChar

StartChar: odieresis
Encoding: 246 246 37
Width: 555
VWidth: 714
Flags: HW
HStem: -12 32<206 363> 442 32<198 343> 527 91<169 233 329 394>
VStem: 37 81<120 330> 156 91<540 605> 316 91<540 605> 436 81<126 333>
LayerCount: 2
Fore
SplineSet
270 439 m 0
 195 439 120 369 120 234 c 0
 120 111 189 22 286 22 c 0
 375 22 436 98 436 221 c 0
 436 355 359 439 270 439 c 0
519 235 m 0
 519 105 435 -12 271 -12 c 0
 136 -12 37 86 37 222 c 0
 37 369 140 474 279 474 c 0
 409 474 519 377 519 235 c 0
316 573 m 0
 316 598 337 618 362 618 c 0
 387 618 407 598 407 573 c 0
 407 548 387 527 362 527 c 0
 337 527 316 548 316 573 c 0
156 573 m 0
 156 598 176 618 201 618 c 0
 226 618 247 598 247 573 c 0
 247 548 226 527 201 527 c 0
 176 527 156 548 156 573 c 0
EndSplineSet
Colour: ff00ff
EndChar

StartChar: divide
Encoding: 247 247 38
Width: 527
VWidth: 999
Flags: HW
HStem: 51 89<233 297> 208 49<66 461> 320 89<233 297>
VStem: 66 396 221 89<333 396> 221 89<64 128>
LayerCount: 2
Fore
SplineSet
461 257 m 1
 461 208 l 1
 66 208 l 1
 66 257 l 1
 461 257 l 1
220.8 98 m 0
 220.8 122.3 240.9 142.5 265.2 142.5 c 0
 289.5 142.5 309.6 122.3 309.6 98 c 0
 309.6 73.7 289.5 53.6 265.2 53.6 c 0
 240.9 53.6 220.8 73.7 220.8 98 c 0
220.8 366 m 0
 220.8 390.3 240.9 410.5 265.2 410.5 c 0
 289.5 410.5 309.6 390.3 309.6 366 c 0
 309.6 341.7 289.5 321.6 265.2 321.6 c 0
 240.9 321.6 220.8 341.7 220.8 366 c 0
EndSplineSet
Colour: ff87bf
EndChar

StartChar: ugrave
Encoding: 249 249 39
Width: 559
VWidth: 999
Flags: HW
HStem: -12 29<217 374> 434 27<28 83 83 85 85 93 169 236 356 424 470 531>
VStem: 94 74<75 431> 425 44<76 431>
LayerCount: 2
Fore
SplineSet
275 -10 m 0
 206 -10 94 36 94 181 c 2
 94 400 l 2
 94 422 83 428 51 432 c 2
 33 434 l 2
 30 434 27 436 27 439 c 2
 27 460 l 1
 28 462 l 1
 28 462 104 460 135 460 c 0
 163 460 239 462 239 462 c 1
 240 460 l 1
 240 439 l 2
 240 436 238 434 234 434 c 2
 214 432 l 2
 182 428.8 171 420 171 400 c 2
 171 202 l 2
 171 109 185 19 292 19 c 0
 424 19 425 125 425 211 c 2
 425 400 l 2
 425 422 412 429 382 432 c 2
 362 434 l 2
 358 434 355 436 355 439 c 2
 355 460 l 1
 357 462 l 1
 357 462 417 460 447 460 c 0
 475 460 531 462 531 462 c 1
 532 460 l 1
 532 439 l 2
 532 436 530 434 526 434 c 2
 509 432 l 2
 478 428 470 420 470 400 c 2
 470 224 l 2
 470 85 436 -10 275 -10 c 0
268 668 m 1
 338 542 l 2
 343 532 344 525 344 518 c 0
 344 513 337 507 329 507 c 0
 323 507 316 512 300 527 c 2
 186 636 l 1
 188 647 l 1
 196 653 219 670 253 670 c 0
 258 670 264 669 268 668 c 1
EndSplineSet
Colour: ff00ff
EndChar

StartChar: uacute
Encoding: 250 250 40
Width: 559
VWidth: 999
Flags: HW
HStem: -12 29<217 374> 434 27<28 83 83 85 85 93 169 236 356 424 470 531>
VStem: 94 74<75 431> 425 44<76 431>
LayerCount: 2
Fore
SplineSet
275 -10 m 0
 206 -10 94 36 94 181 c 2
 94 400 l 2
 94 422 83 428 51 432 c 2
 33 434 l 2
 30 434 27 436 27 439 c 2
 27 460 l 1
 28 462 l 1
 28 462 104 460 135 460 c 0
 163 460 239 462 239 462 c 1
 240 460 l 1
 240 439 l 2
 240 436 238 434 234 434 c 2
 214 432 l 2
 182 428.8 171 420 171 400 c 2
 171 202 l 2
 171 109 185 19 292 19 c 0
 424 19 425 125 425 211 c 2
 425 400 l 2
 425 422 412 429 382 432 c 2
 362 434 l 2
 358 434 355 436 355 439 c 2
 355 460 l 1
 357 462 l 1
 357 462 417 460 447 460 c 0
 475 460 531 462 531 462 c 1
 532 460 l 1
 532 439 l 2
 532 436 530 434 526 434 c 2
 509 432 l 2
 478 428 470 420 470 400 c 2
 470 224 l 2
 470 85 436 -10 275 -10 c 0
343 663 m 1
 346 664 352 665 357 665 c 0
 385 665 398 654 406 647 c 0
 408 645 410 643 412 642 c 1
 415 631 l 1
 300 522 l 2
 285 507 278 502 271 502 c 0
 264 502 257 508 257 514 c 0
 257 520 257 527 263 537 c 2
 343 663 l 1
EndSplineSet
Colour: ff00ff
EndChar

StartChar: ucircumflex
Encoding: 251 251 41
Width: 559
VWidth: 999
Flags: HW
HStem: -12 29<217 374> 434 27<28 83 83 85 85 93 169 236 356 424 470 531>
VStem: 94 74<75 431> 425 44<76 431>
LayerCount: 2
Fore
SplineSet
275 -10 m 0
 206 -10 94 36 94 181 c 2
 94 400 l 2
 94 422 83 428 51 432 c 2
 33 434 l 2
 30 434 27 436 27 439 c 2
 27 460 l 1
 28 462 l 1
 28 462 104 460 135 460 c 0
 163 460 239 462 239 462 c 1
 240 460 l 1
 240 439 l 2
 240 436 238 434 234 434 c 2
 214 432 l 2
 182 428.8 171 420 171 400 c 2
 171 202 l 2
 171 109 185 19 292 19 c 0
 424 19 425 125 425 211 c 2
 425 400 l 2
 425 422 412 429 382 432 c 2
 362 434 l 2
 358 434 355 436 355 439 c 2
 355 460 l 1
 357 462 l 1
 357 462 417 460 447 460 c 0
 475 460 531 462 531 462 c 1
 532 460 l 1
 532 439 l 2
 532 436 530 434 526 434 c 2
 509 432 l 2
 478 428 470 420 470 400 c 2
 470 224 l 2
 470 85 436 -10 275 -10 c 0
323 646 m 1
 352 599 388 557 424 517 c 1
 403 503 l 1
 364 532 331 557 297 593 c 1
 260 555 228 530 190 503 c 1
 170 517 l 1
 206 557 244 600 273 646 c 1
 323 646 l 1
EndSplineSet
Colour: ff00ff
EndChar

StartChar: ebreve
Encoding: 277 277 42
Width: 454
VWidth: 999
Flags: HW
HStem: 0 28<33 100 185 362> 230 32<176 299> 434 29<33 100 176 358> 509 57<167 305>
VStem: 101 75<30 230 262 432> 110 27<589 656> 307 26<170 199> 354 26<590 658>
LayerCount: 2
Fore
SplineSet
136 658 m 1
 138 606 185 566 245 566 c 0
 291 566 351 596 353 658 c 1
 380 644 l 1
 370 543 295 509 245 509 c 0
 168 509 117 566 110 644 c 1
 136 658 l 1
307 0 m 2
 132 0 l 2
 102 0 33 -2 33 -2 c 1
 32 0 l 1
 32 22 l 2
 32 24 33 26.6 38 27 c 2
 61 29 l 2
 91.6 31.7 101 52 101 72 c 2
 101 402 l 2
 101 425 89 428.6 61 431 c 2
 38 433 l 2
 32 433.5 32 436 32 437 c 2
 32 460 l 1
 33 462 l 1
 33 462 111 460 141 460 c 2
 288 460 l 2
 318 460 389 462 389 462 c 1
 391 460 l 1
 392 417 399 378 406 340 c 1
 381 336 l 1
 370 373 351 426 287 426 c 2
 207 426 l 2
 188 426 178 419 178 402 c 2
 178 257 l 1
 253 257 l 2
 281 257 288 269 292 289 c 1
 298 310 l 2
 298 313 300 315 304 315 c 2
 321 315 l 2
 323 315 323 314 323 312 c 0
 321 290 317 262 317 238 c 0
 317 213 321 192 323 169 c 1
 321 167 l 1
 304 167 l 2
 299 167 297 169 297 172 c 2
 292 194 l 2
 288 214 279 225 253 225 c 2
 178 225 l 1
 178 72 l 2
 178 53 189 34 207 34 c 2
 302 34 l 2
 353 34 381 66 393 118 c 1
 418 115 l 1
 398 0 l 1
 396 -2 l 1
 396 -2 337 0 307 0 c 2
EndSplineSet
Colour: ff00ff
EndChar

StartChar: Edotaccent
Encoding: 278 278 43
Width: 549
VWidth: 999
Flags: HW
HStem: -1 29<14 98> 0 39<183 449> 327 34<182 361> 434 10<381 406> 606 39<183 418> 618 29<14 98> 692 96<246 315>
VStem: 102 81<41 327 361 605> 232 96<705 774> 375 34<248 283 405 442>
LayerCount: 2
Fore
SplineSet
445.3 646 m 0
 446.7 638.4 461.8 542 467 501 c 1
 438 496 l 1
 416 565 398 605 323 605 c 2
 218 605 l 2
 194 605 182 597 182 573 c 2
 182 361 l 1
 309 361 l 2
 344 361 355.6 374.6 359 403 c 2
 362 428 l 2
 362 432 365 436 369 436 c 2
 391 436 l 2
 394 436 395 434 395 432 c 2
 395 432 391 379 391 346 c 0
 391 312 395 255 395 255 c 1
 392 252 l 1
 369 252 l 2
 364 252 361 256 361 259 c 2
 359 285 l 2
 356.7 314.3 343 323 309 323 c 2
 182 323 l 1
 182 72 l 2
 182 45 196 39 218 39 c 2
 354 39 l 2
 430 39 469 98 489 170 c 1
 520 165 l 1
 508 113 493.5 49.5 483 -2 c 1
 483 -2 402.7 0 355 0 c 2
 142 0 l 1
 14 -2 l 1
 12 0 l 1
 12 20 l 2
 12 23 14 26.6 20 27 c 2
 50 29 l 2
 89.4 31.6 101 44 101 72 c 2
 101 573 l 2
 101 604 88.4 613.4 50 616 c 2
 20 618 l 2
 13 618.5 12 622 12 625 c 2
 12 645 l 1
 14 646 l 1
 14 646 115 645 142 645 c 2
 394.3 645 l 2
 418.5 645 423.8 645.6 441.3 649 c 0
 443.7 649 444.9 648.3 445.3 646 c 0
232 740 m 0
 232 767 253 788 280 788 c 0
 306 788 328 767 328 740 c 0
 328 714 306 693 280 693 c 0
 253 693 232 714 232 740 c 0
EndSplineSet
Colour: ff00ff
EndChar

StartChar: edotaccent
Encoding: 279 279 44
Width: 454
VWidth: 999
Flags: HW
HStem: 0 28<33 100 185 362> 230 32<176 299> 434 29<33 100 176 358> 524 96<222 291>
VStem: 101 75<30 230 262 432> 209 96<538 606> 307 26<170 199>
LayerCount: 2
Fore
SplineSet
209 572 m 0
 209 599 230 620 257 620 c 0
 283 620 305 599 305 572 c 0
 305 546 283 525 257 525 c 0
 230 525 209 546 209 572 c 0
307 0 m 2
 132 0 l 2
 102 0 33 -2 33 -2 c 1
 32 0 l 1
 32 22 l 2
 32 24 33 26.6 38 27 c 2
 61 29 l 2
 91.6 31.7 101 52 101 72 c 2
 101 402 l 2
 101 425 89 428.6 61 431 c 2
 38 433 l 2
 32 433.5 32 436 32 437 c 2
 32 460 l 1
 33 462 l 1
 33 462 111 460 141 460 c 2
 288 460 l 2
 318 460 389 462 389 462 c 1
 391 460 l 1
 392 417 399 378 406 340 c 1
 381 336 l 1
 370 373 351 426 287 426 c 2
 207 426 l 2
 188 426 178 419 178 402 c 2
 178 257 l 1
 253 257 l 2
 281 257 288 269 292 289 c 1
 298 310 l 2
 298 313 300 315 304 315 c 2
 321 315 l 2
 323 315 323 314 323 312 c 0
 321 290 317 262 317 238 c 0
 317 213 321 192 323 169 c 1
 321 167 l 1
 304 167 l 2
 299 167 297 169 297 172 c 2
 292 194 l 2
 288 214 279 225 253 225 c 2
 178 225 l 1
 178 72 l 2
 178 53 189 34 207 34 c 2
 302 34 l 2
 353 34 381 66 393 118 c 1
 418 115 l 1
 398 0 l 1
 396 -2 l 1
 396 -2 337 0 307 0 c 2
EndSplineSet
Colour: ff00ff
EndChar

StartChar: Eogonek
Encoding: 280 280 45
Width: 549
VWidth: 999
Flags: HW
HStem: -224 40<383 473> -1 29<14 98> 0 25<436 485> 0 39<183 449> 327 34<182 361> 434 10<381 406> 606 39<183 418> 618 29<14 98>
VStem: 102 81<41 327 361 605> 311 60<-173 -74> 375 34<248 283 405 442>
LayerCount: 2
Fore
SplineSet
404 -224 m 0
 351 -224 311 -193 311 -139 c 0
 311 -91.8 350.6 -33.9 410.2 -0.5 c 1
 391 -0.2 371.1 0 355 0 c 2
 142 0 l 1
 14 -2 l 1
 12 0 l 1
 12 20 l 2
 12 23 14 26.6 20 27 c 2
 50 29 l 2
 89.4 31.6 101 44 101 72 c 2
 101 573 l 2
 101 604 88.4 613.4 50 616 c 2
 20 618 l 2
 13 618.5 12 622 12 625 c 2
 12 645 l 1
 14 646 l 1
 14 646 115 645 142 645 c 2
 394.3 645 l 2
 418.5 645 423.8 645.6 441.3 649 c 0
 443.7 649 444.9 648.3 445.3 646 c 0
 446.7 638.4 461.8 542 467 501 c 1
 438 496 l 1
 416 565 398 605 323 605 c 2
 218 605 l 2
 194 605 182 597 182 573 c 2
 182 361 l 1
 309 361 l 2
 344 361 355.6 374.6 359 403 c 2
 362 428 l 2
 362 432 365 436 369 436 c 2
 391 436 l 2
 394 436 395 434 395 432 c 2
 395 432 391 379 391 346 c 0
 391 312 395 255 395 255 c 1
 392 252 l 1
 369 252 l 2
 364 252 361 256 361 259 c 2
 359 285 l 2
 356.7 314.3 343 323 309 323 c 2
 182 323 l 1
 182 72 l 2
 182 45 196 39 218 39 c 2
 354 39 l 2
 430 39 469 98 489 170 c 1
 520 165 l 1
 509.8 120.7 497.7 68.1 487.9 21.6 c 1
 506 0 l 1
 426 0 371 -75 371 -126 c 0
 371 -158 393 -185 429 -185 c 0
 459 -185 479 -170 499 -149 c 1
 514 -157 l 1
 490 -204 440 -224 404 -224 c 0
EndSplineSet
Colour: ff87bf
EndChar

StartChar: eogonek
Encoding: 281 281 46
Width: 454
VWidth: 999
Flags: HW
HStem: -224 40<285 375> 0 25<339 387> 0 28<33 100 185 362> 230 32<176 299> 434 29<33 100 176 358>
VStem: 101 75<30 230 262 432> 213 60<-173 -74> 307 26<170 199>
LayerCount: 2
Fore
SplineSet
307 -224 m 0
 253 -224 213 -193 213 -139 c 0
 213 -91.5 253.1 -33.4 313.2 -0 c 1
 311 0 308.9 0 307 0 c 2
 132 0 l 2
 102 0 33 -2 33 -2 c 1
 32 0 l 1
 32 22 l 2
 32 24 33 26.6 38 27 c 2
 61 29 l 2
 91.6 31.7 101 52 101 72 c 2
 101 402 l 2
 101 425 89 428.6 61 431 c 2
 38 433 l 2
 32 433.5 32 436 32 437 c 2
 32 460 l 1
 33 462 l 1
 33 462 111 460 141 460 c 2
 288 460 l 2
 318 460 389 462 389 462 c 1
 391 460 l 1
 392 417 399 378 406 340 c 1
 381 336 l 1
 370 373 351 426 287 426 c 2
 207 426 l 2
 188 426 178 419 178 402 c 2
 178 257 l 1
 253 257 l 2
 281 257 288 269 292 289 c 1
 298 310 l 2
 298 313 300 315 304 315 c 2
 321 315 l 2
 323 315 323 314 323 312 c 0
 321 290 317 262 317 238 c 0
 317 213 321 192 323 169 c 1
 321 167 l 1
 304 167 l 2
 299 167 297 169 297 172 c 2
 292 194 l 2
 288 214 279 225 253 225 c 2
 178 225 l 1
 178 72 l 2
 178 53 189 34 207 34 c 2
 302 34 l 2
 353 34 381 66 393 118 c 1
 418 115 l 1
 399.7 9.9 l 1
 408 0 l 1
 404.5 0 401 -0.1 397.6 -0.4 c 1
 396 -2 l 1
 387.2 -1.7 l 1
 318.6 -13.2 273 -79.5 273 -126 c 0
 273 -158 295 -185 332 -185 c 0
 361 -185 382 -170 401 -149 c 1
 416 -157 l 1
 393 -204 342 -224 307 -224 c 0
EndSplineSet
Colour: ff87bf
EndChar

StartChar: Ecaron
Encoding: 282 282 47
Width: 549
VWidth: 999
Flags: HW
HStem: -1 29<14 98> 0 39<183 449> 327 34<182 361> 434 10<381 406> 606 39<183 418> 618 29<14 98>
VStem: 102 81<41 327 361 605> 375 34<248 283 405 442>
LayerCount: 2
Fore
SplineSet
445.3 646 m 0
 446.7 638.4 461.8 542 467 501 c 1
 438 496 l 1
 416 565 398 605 323 605 c 2
 218 605 l 2
 194 605 182 597 182 573 c 2
 182 361 l 1
 309 361 l 2
 344 361 355.6 374.6 359 403 c 2
 362 428 l 2
 362 432 365 436 369 436 c 2
 391 436 l 2
 394 436 395 434 395 432 c 2
 395 432 391 379 391 346 c 0
 391 312 395 255 395 255 c 1
 392 252 l 1
 369 252 l 2
 364 252 361 256 361 259 c 2
 359 285 l 2
 356.7 314.3 343 323 309 323 c 2
 182 323 l 1
 182 72 l 2
 182 45 196 39 218 39 c 2
 354 39 l 2
 430 39 469 98 489 170 c 1
 520 165 l 1
 508 113 493.5 49.5 483 -2 c 1
 483 -2 402.7 0 355 0 c 2
 142 0 l 1
 14 -2 l 1
 12 0 l 1
 12 20 l 2
 12 23 14 26.6 20 27 c 2
 50 29 l 2
 89.4 31.6 101 44 101 72 c 2
 101 573 l 2
 101 604 88.4 613.4 50 616 c 2
 20 618 l 2
 13 618.5 12 622 12 625 c 2
 12 645 l 1
 14 646 l 1
 14 646 115 645 142 645 c 2
 394.3 645 l 2
 418.5 645 423.8 645.6 441.3 649 c 0
 443.7 649 444.9 648.3 445.3 646 c 0
268 697 m 1
 238 734 203 764 167 792 c 1
 183 812 l 1
 222 795 256 776 289 751 c 1
 326 777 358 796 396 812 c 1
 411 792 l 1
 373 763 341 731 311 697 c 1
 268 697 l 1
EndSplineSet
Colour: ff00ff
EndChar

StartChar: ecaron
Encoding: 283 283 48
Width: 454
VWidth: 999
Flags: HW
HStem: -1 29<33 100 185 362> 230 32<176 299> 434 29<33 100 176 356>
VStem: 101 75<30 230 262 432> 307 26<171 199> 395 25<339 380> 402 25<76 125>
LayerCount: 2
Fore
SplineSet
222 509 m 1
 193 556 156 601 121 639 c 1
 141 652 l 1
 180 623 213 598 247 562 c 1
 284 600 318 625 355 652 c 1
 374 639 l 1
 339 600 301 555 272 509 c 1
 222 509 l 1
391 460 m 1
 392 417 398 378 405 340 c 1
 380 337 l 1
 370 373 351 426 287 426 c 2
 207 426 l 2
 188 426 178 422 178 405 c 2
 178 257 l 1
 253 257 l 2
 281 257 288 269 292 289 c 1
 298 310 l 2
 298 313 300 315 304 315 c 2
 321 315 l 2
 323 315 323 314 323 312 c 0
 321 290 317 262 317 238 c 0
 317 213 321 192 323 169 c 1
 321 167 l 1
 304 167 l 2
 299 167 297 169 297 172 c 2
 292 194 l 2
 288 214 279 225 253 225 c 2
 178 225 l 1
 178 58 l 2
 178 39 189 34 207 34 c 2
 293 34 l 2
 354 34 376 74 392 125 c 1
 417 122 l 1
 405 73 398 32 396 0 c 1
 132 0 l 1
 33 -2 l 1
 32 0 l 1
 32 22 l 2
 32 24 33 27 38 27 c 2
 61 29 l 2
 92 32 101 40 101 60 c 2
 101 401 l 2
 101 424 89 430 61 432 c 2
 38 434 l 2
 32 435 32 437 32 438 c 2
 32 460 l 1
 33 462 l 1
 133 460 l 1
 205 460 l 1
 391 460 l 1
EndSplineSet
Colour: ff00ff
EndChar

StartChar: Gcircumflex
Encoding: 284 284 49
Width: 693
VWidth: 999
Flags: HW
HStem: -12 37<292 497> 271 36<453 535 624 672> 621 37<269 472>
VStem: 32 87<215 431> 540 81<97 266>
LayerCount: 2
Fore
SplineSet
375 658 m 0
 497 658 533 613 593 613 c 1
 600 541 606 501 615 459 c 1
 585 453 l 1
 559 539 506 621 361 621 c 0
 226 621 119 502 119 327 c 0
 119 195 215 26 393 26 c 0
 447 26 506 42 540 74 c 1
 540 227 l 2
 540 258 525.2 265.9 485 269 c 2
 459 271 l 2
 455 271.3 451 274 451 279 c 2
 451 305 l 1
 453 307 l 1
 453 307 540 305 579 305 c 0
 614 305 672 307 672 307 c 1
 674 305 l 1
 674 279 l 2
 674 274 671 271.5 666 271 c 0
 637 268 621 262.2 621 227 c 2
 621 111 l 2
 621 100 626 92 637 83 c 1
 569 25 488 -10 370 -10 c 0
 169 -10 32 134 32 307 c 0
 32 527 203 658 375 658 c 0
385 805 m 1
 415 769 450 738 486 711 c 1
 470 690 l 1
 431 708 397 727 364 752 c 1
 327 725 295 707 257 690 c 1
 243 711 l 1
 280 739 311 771 342 805 c 1
 385 805 l 1
EndSplineSet
Colour: ff00ff
EndChar

StartChar: gcircumflex
Encoding: 285 285 50
Width: 545
VWidth: 999
Flags: HW
HStem: -12 27<225 371> 193 26<330 396 473 512> 447 27<204 376>
VStem: 38 78<139 328> 398 74<75 191>
LayerCount: 2
Fore
SplineSet
318 652 m 1
 347 605 383 563 419 523 c 1
 398 509 l 1
 359 538 326 563 292 599 c 1
 255 561 223 536 185 509 c 1
 165 523 l 1
 201 563 239 606 268 652 c 1
 318 652 l 1
397 160 m 2
 397 182 382.7 188.1 354 191 c 2
 334 193 l 2
 331 193.3 328 195 328 199 c 2
 328 221 l 1
 329 222 l 1
 329 222 409 221 439 221 c 0
 467 221 514 222 514 222 c 1
 516 221 l 1
 516 199 l 2
 516 195 513.9 193.7 510 193 c 0
 486 189 474 184.8 474 160 c 2
 474 85 l 2
 474 78 481 69 488 62 c 1
 426 19 353 -10 285 -10 c 0
 142 -10 38 92 38 220 c 0
 38 379 151 470 298 470 c 0
 354 470 428 454 458 454 c 1
 459 407 464 366 471 326 c 1
 445 323 l 1
 432 391 389 441 285 441 c 0
 180 441 124 354 124 233 c 0
 124 151 178 19 303 19 c 0
 338 19 372 32 397 57 c 1
 397 160 l 2
EndSplineSet
Colour: ff00ff
EndChar

StartChar: Gbreve
Encoding: 286 286 51
Width: 693
VWidth: 999
Flags: HW
HStem: -12 37<292 497> 271 36<453 535 624 672> 621 37<269 472> 693 52<303 436> 796 10<236 264 479 506>
VStem: 32 87<215 431> 236 271<759 806 806 806> 540 81<97 266>
LayerCount: 2
Fore
SplineSet
375 658 m 0
 497 658 533 613 593 613 c 1
 600 541 606 501 615 459 c 1
 585 453 l 1
 559 539 506 621 361 621 c 0
 226 621 119 502 119 327 c 0
 119 195 215 26 393 26 c 0
 447 26 506 42 540 74 c 1
 540 227 l 2
 540 258 525.2 265.9 485 269 c 2
 459 271 l 2
 455 271.3 451 274 451 279 c 2
 451 305 l 1
 453 307 l 1
 453 307 540 305 579 305 c 0
 614 305 672 307 672 307 c 1
 674 305 l 1
 674 279 l 2
 674 274 671 271.5 666 271 c 0
 637 268 621 262.2 621 227 c 2
 621 111 l 2
 621 100 626 92 637 83 c 1
 569 25 488 -10 370 -10 c 0
 169 -10 32 134 32 307 c 0
 32 527 203 658 375 658 c 0
507 806 m 1
 501 735 438 693 372 693 c 0
 299 693 241 736 236 806 c 1
 264 806 l 1
 272 767 319 745 372 745 c 0
 421 745 473 767 480 806 c 1
 507 806 l 1
EndSplineSet
Colour: ff00ff
EndChar

StartChar: gbreve
Encoding: 287 287 52
Width: 545
VWidth: 999
Flags: HW
HStem: -12 27<225 371> 193 26<330 396 473 512> 447 27<204 376> 513 57<210 348>
VStem: 38 78<139 328> 153 27<593 660> 396 26<594 662> 398 74<75 191>
LayerCount: 2
Fore
SplineSet
179 662 m 1
 181 610 228 570 288 570 c 0
 334 570 394 600 396 662 c 1
 423 648 l 1
 413 547 338 513 288 513 c 0
 211 513 160 570 153 648 c 1
 179 662 l 1
397 160 m 2
 397 182 383 188 354 191 c 2
 334 193 l 2
 331 193 328 195 328 199 c 2
 328 221 l 1
 329 222 l 1
 329 222 409 221 439 221 c 0
 467 221 514 222 514 222 c 1
 516 221 l 1
 516 199 l 2
 516 195 514 194 510 193 c 0
 486 189 474 185 474 160 c 2
 474 85 l 2
 474 78 481 69 488 62 c 1
 426 19 353 -10 285 -10 c 0
 142 -10 38 92 38 220 c 0
 38 379 151 474 298 474 c 0
 354 474 428 456 458 456 c 1
 459 409 464 368 471 328 c 1
 445 325 l 1
 432 393 389 447 285 447 c 0
 180 447 120 354 120 233 c 0
 120 151 178 17 303 17 c 0
 338 17 372 32 397 57 c 1
 397 160 l 2
EndSplineSet
Colour: ff00ff
EndChar

StartChar: Gdotaccent
Encoding: 288 288 53
Width: 693
VWidth: 999
Flags: HW
HStem: -12 37<292 497> 271 36<453 535 624 672> 621 37<269 472> 706 96<341 409>
VStem: 32 87<215 431> 327 96<719 788> 540 81<97 266>
LayerCount: 2
Fore
SplineSet
375 658 m 0
 497 658 533 613 593 613 c 1
 600 541 606 501 615 459 c 1
 585 453 l 1
 559 539 506 621 361 621 c 0
 226 621 119 502 119 327 c 0
 119 195 215 26 393 26 c 0
 447 26 506 42 540 74 c 1
 540 227 l 2
 540 258 525.2 265.9 485 269 c 2
 459 271 l 2
 455 271.3 451 274 451 279 c 2
 451 305 l 1
 453 307 l 1
 453 307 540 305 579 305 c 0
 614 305 672 307 672 307 c 1
 674 305 l 1
 674 279 l 2
 674 274 671 271.5 666 271 c 0
 637 268 621 262.2 621 227 c 2
 621 111 l 2
 621 100 626 92 637 83 c 1
 569 25 488 -10 370 -10 c 0
 169 -10 32 134 32 307 c 0
 32 527 203 658 375 658 c 0
327 753 m 0
 327 780 348 801 375 801 c 0
 401 801 423 780 423 753 c 0
 423 727 401 706 375 706 c 0
 348 706 327 727 327 753 c 0
EndSplineSet
Colour: ff00ff
EndChar

StartChar: gdotaccent
Encoding: 289 289 54
Width: 545
VWidth: 999
Flags: HW
HStem: -12 27<225 371> 193 26<330 396 473 512> 447 27<204 376> 509 96<259 327>
VStem: 38 78<139 328> 245 96<523 591> 398 74<75 191>
LayerCount: 2
Fore
SplineSet
245 557 m 0
 245 584 266 605 293 605 c 0
 319 605 341 584 341 557 c 0
 341 531 319 510 293 510 c 0
 266 510 245 531 245 557 c 0
397 160 m 2
 397 182 382.7 188.1 354 191 c 2
 334 193 l 2
 331 193.3 328 195 328 199 c 2
 328 221 l 1
 329 222 l 1
 329 222 409 221 439 221 c 0
 467 221 514 222 514 222 c 1
 516 221 l 1
 516 199 l 2
 516 195 513.9 193.7 510 193 c 0
 486 189 474 184.8 474 160 c 2
 474 85 l 2
 474 78 481 69 488 62 c 1
 426 19 353 -10 285 -10 c 0
 142 -10 38 92 38 220 c 0
 38 379 151 470 298 470 c 0
 354 470 428 454 458 454 c 1
 459 407 464 366 471 326 c 1
 445 323 l 1
 432 391 389 441 285 441 c 0
 180 441 124 354 124 233 c 0
 124 151 178 19 303 19 c 0
 338 19 372 32 397 57 c 1
 397 160 l 2
EndSplineSet
Colour: ff00ff
EndChar

StartChar: Gcommaaccent
Encoding: 290 290 55
Width: 693
VWidth: 999
Flags: HW
HStem: -134 82<328 394> -12 37<292 497> 271 36<453 535 624 672> 621 37<269 472>
VStem: 32 87<215 431> 404 32<-156 -122> 540 81<97 266>
LayerCount: 2
Fore
SplineSet
375 658 m 0
 497 658 533 613 593 613 c 1
 600 541 606 501 615 459 c 1
 585 453 l 1
 559 539 506 621 361 621 c 0
 226 621 119 502 119 327 c 0
 119 195 215 26 393 26 c 0
 447 26 506 42 540 74 c 1
 540 227 l 2
 540 258 525.2 265.9 485 269 c 2
 459 271 l 2
 455 271.3 451 274 451 279 c 2
 451 305 l 1
 453 307 l 1
 453 307 540 305 579 305 c 0
 614 305 672 307 672 307 c 1
 674 305 l 1
 674 279 l 2
 674 274 671 271.5 666 271 c 0
 637 268 621 262.2 621 227 c 2
 621 111 l 2
 621 100 626 92 637 83 c 1
 569 25 488 -10 370 -10 c 0
 169 -10 32 134 32 307 c 0
 32 527 203 658 375 658 c 0
375 -53 m 0
 414 -53 437 -90 437 -125 c 0
 437 -151 420 -227 330 -231 c 1
 326 -214 l 1
 402 -199 405 -141 405 -135 c 0
 405 -131 404 -128 403 -125 c 1
 392 -131 382 -134 374 -134 c 0
 333 -134 324 -109 324 -93 c 0
 324 -77 339 -53 375 -53 c 0
EndSplineSet
Colour: ff00ff
EndChar

StartChar: gcommaaccent
Encoding: 291 291 56
Width: 545
VWidth: 999
Flags: HW
HStem: -12 27<225 371> 193 26<330 396 473 512> 447 27<204 376>
VStem: 38 78<139 328> 398 74<75 191>
LayerCount: 2
Fore
SplineSet
297 513 m 0
 259 513 237 550 237 586 c 0
 237 612 252 687 343 692 c 1
 347 675 l 1
 305 666 287 629 287 606 c 0
 287 596 291 588 298 588 c 0
 339 588 344 563 344 547 c 0
 344 531 333 513 297 513 c 0
397 160 m 2
 397 182 382.7 188.1 354 191 c 2
 334 193 l 2
 331 193.3 328 195 328 199 c 2
 328 221 l 1
 329 222 l 1
 329 222 409 221 439 221 c 0
 467 221 514 222 514 222 c 1
 516 221 l 1
 516 199 l 2
 516 195 513.9 193.7 510 193 c 0
 486 189 474 184.8 474 160 c 2
 474 85 l 2
 474 78 481 69 488 62 c 1
 426 19 353 -10 285 -10 c 0
 142 -10 38 92 38 220 c 0
 38 379 151 470 298 470 c 0
 354 470 428 454 458 454 c 1
 459 407 464 366 471 326 c 1
 445 323 l 1
 432 391 389 441 285 441 c 0
 180 441 124 354 124 233 c 0
 124 151 178 19 303 19 c 0
 338 19 372 32 397 57 c 1
 397 160 l 2
EndSplineSet
Colour: ff00ff
EndChar

StartChar: Hcircumflex
Encoding: 292 292 57
Width: 700
VWidth: 999
Flags: HW
HStem: -1 29<20 100 192 274 427 507 600 682> 324 39<187 514> 618 29<19 101 193 274 426 508 601 681>
VStem: 106 81<34 324 363 612> 514 81<34 324 363 612>
LayerCount: 2
Fore
SplineSet
368 803 m 1
 398 767 433 736 469 709 c 1
 453 688 l 1
 414 706 380 725 347 750 c 1
 310 723 278 705 240 688 c 1
 226 709 l 1
 263 737 294 769 325 803 c 1
 368 803 l 1
513 74 m 2
 513 321 l 1
 187 321 l 1
 187 72 l 2
 187 41 202.3 32.1 242 29 c 2
 268 27 l 2
 272 26.7 276 24 276 19 c 2
 276 0 l 1
 274 -2 l 1
 274 -2 188 0 148 0 c 0
 113 0 20 -2 20 -2 c 1
 18 0 l 1
 18 19 l 2
 18 24 21 26.7 25 27 c 2
 52 29 l 2
 92.8 32 106 44 106 72 c 2
 106 574 l 2
 106 604 89.8 613.2 52 616 c 2
 25 618 l 2
 21 618.3 17 621 17 626 c 2
 17 645 l 1
 19 647 l 1
 19 647 106 645 145 645 c 0
 181 645 274 647 274 647 c 1
 276 645 l 1
 276 626 l 2
 276 621 273 618.4 268 618 c 2
 242 616 l 2
 201.8 612.9 187 602 187 574 c 2
 187 363 l 1
 513 363 l 1
 513 574 l 2
 513 604 498.3 613 459 616 c 2
 433 618 l 2
 428 618.4 424 621 424 626 c 2
 424 645 l 1
 426 647 l 1
 426 647 513 645 552 645 c 0
 588 645 681 647 681 647 c 1
 683 645 l 1
 683 626 l 2
 683 621 680 618.4 675 618 c 2
 649 616 l 2
 608.7 612.9 594 602 594 574 c 2
 594 74 l 2
 594 43 608.4 32.1 649 29 c 2
 675 27 l 2
 680 26.6 684 24 684 19 c 2
 684 0 l 1
 682 -2 l 1
 682 -2 595 0 556 0 c 0
 520 0 427 -2 427 -2 c 1
 425 0 l 1
 425 19 l 2
 425 24 428 26.6 433 27 c 2
 459 29 l 2
 502 32.3 513 46 513 74 c 2
EndSplineSet
Colour: ff00ff
EndChar

StartChar: hcircumflex
Encoding: 293 293 58
Width: 590
VWidth: 999
Flags: HW
HStem: 1 27<34 101 177 244 352 418 495 562> 234 32<176 419> 434 27<34 92 92 93 93 101 177 244 351 419 495 562>
VStem: 102 75<30 234 266 431> 419 74<30 234 266 431>
LayerCount: 2
Fore
SplineSet
321 652 m 1
 350 605 386 563 422 523 c 1
 401 509 l 1
 362 538 329 563 295 599 c 1
 258 561 226 536 188 509 c 1
 168 523 l 1
 204 563 242 606 271 652 c 1
 321 652 l 1
412 61 m 2
 412 220 l 1
 179 220 l 1
 179 61 l 2
 179 39 190.5 31.9 221 29 c 2
 242 27 l 2
 245 26.7 248 24 248 21 c 2
 248 0 l 1
 247 -2 l 1
 247 -2 170 0 140 0 c 0
 112 0 34 -2 34 -2 c 1
 32 0 l 1
 32 21 l 2
 32 24 35 26.6 39 27 c 2
 59 29 l 2
 93.5 32.4 102 41 102 61 c 2
 102 402 l 2
 102 424 91 427.8 59 431 c 2
 39 433 l 2
 35 433.4 32 435 32 439 c 2
 32 460 l 1
 34 462 l 1
 34 462 109 460 140 460 c 0
 167 460 247 462 247 462 c 1
 248 460 l 1
 248 439 l 2
 248 435 246 433.4 242 433 c 2
 221 431 l 2
 191.2 428.2 179 422 179 402 c 2
 179 251 l 1
 412 251 l 1
 412 402 l 2
 412 424 399 428 369 431 c 2
 349 433 l 2
 345 433.4 342 435 342 439 c 2
 342 460 l 1
 344 462 l 1
 344 462 418 460 449 460 c 0
 477 460 557 462 557 462 c 1
 558 460 l 1
 558 439 l 2
 558 435 556 433.4 552 433 c 2
 532 431 l 2
 499.2 427.7 489 422 489 402 c 2
 489 61 l 2
 489 39 499.5 32.2 532 29 c 2
 552 27 l 2
 556 26.6 559 24 559 21 c 2
 559 0 l 1
 557 -2 l 1
 557 -2 478 0 448 0 c 0
 420 0 344 -2 344 -2 c 1
 343 0 l 1
 343 21 l 2
 343 24 345 26.6 349 27 c 2
 369 29 l 2
 399.5 32 412 41 412 61 c 2
EndSplineSet
Colour: ff00ff
EndChar

StartChar: Hbar
Encoding: 294 294 59
Width: 700
VWidth: 999
Flags: HW
HStem: -1 29<20 100 192 274 427 507 600 682> 324 39<187 514> 510 39<41 656> 618 29<19 101 193 274 426 508 601 681>
VStem: 106 81<34 324 363 612> 514 81<34 324 363 612>
LayerCount: 2
Fore
SplineSet
513 74 m 2
 513 321 l 1
 187 321 l 1
 187 72 l 2
 187 41 202.3 32.1 242 29 c 2
 268 27 l 2
 272 26.7 276 24 276 19 c 2
 276 0 l 1
 274 -2 l 1
 274 -2 188 0 148 0 c 0
 113 0 20 -2 20 -2 c 1
 18 0 l 1
 18 19 l 2
 18 24 21 26.7 25 27 c 2
 52 29 l 2
 92.8 32 106 44 106 72 c 2
 106 510 l 1
 41 510 l 1
 41 549 l 1
 106 549 l 1
 106 574 l 2
 106 604 89.8 613.2 52 616 c 2
 25 618 l 2
 21 618.3 17 621 17 626 c 2
 17 645 l 1
 19 647 l 1
 19 647 106 645 145 645 c 0
 181 645 274 647 274 647 c 1
 276 645 l 1
 276 626 l 2
 276 621 273 618.4 268 618 c 2
 242 616 l 2
 201.8 612.9 187 602 187 574 c 2
 187 549 l 1
 513 549 l 1
 513 574 l 2
 513 604 498.3 613 459 616 c 2
 433 618 l 2
 428 618.4 424 621 424 626 c 2
 424 645 l 1
 426 647 l 1
 426 647 513 645 552 645 c 0
 588 645 681 647 681 647 c 1
 683 645 l 1
 683 626 l 2
 683 621 680 618.4 675 618 c 2
 649 616 l 2
 608.7 612.9 594 602 594 574 c 2
 594 549 l 1
 656 549 l 1
 656 510 l 1
 594 510 l 1
 594 74 l 2
 594 43 608.4 32.1 649 29 c 2
 675 27 l 2
 680 26.6 684 24 684 19 c 2
 684 0 l 1
 682 -2 l 1
 682 -2 595 0 556 0 c 0
 520 0 427 -2 427 -2 c 1
 425 0 l 1
 425 19 l 2
 425 24 428 26.6 433 27 c 2
 459 29 l 2
 502 32.3 513 46 513 74 c 2
513 510 m 1
 187 510 l 1
 187 363 l 1
 513 363 l 1
 513 510 l 1
EndSplineSet
Colour: ff87bf
EndChar

StartChar: hbar
Encoding: 295 295 60
Width: 590
VWidth: 999
Flags: HW
HStem: 1 27<34 101 177 244 352 418 495 562> 234 32<176 419> 346 32<40 553> 434 27<34 92 92 93 93 101 177 244 351 419 495 562>
VStem: 102 75<30 234 266 431> 419 74<30 234 266 431>
LayerCount: 2
Fore
SplineSet
412 61 m 2
 412 220 l 1
 179 220 l 1
 179 61 l 2
 179 39 190.5 31.9 221 29 c 2
 242 27 l 2
 245 26.7 248 24 248 21 c 2
 248 0 l 1
 247 -2 l 1
 247 -2 170 0 140 0 c 0
 112 0 34 -2 34 -2 c 1
 32 0 l 1
 32 21 l 2
 32 24 35 26.6 39 27 c 2
 59 29 l 2
 93.5 32.4 102 41 102 61 c 2
 102 346 l 1
 40 346 l 1
 40 378 l 1
 102 378 l 1
 102 402 l 2
 102 424 91 427.8 59 431 c 2
 39 433 l 2
 35 433.4 32 435 32 439 c 2
 32 460 l 1
 34 462 l 1
 34 462 109 460 140 460 c 0
 167 460 247 462 247 462 c 1
 248 460 l 1
 248 439 l 2
 248 435 246 433.4 242 433 c 2
 221 431 l 2
 191.2 428.2 179 422 179 402 c 2
 179 378 l 1
 412 378 l 1
 412 402 l 2
 412 424 399 428 369 431 c 2
 349 433 l 2
 345 433.4 342 435 342 439 c 2
 342 460 l 1
 344 462 l 1
 344 462 418 460 449 460 c 0
 477 460 557 462 557 462 c 1
 558 460 l 1
 558 439 l 2
 558 435 556 433.4 552 433 c 2
 532 431 l 2
 499.2 427.7 489 422 489 402 c 2
 489 378 l 1
 553 378 l 1
 553 346 l 1
 489 346 l 1
 489 61 l 2
 489 39 499.5 32.2 532 29 c 2
 552 27 l 2
 556 26.6 559 24 559 21 c 2
 559 0 l 1
 557 -2 l 1
 557 -2 478 0 448 0 c 0
 420 0 344 -2 344 -2 c 1
 343 0 l 1
 343 21 l 2
 343 24 345 26.6 349 27 c 2
 369 29 l 2
 399.5 32 412 41 412 61 c 2
412 346 m 1
 179 346 l 1
 179 251 l 1
 412 251 l 1
 412 346 l 1
EndSplineSet
Colour: ff87bf
EndChar

StartChar: Itilde
Encoding: 296 296 61
Width: 293
VWidth: 999
Flags: HW
HStem: -1 29<20 100 192 274> 618 29<19 101 193 274> 696 44<189 241> 745 46<48 105>
VStem: 10 277<702 787> 106 81<33 612>
LayerCount: 2
Fore
SplineSet
187 574 m 2
 187 71 l 2
 187 41 202.3 32.1 242 29 c 2
 268 27 l 2
 272 26.7 276 24 276 19 c 2
 276 0 l 1
 274 -2 l 1
 226.5 0 196.5 0 147 0 c 0
 97.5 0 69 0 20 -2 c 1
 18 0 l 1
 18 19 l 2
 18 24 21 26.7 25 27 c 2
 52 29 l 2
 93.6 32.1 106 43 106 71 c 2
 106 574 l 2
 106 604 91.3 613.1 52 616 c 2
 25 618 l 2
 21 618.3 17 621 17 626 c 2
 17 645 l 1
 19 647 l 1
 69 646 96.5 645 146 645 c 0
 195.9 645 225 646 274 647 c 1
 276 645 l 1
 276 626 l 2
 276 621 273 618.4 268 618 c 2
 242 616 l 2
 202.2 612.9 187 602 187 574 c 2
213 741 m 0
 235 741 249 751 263 793 c 1
 287 787 l 1
 275 727 246 697 200 697 c 0
 178 697 157 709 136 723 c 0
 118 734 99 745 82 745 c 0
 56 745 43 730 33 697 c 1
 9 702 l 1
 23 761 46 791 89 791 c 0
 119 791 141 777 161 763 c 0
 177 751 194 741 213 741 c 0
EndSplineSet
Colour: ff00ff
EndChar

StartChar: itilde
Encoding: 297 297 62
Width: 279
VWidth: 999
Flags: HW
HStem: 1 27<34 99 179 244> 434 27<33 92 92 92 92 101 177 244> 509 44<176 229> 558 46<36 93>
VStem: -2 277<515 600> 102 75<31 431>
LayerCount: 2
Fore
SplineSet
179 400 m 2
 179 67 l 2
 179 45 189.5 32 221 29 c 2
 242 27 l 2
 245 26.7 248 25 248 21 c 2
 248 0 l 1
 247 -2 l 1
 247 -2 171 0 140 0 c 0
 112 0 34 -2 34 -2 c 1
 32 0 l 1
 32 21 l 2
 32 25 35 26.6 39 27 c 2
 59 29 l 2
 92.5 32.3 102 48 102 67 c 2
 102 400 l 2
 102 422 89.8 427.9 59 431 c 2
 39 433 l 2
 35 433.4 32 434 32 437 c 2
 32 460 l 1
 33 462 l 1
 33 462 112 460 143 460 c 0
 170 460 247 462 247 462 c 1
 248 460 l 1
 248 438 l 2
 248 435 246 433.4 242 433 c 2
 221 431 l 2
 190.2 428.1 179 420 179 400 c 2
201 554 m 0
 223 554 237 564 251 606 c 1
 275 600 l 1
 263 540 234 510 188 510 c 0
 166 510 145 522 124 536 c 0
 106 547 87 558 70 558 c 0
 44 558 31 543 21 510 c 1
 -3 515 l 1
 11 574 34 604 77 604 c 0
 107 604 129 590 149 576 c 0
 165 564 182 554 201 554 c 0
EndSplineSet
Colour: ff00ff
EndChar

StartChar: Imacron
Encoding: 298 298 63
Width: 293
VWidth: 999
Flags: HW
HStem: -1 29<20 100 192 274> 618 29<19 101 193 274> 733 44<19 282>
VStem: 106 81<33 612>
LayerCount: 2
Fore
SplineSet
187 574 m 2
 187 71 l 2
 187 41 202.3 32.1 242 29 c 2
 268 27 l 2
 272 26.7 276 24 276 19 c 2
 276 0 l 1
 274 -2 l 1
 226.5 0 196.5 0 147 0 c 0
 97.5 0 69 0 20 -2 c 1
 18 0 l 1
 18 19 l 2
 18 24 21 26.7 25 27 c 2
 52 29 l 2
 93.6 32.1 106 43 106 71 c 2
 106 574 l 2
 106 604 91.3 613.1 52 616 c 2
 25 618 l 2
 21 618.3 17 621 17 626 c 2
 17 645 l 1
 19 647 l 1
 69 646 96.5 645 146 645 c 0
 195.9 645 225 646 274 647 c 1
 276 645 l 1
 276 626 l 2
 276 621 273 618.4 268 618 c 2
 242 616 l 2
 202.2 612.9 187 602 187 574 c 2
265 733 m 2
 21 733 l 2
 12 733 8 741 8 748 c 0
 8 760 19 777 30 777 c 2
 275 777 l 2
 285 777 289 769 289 763 c 0
 289 751 278 733 265 733 c 2
EndSplineSet
Colour: ff00ff
EndChar

StartChar: imacron
Encoding: 299 299 64
Width: 279
VWidth: 999
Flags: HW
HStem: 1 27<34 99 179 244> 434 27<33 92 92 92 92 101 177 244> 509 44<6 269>
VStem: 102 75<31 431>
LayerCount: 2
Fore
SplineSet
179 400 m 2
 179 67 l 2
 179 45 189.5 32 221 29 c 2
 242 27 l 2
 245 26.7 248 25 248 21 c 2
 248 0 l 1
 247 -2 l 1
 247 -2 171 0 140 0 c 0
 112 0 34 -2 34 -2 c 1
 32 0 l 1
 32 21 l 2
 32 25 35 26.6 39 27 c 2
 59 29 l 2
 92.5 32.3 102 48 102 67 c 2
 102 400 l 2
 102 422 89.8 427.9 59 431 c 2
 39 433 l 2
 35 433.4 32 434 32 437 c 2
 32 460 l 1
 33 462 l 1
 33 462 112 460 143 460 c 0
 170 460 247 462 247 462 c 1
 248 460 l 1
 248 438 l 2
 248 435 246 433.4 242 433 c 2
 221 431 l 2
 190.2 428.1 179 420 179 400 c 2
253 509 m 2
 9 509 l 2
 0 509 -4 517 -4 524 c 0
 -4 536 7 553 18 553 c 2
 263 553 l 2
 273 553 277 545 277 539 c 0
 277 527 266 509 253 509 c 2
EndSplineSet
Colour: ff00ff
EndChar

StartChar: Ibreve
Encoding: 300 300 65
Width: 293
VWidth: 999
Flags: HW
HStem: -1 29<20 100 192 274> 618 29<19 101 193 274> 692 52<80 212> 795 10<13 41 256 283>
VStem: 13 271<758 805 805 805> 106 81<33 612>
LayerCount: 2
Fore
SplineSet
187 574 m 2
 187 71 l 2
 187 41 202.3 32.1 242 29 c 2
 268 27 l 2
 272 26.7 276 24 276 19 c 2
 276 0 l 1
 274 -2 l 1
 226.5 0 196.5 0 147 0 c 0
 97.5 0 69 0 20 -2 c 1
 18 0 l 1
 18 19 l 2
 18 24 21 26.7 25 27 c 2
 52 29 l 2
 93.6 32.1 106 43 106 71 c 2
 106 574 l 2
 106 604 91.3 613.1 52 616 c 2
 25 618 l 2
 21 618.3 17 621 17 626 c 2
 17 645 l 1
 19 647 l 1
 69 646 96.5 645 146 645 c 0
 195.9 645 225 646 274 647 c 1
 276 645 l 1
 276 626 l 2
 276 621 273 618.4 268 618 c 2
 242 616 l 2
 202.2 612.9 187 602 187 574 c 2
284 805 m 1
 278 734 215 692 149 692 c 0
 76 692 18 735 13 805 c 1
 41 805 l 1
 49 766 96 744 149 744 c 0
 198 744 250 766 257 805 c 1
 284 805 l 1
EndSplineSet
Colour: ff00ff
EndChar

StartChar: ibreve
Encoding: 301 301 66
Width: 279
VWidth: 999
Flags: HW
HStem: 1 27<34 99 179 244> 434 27<33 92 92 92 92 101 177 244> 509 57<58 197>
VStem: 1 27<589 656> 102 75<31 431> 245 26<590 658>
LayerCount: 2
Fore
SplineSet
179 400 m 2
 179 67 l 2
 179 45 189.5 32 221 29 c 2
 242 27 l 2
 245 26.7 248 25 248 21 c 2
 248 0 l 1
 247 -2 l 1
 247 -2 171 0 140 0 c 0
 112 0 34 -2 34 -2 c 1
 32 0 l 1
 32 21 l 2
 32 25 35 26.6 39 27 c 2
 59 29 l 2
 92.5 32.3 102 48 102 67 c 2
 102 400 l 2
 102 422 89.8 427.9 59 431 c 2
 39 433 l 2
 35 433.4 32 434 32 437 c 2
 32 460 l 1
 33 462 l 1
 33 462 112 460 143 460 c 0
 170 460 247 462 247 462 c 1
 248 460 l 1
 248 438 l 2
 248 435 246 433.4 242 433 c 2
 221 431 l 2
 190.2 428.1 179 420 179 400 c 2
27 658 m 1
 29 606 76 566 136 566 c 0
 182 566 242 596 244 658 c 1
 271 644 l 1
 261 543 186 509 136 509 c 0
 59 509 8 566 1 644 c 1
 27 658 l 1
EndSplineSet
Colour: ff00ff
EndChar

StartChar: Iogonek
Encoding: 302 302 67
Width: 293
VWidth: 999
Flags: HW
HStem: -225 40<151 241> -1 25<204 253> -1 29<20 100 192 274> 618 29<19 101 193 274>
VStem: 79 60<-174 -75> 106 81<33 612>
LayerCount: 2
Fore
SplineSet
172 -225 m 0
 119 -225 79 -194 79 -140 c 0
 79 -92.1 119.8 -33.2 181 -0 c 1
 170.5 0 159.3 0 147 0 c 0
 97.5 0 69 0 20 -2 c 1
 18 0 l 1
 18 19 l 2
 18 24 21 26.7 25 27 c 2
 52 29 l 2
 93.6 32.1 106 43 106 71 c 2
 106 574 l 2
 106 604 91.3 613.1 52 616 c 2
 25 618 l 2
 21 618.3 17 621 17 626 c 2
 17 645 l 1
 19 647 l 1
 69 646 96.5 645 146 645 c 0
 195.9 645 225 646 274 647 c 1
 276 645 l 1
 276 626 l 2
 276 621 273 618.4 268 618 c 2
 242 616 l 2
 202.2 612.9 187 602 187 574 c 2
 187 71 l 2
 187 41 202.3 32.1 242 29 c 2
 268 27 l 2
 272 26.7 276 24 276 19 c 2
 276 0 l 1
 274 -2 l 1
 270 -1.8 266.1 -1.6 262.3 -1.5 c 0
 188.7 -8.3 139 -78.5 139 -127 c 0
 139 -159 161 -186 197 -186 c 0
 227 -186 248 -171 267 -150 c 1
 282 -158 l 1
 258 -205 208 -225 172 -225 c 0
EndSplineSet
Colour: ff87bf
EndChar

StartChar: iogonek
Encoding: 303 303 68
Width: 279
VWidth: 999
Flags: HW
HStem: -224 40<105 196> 0 25<159 208> 1 27<34 99 179 244> 434 27<33 92 92 92 92 101 177 244>
VStem: 34 60<-173 -74> 102 75<31 431>
LayerCount: 2
Fore
SplineSet
127 -224 m 0
 73 -224 34 -193 34 -139 c 0
 34 -91.5 73.5 -33.4 133.7 -0 c 1
 101.9 -0.2 34 -2 34 -2 c 2
 32 0 l 1
 32 21 l 2
 32 25 35 26.6 39 27 c 2
 59 29 l 2
 92.5 32.3 102 48 102 67 c 2
 102 400 l 2
 102 422 89.8 427.9 59 431 c 2
 39 433 l 2
 35 433.4 32 434 32 437 c 2
 32 460 l 1
 33 462 l 1
 33 462 112 460 143 460 c 0
 170 460 247 462 247 462 c 1
 248 460 l 1
 248 438 l 2
 248 435 246 433.4 242 433 c 2
 221 431 l 2
 190.2 428.1 179 420 179 400 c 2
 179 67 l 2
 179 45 189.5 32 221 29 c 2
 242 27 l 2
 245 26.7 248 25 248 21 c 2
 248 0 l 1
 247 -2 l 1
 247 -2 231.6 -1.5 211.8 -1.1 c 1
 140.4 -10.7 94 -78.7 94 -126 c 0
 94 -158 116 -185 152 -185 c 0
 182 -185 202 -170 221 -149 c 1
 237 -157 l 1
 213 -204 162 -224 127 -224 c 0
EndSplineSet
Colour: ff87bf
EndChar

StartChar: Idotaccent
Encoding: 304 304 69
Width: 293
VWidth: 999
Flags: HW
HStem: -1 29<20 100 192 274> 618 29<19 101 193 274> 703 96<112 181>
VStem: 99 96<716 785> 106 81<33 612>
LayerCount: 2
Fore
SplineSet
187 574 m 2
 187 71 l 2
 187 41 202.3 32.1 242 29 c 2
 268 27 l 2
 272 26.7 276 24 276 19 c 2
 276 0 l 1
 274 -2 l 1
 226.5 0 196.5 0 147 0 c 0
 97.5 0 69 0 20 -2 c 1
 18 0 l 1
 18 19 l 2
 18 24 21 26.7 25 27 c 2
 52 29 l 2
 93.6 32.1 106 43 106 71 c 2
 106 574 l 2
 106 604 91.3 613.1 52 616 c 2
 25 618 l 2
 21 618.3 17 621 17 626 c 2
 17 645 l 1
 19 647 l 1
 69 646 96.5 645 146 645 c 0
 195.9 645 225 646 274 647 c 1
 276 645 l 1
 276 626 l 2
 276 621 273 618.4 268 618 c 2
 242 616 l 2
 202.2 612.9 187 602 187 574 c 2
98 750 m 0
 98 777 119 798 146 798 c 0
 172 798 194 777 194 750 c 0
 194 724 172 703 146 703 c 0
 119 703 98 724 98 750 c 0
EndSplineSet
Colour: ff00ff
EndChar

StartChar: afii10057
Encoding: 1032 1032 70
Width: 371
VWidth: 999
Flags: HW
HStem: -12 31<116.593 176.094> 618 28<94 137 333 356>
VStem: 198 81<62.921 602.762>
LayerCount: 2
Fore
SplineSet
143 19 m 0
 192 19 198 79 198 172 c 2
 198 559 l 2
 198 589 176.8 613.8 137 616 c 2
 101 618 l 2
 96 618.3 92 621 92 626 c 2
 92 645 l 1
 94 646 l 1
 94 646 198 645 237 645 c 0
 272 645 356 646 356 646 c 1
 358 645 l 1
 358 626 l 2
 358 621 355 618.6 350 618 c 2
 333 616 l 2
 293.6 611.4 279 600 279 572 c 2
 279 194 l 2
 279 16 206 -12 143 -12 c 0
 109 -12 39 -2 39 51 c 0
 39 76 57 86 72 86 c 0
 100 86 110 61 112 49 c 0
 114 36 121 19 143 19 c 0
EndSplineSet
EndChar

StartChar: afii10061
Encoding: 1036 1036 71
Width: 602
VWidth: 999
Flags: HW
HStem: -2 29<20 52 242 274 566 583> 323 43<187 280.713> 590 61<426.699 532.056> 618 29<19 52 242 274> 698 122
VStem: 106 81<35.3322 609.22> 288 201
LayerCount: 2
Fore
SplineSet
583 -2 m 1
 510 -1 l 2
 430 0.1 398 70 355 180 c 0
 315.9 280 298 321 187 323 c 1
 187 71 l 2
 187 41 202.3 32.1 242 29 c 2
 268 27 l 2
 272 26.7 276 24 276 19 c 2
 276 0 l 1
 274 -2 l 1
 226.5 0 196.5 0 147 0 c 0
 97.5 0 69 0 20 -2 c 1
 18 0 l 1
 18 19 l 2
 18 24 21 26.7 25 27 c 2
 52 29 l 2
 93.6 32.1 106 43 106 71 c 2
 106 574 l 2
 106 604 91.3 613.1 52 616 c 2
 25 618 l 2
 21 618.3 17 621 17 626 c 2
 17 645 l 1
 19 647 l 1
 69 646 96.5 645 146 645 c 0
 195.9 645 225 646 274 647 c 1
 276 645 l 1
 276 626 l 2
 276 621 273 618.4 268 618 c 2
 242 616 l 2
 202.2 612.9 187 602 187 574 c 2
 187 366 l 1
 223 366 268 367 292 381 c 0
 351 413 362 488 371 544 c 1
 379 602 432 651 502 651 c 0
 555 651 573 624 573 601 c 0
 573 576 550 559 529 559 c 0
 516 559 501 563 492 572 c 0
 482 583 469 590 456 590 c 0
 433 590 412.1 562 407 533 c 0
 396 470 379 368 299 343 c 1
 368 343 388.9 295.9 415 236 c 0
 473 103 531 31.5 566 28 c 2
 576 27 l 2
 581 26.5 584 24 584 19 c 2
 584 0 l 1
 583 -2 l 1
427 820 m 1
 489 768 l 1
 345 710 l 2
 324 701 311 698 302 698 c 0
 293 698 288 703 288 713 c 0
 288 720 290 725 303 734 c 2
 427 820 l 1
EndSplineSet
LCarets2: 1 0 
Colour: ff00ff
EndChar

StartChar: uni040D
Encoding: 1037 1037 72
Width: 700
VWidth: 999
Flags: HW
HStem: -2 29<20 52 242 274 427 459 649 682> 618 28<20 52 242 274 426 459 649 681>
VStem: 106 81<35.9534 78 134 609.354> 514 81<36.3852 505 561 608.905>
DStem2: 187 134 187 78 0.608002 0.793935<0 493.367>
LayerCount: 2
Fore
SplineSet
595 572 m 2
 595 73 l 2
 595 43 610.2 32 649 29 c 2
 675 27 l 2
 680 26.6 684 24 684 19 c 2
 684 0 l 1
 682 -2 l 1
 682 -2 595 0 556 0 c 0
 520 0 427 -2 427 -2 c 1
 425 0 l 1
 425 19 l 2
 425 24 428 26.6 433 27 c 2
 459 29 l 2
 499.3 32.1 514 45 514 73 c 2
 514 505 l 1
 187 78 l 1
 187 74 l 2
 187 43 201.2 32.1 242 29 c 2
 268 27 l 2
 272 26.7 276 24 276 19 c 2
 276 0 l 1
 274 -2 l 1
 274 -2 188 0 148 0 c 0
 113 0 20 -2 20 -2 c 1
 18 0 l 1
 18 19 l 2
 18 24 21 26.7 25 27 c 2
 52 29 l 2
 94.3 32.1 106 46 106 74 c 2
 106 573 l 2
 106 603 91.1 613.1 52 616 c 2
 25 618 l 2
 21 618.3 18 621 18 626 c 2
 18 645 l 1
 20 646 l 1
 20 646 106 644 146 644 c 0
 181 644 274 646 274 646 c 1
 276 645 l 1
 276 626 l 2
 276 621 273 618.4 268 618 c 2
 242 616 l 2
 200.7 612.8 187 601 187 573 c 2
 187 134 l 1
 514 561 l 1
 514 572 l 2
 514 603 498.8 612.9 459 616 c 2
 433 618 l 2
 428 618.4 424 621 424 626 c 2
 424 645 l 1
 426 646 l 1
 426 646 513 644 552 644 c 0
 588 644 681 647 681 647 c 1
 683 645 l 1
 683 626 l 2
 683 621 680 618.4 675 618 c 2
 649 616 l 2
 609.4 613 595 600 595 572 c 2
299 818 m 1
 420 734 l 2
 431 726 435 720 435 713 c 0
 435 703 430 698 420 698 c 0
 412 698 399 701 377 710 c 2
 223 773 l 1
 299 818 l 1
EndSplineSet
LCarets2: 1 0 
Colour: ff00ff
EndChar

StartChar: afii10062
Encoding: 1038 1038 73
Width: 580
VWidth: 999
Flags: HW
HStem: -22 62<133 229.447> 618 28<1 51.985 192 235 391 425 520.846 579> 697 31<266.536 357.309>
VStem: 187 70<735.681 802.162> 366 70<734.774 802.125>
DStem2: 170 575 88 559 0.41865 -0.908148<-32.5036 379.947> 283 136 342 161 0.370296 0.928914<-102.293 0 103.423 504.868>
LayerCount: 2
Fore
SplineSet
195 40 m 0
 227 40 252 61 283 136 c 1
 88 559 l 2
 78.8 578.9 58 615 10 618 c 0
 4 618.4 0 621 0 625 c 2
 0 645 l 1
 1 646 l 1
 1 646 64 645 105 645 c 0
 155 645 235 646 235 646 c 1
 237 645 l 1
 237 626 l 2
 237 621 235 618.3 230 618 c 2
 192 616 l 2
 159.6 614.3 158.2 601.1 170 575 c 2
 327 229 l 1
 329 229 l 1
 458 575 l 2
 471.1 610.2 465.3 613.2 425 616 c 2
 396 618 l 2
 392 618.3 390 621 390 625 c 2
 390 645 l 1
 391 646 l 1
 391 646 457 645 499 645 c 0
 531 645 579 646 579 646 c 1
 581 645 l 1
 581 626 l 2
 581 620 574 618.3 570 618 c 0
 523.5 615 514 606 499 566 c 2
 342 161 l 2
 299 52 244 -22 154 -22 c 0
 112 -22 66 1 66 33 c 0
 66 61 81 79 113 79 c 0
 127 79 149 72 159 60 c 0
 166 51 181 40 195 40 c 0
436 774 m 0
 436 722 374 697 311 697 c 0
 245 697 187 721 187 773 c 0
 187 795 199 804 226 804 c 0
 247 804 257 788 257 773 c 0
 257 771 257 770 257 769 c 0
 257 767 257 766 257 765 c 0
 257 745 279 728 312 728 c 0
 342 728 367 742 367 764 c 0
 367 766 366 767 366 769 c 0
 366 770 366 772 366 773 c 0
 366 788 375 804 398 804 c 0
 424 804 436 794 436 774 c 0
EndSplineSet
LCarets2: 1 0 
Colour: ff00ff
EndChar

StartChar: afii10020
Encoding: 1043 1043 74
Width: 481
VWidth: 999
Flags: HW
HStem: -2 29<14 47 238 270> 605 40<184.437 406.492> 618 28<14 50>
VStem: 102 81<36.3415 603.635> 457 29<488.793 527.352>
LayerCount: 2
Fore
SplineSet
343 605 m 2
 219 605 l 2
 197 605 183 599 183 573 c 2
 183 74 l 2
 183 46 197.2 32.1 238 29 c 2
 264 27 l 2
 269 26.6 272 24 272 19 c 2
 272 0 l 1
 270 -2 l 1
 270 -2 176 0 140 0 c 0
 101 0 14 -2 14 -2 c 1
 12 0 l 1
 12 19 l 2
 12 24 16 26.6 21 27 c 2
 47 29 l 2
 84.8 31.9 102 43 102 74 c 2
 102 571 l 2
 102 606 91.8 613.2 50 616 c 2
 20 618 l 2
 16 618.3 12 621 12 625 c 2
 12 645 l 1
 14 646 l 1
 14 646 129 645 142 645 c 2
 142 645 358 645 466 645 c 1
 470 591 479 531 486 490 c 1
 457 485 l 1
 436 554 418 605 343 605 c 2
EndSplineSet
Colour: ff00ff
EndChar

StartChar: afii10021
Encoding: 1044 1044 75
Width: 655
VWidth: 999
Flags: HW
HStem: 0 39<182.009 462.022> 605 40<269.132 462.578> 618 29<151 187 582 617>
VStem: 34 27<-140 -94.0922> 464 81<40.4891 603.884> 595 27<-140 -98.3137>
LayerCount: 2
Fore
SplineSet
112 47 m 0
 138.1 73.1 156 145 188 301 c 1
 210 415 222 518 222 581 c 0
 222 602 213 612.4 187 615 c 2
 157 618 l 2
 152 618 149 620 149 624 c 2
 149 645 l 1
 151 647 l 1
 151 647 221 645 251 645 c 2
 508 645 l 2
 538 645 617 647 617 647 c 1
 619 645 l 1
 619 626 l 2
 619 620 615 618.3 611 618 c 2
 582 616 l 2
 549.8 613.8 545 601 545 565 c 2
 545 78 l 2
 545 41 567.5 30 585 27 c 0
 606.7 23.3 614.4 20 615 8 c 2
 622 -140 l 1
 595 -140 595 -141 595 -141 c 1
 583 -85 547 0 467 0 c 2
 181 0 l 2
 98 0 72 -89 61 -141 c 1
 34 -140 l 1
 41 8 l 2
 41.6 20 52.1 25.5 62 27 c 0
 81.5 30 97.5 32.5 112 47 c 0
427 605 m 2
 304 605 l 2
 277 605 267 591 265 566 c 0
 256.9 465 241 361 229 293 c 0
 207 176 182 77 182 56 c 0
 182 44 195 39 209 39 c 2
 428 39 l 2
 452 39 464 42 464 79 c 2
 464 566 l 2
 464 597 458 605 427 605 c 2
EndSplineSet
EndChar

StartChar: afii10024
Encoding: 1046 1046 76
Width: 855
VWidth: 999
Flags: HW
HStem: -2 29<24 67.4219 301 333 523 555 788.578 832> 323 43<297.65 388 468 558.35> 590 61<70.0265 164.818 691.182 785.974> 618 29<300 333 523 555>
VStem: 387 81<35.3322 609.22>
LayerCount: 2
Fore
SplineSet
832 -2 m 1
 766 -1 l 2
 694 0.1 666 70 627 180 c 0
 590.9 281.9 575 323 468 323 c 1
 468 71 l 2
 468 41 483.3 32.1 523 29 c 2
 549 27 l 2
 553 26.7 557 24 557 19 c 2
 557 0 l 1
 555 -2 l 1
 507.5 0 477.5 0 428 0 c 0
 378.5 0 350 0 301 -2 c 1
 299 0 l 1
 299 19 l 2
 299 24 302 26.7 306 27 c 2
 333 29 l 2
 374.6 32.1 387 43 387 71 c 2
 387 323 l 1
 280.9 322.7 265 281.6 229 180 c 0
 190 70 162 0.1 90 -1 c 2
 24 -2 l 1
 23 0 l 1
 23 19 l 2
 23 24 26 27 30 27 c 2
 40 27 l 2
 72 27 124 103 175 236 c 0
 199 296 218 343 280 343 c 1
 208 368 192 470 182 533 c 0
 178 562 159 590 139 590 c 0
 127 590 115 583 106 572 c 0
 98 563 84 559 73 559 c 0
 54 559 33 576 33 601 c 0
 33 624 50 651 97 651 c 0
 160 651 208 602 215 544 c 1
 223 488 233 413 286 381 c 0
 309.8 366.1 353.1 366 387 366 c 1
 387 574 l 2
 387 604 372.3 613.1 333 616 c 2
 306 618 l 2
 302 618.3 298 621 298 626 c 2
 298 645 l 1
 300 647 l 1
 350 646 377.5 645 427 645 c 0
 476.9 645 506 646 555 647 c 1
 557 645 l 1
 557 626 l 2
 557 621 554 618.4 549 618 c 2
 523 616 l 2
 483.2 612.9 468 602 468 574 c 2
 468 366 l 1
 501 366 546 366 570 381 c 0
 623 413 633 488 641 544 c 1
 648 602 696 651 759 651 c 0
 806 651 823 624 823 601 c 0
 823 576 802 559 783 559 c 0
 771 559 758 563 750 572 c 0
 741 583 729 590 717 590 c 0
 697 590 678 562 674 533 c 0
 664 470 648 368 576 343 c 1
 638 343 657 296 681 236 c 0
 732 103 784 27 816 27 c 2
 826 27 l 2
 830 27 833 24 833 19 c 2
 833 0 l 1
 832 -2 l 1
EndSplineSet
Colour: ff87bf
EndChar

StartChar: afii10025
Encoding: 1047 1047 77
Width: 542
VWidth: 999
Flags: HW
HStem: -12 37<172.536 324.196> 336 37<158.005 306.843> 469 21G<49 91> 624 34<165.85 309.892>
VStem: 49 30<470.533 513.383> 375 80<432.684 569.184> 405 92<100.605 254.446>
LayerCount: 2
Fore
SplineSet
248 25 m 0
 318 25 405 68 405 176 c 0
 405 227 366 336 249 336 c 2
 176 336 l 2
 165 336 158 343 158 354 c 0
 158 365 165 373 176 373 c 2
 223 373 l 2
 342 373 375 451 375 506 c 0
 375 573 311 624 249 624 c 0
 126 624 103 550 79 469 c 1
 49 471 l 1
 69 646 l 1
 156 646 191 658 251 658 c 0
 344 658 455 611 455 516 c 0
 455 437 412 387 340 360 c 1
 411 340 497 299 497 192 c 0
 497 41 363 -12 245 -12 c 0
 164 -12 115 19 84 43 c 0
 57 64 36 91 36 118 c 0
 36 144 47 165 70 165 c 0
 98 165 108 152 119 120 c 0
 140 59 172 25 248 25 c 0
EndSplineSet
EndChar

StartChar: afii10026
Encoding: 1048 1048 78
Width: 700
VWidth: 999
Flags: HW
HStem: -2 29<20 52 242 274 427 459 649 682> 618 28<20 52 242 274 426 459 649 681>
VStem: 106 81<35.9534 78 134 609.354> 514 81<36.3852 505 561 608.905>
DStem2: 187 134 187 78 0.608002 0.793935<0 493.367>
LayerCount: 2
Fore
SplineSet
595 572 m 2
 595 73 l 2
 595 43 610.2 32 649 29 c 2
 675 27 l 2
 680 26.6 684 24 684 19 c 2
 684 0 l 1
 682 -2 l 1
 682 -2 595 0 556 0 c 0
 520 0 427 -2 427 -2 c 1
 425 0 l 1
 425 19 l 2
 425 24 428 26.6 433 27 c 2
 459 29 l 2
 499.3 32.1 514 45 514 73 c 2
 514 505 l 1
 187 78 l 1
 187 74 l 2
 187 43 201.2 32.1 242 29 c 2
 268 27 l 2
 272 26.7 276 24 276 19 c 2
 276 0 l 1
 274 -2 l 1
 274 -2 188 0 148 0 c 0
 113 0 20 -2 20 -2 c 1
 18 0 l 1
 18 19 l 2
 18 24 21 26.7 25 27 c 2
 52 29 l 2
 94.3 32.1 106 46 106 74 c 2
 106 573 l 2
 106 603 91.1 613.1 52 616 c 2
 25 618 l 2
 21 618.3 18 621 18 626 c 2
 18 645 l 1
 20 646 l 1
 20 646 106 644 146 644 c 0
 181 644 274 646 274 646 c 1
 276 645 l 1
 276 626 l 2
 276 621 273 618.4 268 618 c 2
 242 616 l 2
 200.7 612.8 187 601 187 573 c 2
 187 134 l 1
 514 561 l 1
 514 572 l 2
 514 603 498.8 612.9 459 616 c 2
 433 618 l 2
 428 618.4 424 621 424 626 c 2
 424 645 l 1
 426 646 l 1
 426 646 513 644 552 644 c 0
 588 644 681 647 681 647 c 1
 683 645 l 1
 683 626 l 2
 683 621 680 618.4 675 618 c 2
 649 616 l 2
 609.4 613 595 600 595 572 c 2
EndSplineSet
EndChar

StartChar: afii10027
Encoding: 1049 1049 79
Width: 700
VWidth: 999
Flags: HW
HStem: -2 29<20 52 242 274 427 459 649 682> 618 28<20 52 242 274 426 459 649 681> 697 31<305.536 396.309>
VStem: 106 81<35.9534 78 134 609.354> 226 70<735.681 802.162> 405 70<734.774 802.125> 514 81<36.3852 505 561 608.905>
DStem2: 187 134 187 78 0.608002 0.793935<0 493.367>
LayerCount: 2
Fore
SplineSet
595 572 m 2
 595 73 l 2
 595 43 610.2 32 649 29 c 2
 675 27 l 2
 680 26.6 684 24 684 19 c 2
 684 0 l 1
 682 -2 l 1
 682 -2 595 0 556 0 c 0
 520 0 427 -2 427 -2 c 1
 425 0 l 1
 425 19 l 2
 425 24 428 26.6 433 27 c 2
 459 29 l 2
 499.3 32.1 514 45 514 73 c 2
 514 505 l 1
 187 78 l 1
 187 74 l 2
 187 43 201.2 32.1 242 29 c 2
 268 27 l 2
 272 26.7 276 24 276 19 c 2
 276 0 l 1
 274 -2 l 1
 274 -2 188 0 148 0 c 0
 113 0 20 -2 20 -2 c 1
 18 0 l 1
 18 19 l 2
 18 24 21 26.7 25 27 c 2
 52 29 l 2
 94.3 32.1 106 46 106 74 c 2
 106 573 l 2
 106 603 91.1 613.1 52 616 c 2
 25 618 l 2
 21 618.3 18 621 18 626 c 2
 18 645 l 1
 20 646 l 1
 20 646 106 644 146 644 c 0
 181 644 274 646 274 646 c 1
 276 645 l 1
 276 626 l 2
 276 621 273 618.4 268 618 c 2
 242 616 l 2
 200.7 612.8 187 601 187 573 c 2
 187 134 l 1
 514 561 l 1
 514 572 l 2
 514 603 498.8 612.9 459 616 c 2
 433 618 l 2
 428 618.4 424 621 424 626 c 2
 424 645 l 1
 426 646 l 1
 426 646 513 644 552 644 c 0
 588 644 681 647 681 647 c 1
 683 645 l 1
 683 626 l 2
 683 621 680 618.4 675 618 c 2
 649 616 l 2
 609.4 613 595 600 595 572 c 2
475 774 m 0
 475 722 413 697 350 697 c 0
 284 697 226 721 226 773 c 0
 226 795 238 804 265 804 c 0
 286 804 296 788 296 773 c 0
 296 771 296 770 296 769 c 0
 296 767 296 766 296 765 c 0
 296 745 318 728 351 728 c 0
 381 728 406 742 406 764 c 0
 406 766 405 767 405 769 c 0
 405 770 405 772 405 773 c 0
 405 788 414 804 437 804 c 0
 463 804 475 794 475 774 c 0
EndSplineSet
LCarets2: 1 0 
Colour: ff00ff
EndChar

StartChar: afii10033
Encoding: 1055 1055 80
Width: 667
VWidth: 487
Flags: HW
HStem: -2 29<19 51 241 269 398 426 616 648> 604 41<188.871 477.86> 618 28<19 55 613 648>
VStem: 106 81<36.6226 602.463> 480 81<36.4035 602.445>
LayerCount: 2
Fore
SplineSet
480 74 m 2
 480 560 l 2
 480 588 476 604 444 604 c 2
 223 604 l 2
 192 604 187 593 187 560 c 2
 187 74 l 2
 187 43 202.5 32.5 241 29 c 2
 263 27 l 2
 267 26.6 271 24 271 19 c 2
 271 0 l 1
 269 -2 l 1
 269 -2 187 0 148 0 c 0
 112 0 19 -2 19 -2 c 1
 17 0 l 1
 17 19 l 2
 17 24 20 26.6 25 27 c 2
 51 29 l 2
 89.6 32 106 46 106 74 c 2
 106 572 l 2
 106 609 83.7 614.1 55 616 c 2
 25 618 l 2
 19 618.4 17 622 17 625 c 2
 17 645 l 1
 19 646 l 1
 82 646 19 645 331 645 c 0
 648 645 585 646 648 646 c 1
 650 645 l 1
 650 626 l 2
 650 622 647 618.3 642 618 c 2
 613 616 l 2
 584.3 614 561 602 561 572 c 2
 561 74 l 2
 561 43 576.4 32 616 29 c 2
 642 27 l 2
 646 26.7 650 24 650 19 c 2
 650 0 l 1
 648 -2 l 1
 648 -2 562 0 522 0 c 0
 487 0 398 -2 398 -2 c 1
 396 0 l 1
 396 19 l 2
 396 24 399 26.5 404 27 c 2
 426 29 l 2
 467.5 32.8 480 46 480 74 c 2
EndSplineSet
Colour: ff00ff
EndChar

StartChar: afii10034
Encoding: 1056 1056 81
Width: 521
VWidth: 999
Flags: HW
HStem: -2 29<19 51 241 274> 282 34<187.781 340.715> 618 28<19 62> 620 34<195.626 345.973>
VStem: 106 81<35.7894 292 318.002 609.994> 409 88<393.808 563.937>
LayerCount: 2
Fore
SplineSet
187 574 m 2
 187 321 l 1
 198 318 233 316 258 316 c 0
 355 316 409 360 409 468 c 0
 409 595 338 620 269 620 c 0
 197 620 187 603 187 574 c 2
106 71 m 2
 106 574 l 2
 106 606 78.9 615.1 62 616 c 2
 23 618 l 2
 19 618.2 17 620 17 624 c 2
 17 645 l 1
 19 646 l 1
 19 646 100 645 146 645 c 0
 176 645 250 654 276 654 c 0
 461 654 497 545 497 486 c 0
 497 401 445 282 263 282 c 0
 228 282 209 285 187 292 c 1
 187 71 l 2
 187 41 201.9 31.9 241 29 c 2
 268 27 l 2
 272 26.7 276 24 276 19 c 2
 276 0 l 1
 274 -2 l 1
 274 -2 187 0 148 0 c 0
 112 0 19 -2 19 -2 c 1
 17 0 l 1
 17 19 l 2
 17 24 20 26.6 25 27 c 2
 51 29 l 2
 91.1 32.1 106 43 106 71 c 2
EndSplineSet
Colour: ff00ff
EndChar

StartChar: afii10035
Encoding: 1057 1057 82
Width: 644
VWidth: 999
Flags: HW
HStem: -12 42<270 460> 621 37<278 443>
VStem: 37 87<204 436>
LayerCount: 2
Fore
SplineSet
355 -10 m 0
 140 -10 37 154 37 315 c 0
 37 512 190 658 356 658 c 0
 479 658 518 616 575 613 c 1
 579 559 587 510 597 458 c 1
 567 454 l 1
 541 540 483 621 345 621 c 0
 266 621 124 537 124 334 c 0
 124 188 199 31 354 31 c 0
 447 31 515 62 586 140 c 1
 609 125 l 1
 541 36 452 -10 355 -10 c 0
EndSplineSet
Colour: ff00ff
EndChar

StartChar: afii10036
Encoding: 1058 1058 83
Width: 567
VWidth: 999
Flags: HW
HStem: -2 29<171 247.597 347.774 426> 606 39<65.5576 254.216 341.115 506.744>
VStem: 257 81<32.7827 603.107>
LayerCount: 2
Fore
SplineSet
77 645 m 2
 500 645 l 2
 521 645 522 662 522 668 c 1
 548 672 l 1
 548 623 553 569 561 518 c 1
 531 513 l 1
 514 590 507 606 452 606 c 2
 386 606 l 2
 350 606 338 598 338 564 c 2
 338 72 l 2
 338 41 353.7 32 393 29 c 2
 419 27 l 2
 424 26.6 428 24 428 19 c 2
 428 0 l 1
 426 -2 l 1
 426 -2 338 0 299 0 c 0
 264 0 171 -2 171 -2 c 1
 169 0 l 1
 169 19 l 2
 169 24 172 26.6 177 27 c 2
 203 29 l 2
 245.2 32.2 257 44 257 72 c 2
 257 567 l 2
 257 598 245 606 208 606 c 2
 125 606 l 2
 70 606 57 593 37 513 c 1
 7 518 l 1
 19 571 25 623 29 672 c 1
 56 668 l 1
 56 662 56 645 77 645 c 2
EndSplineSet
Colour: ff00ff
EndChar

StartChar: afii10037
Encoding: 1059 1059 84
Width: 580
VWidth: 999
Flags: HW
HStem: -22 62<133 229.447> 618 28<1 51.985 192 235 391 425 520.846 579>
DStem2: 170 575 88 559 0.41865 -0.908148<-32.5036 379.947> 283 136 342 161 0.370296 0.928914<-102.293 0 103.423 504.868>
LayerCount: 2
Fore
SplineSet
195 40 m 0
 227 40 252 61 283 136 c 1
 88 559 l 2
 78.8 578.9 58 615 10 618 c 0
 4 618.4 0 621 0 625 c 2
 0 645 l 1
 1 646 l 1
 1 646 64 645 105 645 c 0
 155 645 235 646 235 646 c 1
 237 645 l 1
 237 626 l 2
 237 621 235 618.3 230 618 c 2
 192 616 l 2
 159.6 614.3 158.2 601.1 170 575 c 2
 327 229 l 1
 329 229 l 1
 458 575 l 2
 471.1 610.2 465.3 613.2 425 616 c 2
 396 618 l 2
 392 618.3 390 621 390 625 c 2
 390 645 l 1
 391 646 l 1
 391 646 457 645 499 645 c 0
 531 645 579 646 579 646 c 1
 581 645 l 1
 581 626 l 2
 581 620 574 618.3 570 618 c 0
 523.5 615 514 606 499 566 c 2
 342 161 l 2
 299 52 244 -22 154 -22 c 0
 112 -22 66 1 66 33 c 0
 66 61 81 79 113 79 c 0
 127 79 149 72 159 60 c 0
 166 51 181 40 195 40 c 0
EndSplineSet
EndChar

StartChar: afii10039
Encoding: 1061 1061 85
Width: 655
VWidth: 999
Flags: HW
HStem: -2 29<4 64.0181 178 200 420 443 600.782 650> 618 29<17 64.6875 433 468 565.231 629>
DStem2: 129 104 163 77 0.593199 0.805056<-37.1488 242.53 346.726 618.122> 201 572 262 344 0.578967 -0.815351<-37.4198 228.231 307.823 589.683>
LayerCount: 2
Fore
SplineSet
13 625 m 2
 13 644 l 1
 17 647 l 1
 17 647 108 645 119 645 c 0
 124 645 239 647 239 647 c 1
 239 647 242 644 243 644 c 1
 243 625 l 2
 243 620 240.7 618.2 238 618 c 2
 206 616 l 2
 173.5 614 181.6 599.1 201 572 c 2
 320 396 l 2
 325 389 329 385 332 385 c 0
 335 385 339 389 345 397 c 2
 474 572 l 2
 492.3 597.6 497.4 614 468 616 c 2
 438 618 l 2
 434 618.3 431 620 431 625 c 2
 431 645 l 1
 433 647 l 1
 433 647 521 645 532 645 c 0
 537 645 629 647 629 647 c 1
 632 645 l 1
 632 625 l 2
 632 622 631 618.3 623 618 c 0
 562.5 616 540 588 513 552 c 2
 382 375 l 2
 373.1 362.9 369 354 369 345 c 0
 369 335 375 325 385 312 c 2
 539 102 l 1
 566 63 600.5 30 645 27 c 0
 650 26.7 652 23 652 20 c 2
 652 0 l 1
 650 -2 l 1
 623 -1 557 0 545 0 c 0
 539 0 420 -2 420 -2 c 1
 417 0 l 1
 417 20 l 2
 417 24 419 26.6 423 27 c 2
 443 29 l 2
 483.1 33 480.9 39 456 73 c 2
 324 261 l 2
 318 269 314 272 310 272 c 0
 307 272 301 266 295 258 c 2
 163 77 l 2
 146.4 53 138.9 33.1 178 29 c 2
 197 27 l 2
 202.1 26.5 203 23 203 20 c 2
 203 0 l 1
 200 -2 l 1
 200 -2 103 0 88 0 c 0
 83 0 4 -2 4 -2 c 1
 3 0 l 1
 3 20 l 2
 3 25 8 26.7 14 27 c 0
 72 30 107 74 129 104 c 2
 266 291 l 2
 272 299 276 308 276 314 c 0
 276 324 271 333 262 344 c 1
 118 549 l 2
 77 607 46.5 615 29 618 c 0
 19.1 619.7 13 621 13 625 c 2
EndSplineSet
Colour: ff00ff
EndChar

StartChar: afii10040
Encoding: 1062 1062 86
Width: 639
VWidth: 487
Flags: HW
HStem: -2 29<20 52> 0 37<175.296 460.197> 618 28<19 52 211 245 391 424 582 614>
VStem: 92 81<37.9463 613.762> 463 81<38.9907 613.347>
LayerCount: 2
Fore
SplineSet
458 0 m 2
 172 0 l 2
 157 0 142 0 127 0 c 2
 20 -2 l 1
 17 0 l 1
 17 17 l 2
 17 22 21 26.6 26 27 c 2
 52 29 l 2
 84.8 31.5 92 35 92 75 c 2
 92 570 l 2
 92 609 85.9 613.7 52 616 c 2
 22 618 l 2
 19 618.2 17 619 17 623 c 2
 17 645 l 1
 19 646 l 1
 127 645 l 1
 245 646 l 1
 247 645 l 1
 247 623 l 2
 247 620 245 618.3 241 618 c 2
 211 616 l 2
 178.6 613.8 173 610 173 570 c 2
 173 83 l 2
 173 42 180 37 211 37 c 2
 424 37 l 2
 459 37 463 51 463 83 c 2
 463 570 l 2
 463 602 460.5 613.6 424 616 c 2
 394 618 l 2
 391 618.2 389 619 389 623 c 2
 389 645 l 1
 391 646 l 1
 499 645 l 1
 614 646 l 1
 617 645 l 1
 617 623 l 2
 617 620 615 618.3 611 618 c 2
 582 616 l 2
 545.1 613.5 544 603 544 570 c 2
 544 77 l 2
 544 52 560 30 584 27 c 0
 608.8 23.9 613 16 614 7 c 2
 620 -141 l 1
 593 -142 l 1
 579 -71 535 0 458 0 c 2
EndSplineSet
EndChar

StartChar: afii10041
Encoding: 1063 1063 87
Width: 633
VWidth: 999
Flags: HW
HStem: -2 29<362 394 584 617> 250 58<211.228 364.049> 618 28<10 42 232 265 361 394 584 616>
VStem: 97 81<342.847 609.08> 449 80<35.9646 317 342.244 608.625>
LayerCount: 2
Fore
SplineSet
97 571 m 2
 97 602 81.8 612.9 42 616 c 2
 16 618 l 2
 12 618.3 8 621 8 626 c 2
 8 645 l 1
 10 646 l 1
 10 646 97 645 136 645 c 0
 171 645 265 646 265 646 c 1
 267 645 l 1
 267 626 l 2
 267 621 264 618.4 259 618 c 2
 232 616 l 2
 190.2 612.9 178 599 178 571 c 2
 178 417 l 2
 178 335 220 308 292 308 c 0
 321 308 385 312 449 355 c 1
 449 572 l 2
 449 602 432.6 613 394 616 c 2
 368 618 l 2
 363 618.4 359 621 359 626 c 2
 359 645 l 1
 361 646 l 1
 361 646 448 645 487 645 c 0
 523 645 616 646 616 646 c 1
 618 645 l 1
 618 626 l 2
 618 621 615 618.4 610 618 c 2
 584 616 l 2
 544 612.9 529 600 529 572 c 2
 529 73 l 2
 529 43 544.2 32.1 584 29 c 2
 610 27 l 2
 615 26.6 619 24 619 19 c 2
 619 0 l 1
 617 -2 l 1
 617 -2 530 0 491 0 c 0
 455 0 362 -2 362 -2 c 1
 360 0 l 1
 360 19 l 2
 360 24 363 26.6 368 27 c 2
 394 29 l 2
 436.6 32.3 449 45 449 73 c 2
 449 317 l 1
 376 266 308 250 250 250 c 0
 136 250 97 329 97 428 c 2
 97 571 l 2
EndSplineSet
EndChar

StartChar: afii10042
Encoding: 1064 1064 88
Width: 962
VWidth: 487
Flags: HW
HStem: -2 29<34 101.198 861.703 930> 0 34<190.019 436.591 525.39 772.361> 618 28<19 52 242 271 355 386 576 605 691 722 912 944>
VStem: 106 81<35.9437 608.51> 440 81<35.9512 608.88> 776 81<35.6524 608.179>
LayerCount: 2
Fore
SplineSet
857 572 m 2
 857 71 l 2
 857 36 864.1 29.1 896 28 c 2
 926 27 l 2
 930 26.9 932 25 932 22 c 2
 932 0 l 1
 930 -2 l 1
 815 0 l 1
 180 0 l 1
 34 -2 l 1
 32 0 l 1
 32 22 l 2
 32 25 34 26.9 37 27 c 2
 67 28 l 2
 99.9 29.1 106 37 106 76 c 2
 106 572 l 2
 106 602 89.6 613.2 52 616 c 2
 25 618 l 2
 21 618.3 17 621 17 626 c 2
 17 645 l 1
 19 646 l 1
 19 646 106 645 145 645 c 0
 181 645 271 646 271 646 c 1
 273 645 l 1
 273 626 l 2
 273 621 271 618.4 266 618 c 2
 242 616 l 2
 201.9 612.7 187 600 187 572 c 2
 187 83 l 2
 187 51 187.3 34 226 34 c 2
 407 34 l 2
 438 34 440 52 440 83 c 2
 440 572 l 2
 440 602 423.6 612.9 386 616 c 2
 362 618 l 2
 357 618.4 354 621 354 626 c 2
 354 645 l 1
 355 646 l 1
 355 646 440 645 479 645 c 0
 515 645 605 646 605 646 c 1
 607 645 l 1
 607 626 l 2
 607 621 604 618.3 600 618 c 2
 576 616 l 2
 532.5 612.4 521 600 521 572 c 2
 521 83 l 2
 521 53 525 34 558 34 c 2
 737 34 l 2
 770 34 776 44 776 83 c 2
 776 572 l 2
 776 602 755.8 613.2 722 616 c 2
 698 618 l 2
 693 618.4 689 621 689 626 c 2
 689 645 l 1
 691 646 l 1
 691 646 776 645 815 645 c 0
 851 645 944 646 944 646 c 1
 946 645 l 1
 946 626 l 2
 946 621 943 618.4 938 618 c 2
 912 616 l 2
 874.1 613.1 857 600 857 572 c 2
EndSplineSet
EndChar

StartChar: afii10043
Encoding: 1065 1065 89
Width: 965
VWidth: 487
Flags: HW
HStem: -2 29<34 67> 0 34<191.235 436.719 525.256 772.56> 618 28<19 52 242 271 355 386 576 605 691 722 869.125 944>
VStem: 106 81<36.2848 608.73> 440 81<36.9391 608.603> 776 81<35.7084 609.461>
LayerCount: 2
Fore
SplineSet
187 572 m 2
 187 83 l 2
 187 53 190 34 226 34 c 2
 399 34 l 2
 437 34 440 47 440 83 c 2
 440 572 l 2
 440 602 423.8 612.8 386 616 c 2
 362 618 l 2
 357 618.4 354 621 354 626 c 2
 354 645 l 1
 355 646 l 1
 355 646 440 645 479 645 c 0
 515 645 605 646 605 646 c 1
 607 645 l 1
 607 626 l 2
 607 621 604 618.3 600 618 c 2
 576 616 l 2
 535.2 612.6 521 600 521 572 c 2
 521 83 l 2
 521 47 526 34 569 34 c 2
 737 34 l 2
 772 34 776 47 776 83 c 2
 776 572 l 2
 776 602 761.7 612.7 722 616 c 2
 698 618 l 2
 693 618.4 689 621 689 626 c 2
 689 645 l 1
 691 646 l 1
 691 646 776 645 815 645 c 0
 851 645 944 646 944 646 c 1
 946 645 l 1
 946 626 l 2
 946 621 943 618.4 938 618 c 2
 912 616 l 1
 871 616 857 600 857 572 c 2
 857 81 l 2
 857 42 882 30 897 27 c 0
 914.7 23.5 926 21 927 4 c 2
 934 -141 l 1
 906 -142 l 1
 899 -98 861 0 775 0 c 2
 147 0 l 1
 34 -2 l 1
 32 0 l 1
 32 22 l 2
 32 25 34 26.8 37 27 c 2
 67 29 l 2
 98.7 31.1 106 33 106 72 c 2
 106 572 l 2
 106 602 90.6 613.1 52 616 c 2
 25 618 l 2
 21 618.3 17 621 17 626 c 2
 17 645 l 1
 19 646 l 1
 19 646 106 645 145 645 c 0
 181 645 271 646 271 646 c 1
 273 645 l 1
 273 626 l 2
 273 621 271 618.4 266 618 c 2
 242 616 l 2
 201.2 612.6 187 600 187 572 c 2
EndSplineSet
EndChar

StartChar: afii10044
Encoding: 1066 1066 90
Width: 717
VWidth: 999
Flags: HW
HStem: -2 29<178 210 354.52 491.526> 333 40<346 514.567> 469 21G<26 60> 605 40<115.773 261.594> 618 28<400 433>
VStem: 26 30<472.833 516.776> 265 81<36.7694 333 373 602.051> 592 89<103.56 266.225>
LayerCount: 2
Fore
SplineSet
346 333 m 1
 346 79 l 2
 346 46 351 27 405 27 c 0
 557 27 592 121 592 183 c 0
 592 243 562 333 433 333 c 2
 346 333 l 1
304 645 m 2
 339 645 433 646 433 646 c 1
 435 645 l 1
 435 626 l 2
 435 621 432 618.4 427 618 c 2
 400 616 l 2
 361.4 613.1 346 600 346 572 c 2
 346 373 l 1
 406 373 l 2
 652 373 681 272 681 183 c 0
 681 16 524 -2 403 -2 c 0
 367 -2 336 0 307 0 c 0
 271 0 178 -2 178 -2 c 1
 176 0 l 1
 176 19 l 2
 176 24 179 26.6 184 27 c 2
 210 29 l 2
 249.6 32 265 46 265 74 c 2
 265 564 l 2
 265 591 254 605 226 605 c 2
 164 605 l 2
 98 605 64 512 56 469 c 1
 26 474 l 1
 35 530 40 583 42 645 c 1
 129 645 304 645 304 645 c 2
EndSplineSet
EndChar

StartChar: afii10045
Encoding: 1067 1067 91
Width: 786
VWidth: 999
Flags: HW
HStem: -2 30<19 51 194.478 332.526> -1 29<512 544 734 766> 333 40<187 355.567> 618 28<19 51 241 274> 619 29<511 544 734 766>
VStem: 106 81<36.1947 333 373 608.615> 433 89<103.729 266.225> 598 81<36.3322 610.22>
LayerCount: 2
Fore
SplineSet
106 572 m 2
 106 600 91 612.9 51 616 c 2
 25 618 l 2
 20 618 17 621 17 626 c 2
 17 645 l 1
 19 646 l 1
 19 646 112 645 148 645 c 0
 187 645 274 646 274 646 c 1
 276 645 l 1
 276 626 l 2
 276 621 272 618 268 618 c 2
 241 616 l 2
 203 613 187 602 187 572 c 2
 187 373 l 1
 277 373 l 2
 496 373 522 272 522 183 c 0
 522 16 365 -2 244 -2 c 0
 208 -2 177 0 148 0 c 0
 120 0 19 -2 19 -2 c 1
 17 0 l 1
 17 19 l 2
 17 24 20 27 25 27 c 2
 51 29 l 2
 92 32.2 106 46 106 74 c 2
 106 572 l 2
187 333 m 1
 187 79 l 2
 187 46 191 27 246 27 c 0
 398 27 433 121 433 183 c 0
 433 243 392 333 264 333 c 2
 187 333 l 1
679 575 m 2
 679 72 l 2
 679 42 694.3 33.1 734 30 c 2
 760 28 l 2
 764 27.7 768 25 768 20 c 2
 768 1 l 1
 766 -1 l 1
 718.5 1 688.5 1 639 1 c 0
 589.5 1 561 1 512 -1 c 1
 510 1 l 1
 510 20 l 2
 510 25 513 27.7 517 28 c 2
 544 30 l 2
 585.6 33.1 598 44 598 72 c 2
 598 575 l 2
 598 605 583.3 614.1 544 617 c 2
 517 619 l 2
 513 619.3 509 622 509 627 c 2
 509 646 l 1
 511 648 l 1
 561 647 588.5 646 638 646 c 0
 687.9 646 717 647 766 648 c 1
 768 646 l 1
 768 627 l 2
 768 622 765 619.4 760 619 c 2
 734 617 l 2
 694.2 613.9 679 603 679 575 c 2
EndSplineSet
Colour: ff00ff
EndChar

StartChar: afii10046
Encoding: 1068 1068 92
Width: 558
VWidth: 999
Flags: HW
HStem: -2 29<19 51 195.157 332.526> 333 40<187 350.404> 618 28<19 51 241 274>
VStem: 106 81<36.115 333 373 608.659> 433 89<103.56 259.16>
LayerCount: 2
Fore
SplineSet
106 572 m 2
 106 600 91 612.9 51 616 c 2
 25 618 l 2
 20 618 17 621 17 626 c 2
 17 645 l 1
 19 646 l 1
 19 646 112 645 148 645 c 0
 187 645 274 646 274 646 c 1
 276 645 l 1
 276 626 l 2
 276 621 272 618 268 618 c 2
 241 616 l 2
 203 613 187 602 187 572 c 2
 187 373 l 1
 277 373 l 2
 496 373 522 272 522 183 c 0
 522 16 365 -2 244 -2 c 0
 208 -2 177 0 148 0 c 0
 120 0 19 -2 19 -2 c 1
 17 0 l 1
 17 19 l 2
 17 24 20 27 25 27 c 2
 51 29 l 2
 92 32.2 106 46 106 74 c 2
 106 572 l 2
187 333 m 1
 187 79 l 2
 187 46 191 27 246 27 c 0
 398 27 433 121 433 183 c 0
 433 243 392 333 264 333 c 2
 187 333 l 1
EndSplineSet
EndChar

StartChar: afii10047
Encoding: 1069 1069 93
Width: 604
VWidth: 999
Flags: HW
HStem: -12 34<194 359> 273 56<309 422> 311 49<155 284> 621 37<189 346>
VStem: 472 89<186 307 344 460>
LayerCount: 2
Fore
SplineSet
472 307 m 1
 417 273 373 273 360 273 c 0
 298 273 255 311 196 311 c 0
 158 311 142 295 134 295 c 0
 130 295 125 298 125 307 c 0
 125 332 188 360 247 360 c 0
 313 360 342 329 400 329 c 0
 429 329 452 335 471 344 c 1
 461 550 352 621 271 621 c 0
 176 621 98 540 72 454 c 1
 42 458 l 1
 53 511 61 558 63 613 c 1
 121 616 174 658 279 658 c 0
 444 658 561 550 561 333 c 0
 561 113 445 -12 275 -12 c 0
 189 -12 133 19 102 43 c 0
 75 64 54 95 54 122 c 0
 54 148 66 165 84 165 c 0
 113 165 125 152 135 120 c 0
 159 48 214 21 286 21 c 0
 413 21 471 169 472 307 c 1
EndSplineSet
EndChar

StartChar: afii10048
Encoding: 1070 1070 94
Width: 905
VWidth: 999
Flags: HW
HStem: -12 34<522.79 654.127> -2 29<20 52 242 274> 305 39<187 285> 618 28<19 52 242 274> 624 34<500.207 639.641>
VStem: 106 81<35.8732 305 344 608.613> 285 91<191.359 305 344 446.869> 775 91<190.414 458.78>
LayerCount: 2
Fore
SplineSet
866 329 m 0
 866 129 752 -12 574 -12 c 0
 416 -12 287 111 285 305 c 1
 187 305 l 1
 187 73 l 2
 187 43 202.2 32.1 242 29 c 2
 268 27 l 2
 272 26.7 276 24 276 19 c 2
 276 0 l 1
 274 -2 l 1
 274 -2 188 0 148 0 c 0
 113 0 20 -2 20 -2 c 1
 18 0 l 1
 18 19 l 2
 18 24 21 26.7 25 27 c 2
 52 29 l 2
 92.8 32 106 45 106 73 c 2
 106 572 l 2
 106 602 90.8 613.1 52 616 c 2
 25 618 l 2
 21 618.3 17 621 17 626 c 2
 17 645 l 1
 19 646 l 1
 19 646 106 645 145 645 c 0
 181 645 274 646 274 646 c 1
 276 645 l 1
 276 626 l 2
 276 621 273 618.4 268 618 c 2
 242 616 l 2
 201.7 612.9 187 600 187 572 c 2
 187 344 l 1
 286 344 l 1
 299 523 417 658 573 658 c 0
 741 658 866 527 866 329 c 0
562 624 m 0
 478 624 376 537 376 327 c 0
 376 135 484 22 592 22 c 0
 695 22 775 131 775 310 c 0
 775 518 687 624 562 624 c 0
EndSplineSet
Colour: ff87bf
EndChar

StartChar: afii10049
Encoding: 1071 1071 95
Width: 561
VWidth: 999
Flags: HW
HStem: -2 29<11 26 286 318 508 541> 323 39<287.282 373> 611 35<199.954 371.324> 618 28<507 544>
VStem: 69 81<416.932 568.061> 373 81<35.9306 323 362 607.704>
LayerCount: 2
Fore
SplineSet
373 323 m 1
 267 323 252.1 281.9 216 180 c 0
 177 70 148 0.1 77 -1 c 2
 11 -2 l 1
 10 0 l 1
 10 19 l 2
 10 24 13 26.6 17 27 c 2
 26 28 l 2
 57.5 31.5 109 103 162 236 c 0
 178.3 276.9 192 311 218 329 c 1
 150 339 69 385 69 487 c 0
 69 556 103 646 289 646 c 0
 324 646 383 645 416 645 c 0
 447 645 544 646 544 646 c 1
 544 625 l 2
 544 621 542 618.3 537 618 c 2
 507 616 l 2
 465.1 613.2 454 606 454 572 c 2
 454 73 l 2
 454 43 467.4 32 508 29 c 2
 535 27 l 2
 539 26.7 543 24 543 19 c 2
 543 0 l 1
 541 -2 l 1
 541 -2 454 0 415 0 c 0
 379 0 286 -2 286 -2 c 1
 284 0 l 1
 284 19 l 2
 284 24 287 26.6 292 27 c 2
 318 29 l 2
 359.6 32.2 373 45 373 73 c 2
 373 323 l 1
373 575 m 2
 373 608 369 611 282 611 c 0
 226 611 150 595 150 502 c 0
 150 396 212 362 295 362 c 2
 373 362 l 1
 373 575 l 2
EndSplineSet
EndChar

StartChar: afii10089
Encoding: 1095 1095 96
Width: 510
VWidth: 999
Flags: HW
HStem: -1 29<274 333 413 470> 177 36<161 301> 434 29<18 69 147 206 275 333 412 480>
VStem: 71 75<229 432> 335 75<29 221 256 432>
LayerCount: 2
Fore
SplineSet
335 386 m 2
 335 424 330 434 294 434 c 2
 279 434 l 2
 275 434 273 435 273 438 c 2
 273 460 l 1
 275 462 l 1
 367 460 l 1
 480 462 l 1
 481 460 l 1
 481 439 l 2
 481 436 479 434 476 434 c 2
 450 434 l 2
 417 434 410 426 410 386 c 2
 410 76 l 2
 410 38 414 28 450 28 c 2
 467 28 l 2
 470 28 472 26 472 23 c 2
 472 1 l 1
 470 -1 l 1
 470 -1 414 1 376 1 c 0
 336 1 274 -1 274 -1 c 1
 272 1 l 1
 272 22 l 2
 272 26 274 28 278 28 c 2
 294 28 l 2
 331 28 335 37 335 76 c 2
 335 221 l 1
 296 192 264 177 204 177 c 0
 106 177 71 223 71 329 c 2
 71 387 l 2
 71 425 66 434 30 434 c 2
 22 434 l 2
 19 434 17 435 17 438 c 2
 17 460 l 1
 18 462 l 1
 104 460 l 1
 206 462 l 1
 207 460 l 1
 207 439 l 2
 207 436 205 434 201 434 c 2
 186 434 l 2
 153 434 146 424 146 392 c 2
 146 325 l 2
 146 247 153 213 215 213 c 0
 264 213 303 225 335 256 c 1
 335 386 l 2
EndSplineSet
EndChar

StartChar: afii10090
Encoding: 1096 1096 97
Width: 818
VWidth: 999
Flags: HW
HStem: -2 29<43 63 750 784> 0 36<181.061 365.902 448.017 631.436> 433 29<33 63 218 248 299 329 484 514 565 595 750 780>
VStem: 103 75<37.9339 428.521> 369 75<37.75 428.521> 635 75<38.1861 428.521>
CounterMasks: 1 1c
LayerCount: 2
Fore
SplineSet
710 384 m 2
 710 71 l 2
 710 34 717.1 31.1 750 29 c 2
 781 27 l 2
 785 27 787 24 787 21 c 2
 787 0 l 1
 784 -2 l 1
 784 -2 700 0 670 0 c 2
 145 0 l 2
 115 0 43 -2 43 -2 c 1
 42 0 l 1
 42 22 l 2
 42 25 43 27 47 27 c 2
 63 29 l 2
 97.3 33.3 103 37 103 72 c 2
 103 384 l 2
 103 422 98.8 428.2 63 431 c 2
 37 433 l 2
 33 433 31 434 31 437 c 2
 31 460 l 1
 33 462 l 1
 33 462 110 460 140 460 c 0
 170 460 248 462 248 462 c 1
 250 460 l 1
 250 438 l 2
 250 435 248 433 244 433 c 2
 218 431 l 2
 183 428 178 424 178 384 c 2
 178 85 l 2
 178 45 184 36 219 36 c 2
 329 36 l 2
 364 36 369 47 369 84 c 2
 369 384 l 2
 369 422 364.8 428.2 329 431 c 2
 303 433 l 2
 299 433 297 434 297 437 c 2
 297 460 l 1
 299 462 l 1
 299 462 376 460 406 460 c 0
 436 460 514 462 514 462 c 1
 516 460 l 1
 516 438 l 2
 516 435 514 433 510 433 c 2
 484 431 l 2
 449 428 444 424 444 384 c 2
 444 85 l 2
 444 43 456 36 484 36 c 2
 595 36 l 2
 632 36 635 54 635 85 c 2
 635 384 l 2
 635 422 630.8 428.2 595 431 c 2
 569 433 l 2
 565 433 563 434 563 437 c 2
 563 460 l 1
 565 462 l 1
 565 462 642 460 672 460 c 0
 702 460 780 462 780 462 c 1
 782 460 l 1
 782 438 l 2
 782 435 780 433 776 433 c 2
 750 431 l 2
 715 428 710 424 710 384 c 2
EndSplineSet
EndChar

StartChar: afii10091
Encoding: 1097 1097 98
Width: 813
VWidth: 999
Flags: HW
HStem: -2 29<43 63> 0 36<181.061 365.902 448.017 631.436> 433 29<33 63 218 248 299 329 484 514 565 595 750 780>
VStem: 103 75<37.9339 428.521> 369 75<37.75 428.521> 635 75<38.5466 428.521> 756 25<-128 -87.3281>
LayerCount: 2
Fore
SplineSet
637 0 m 2
 145 0 l 2
 115 0 43 -2 43 -2 c 1
 42 0 l 1
 42 22 l 2
 42 25 43 27 47 27 c 2
 63 29 l 2
 97.3 33.3 103 37 103 72 c 2
 103 384 l 2
 103 422 98.8 428.2 63 431 c 2
 37 433 l 2
 33 433 31 434 31 437 c 2
 31 460 l 1
 33 462 l 1
 33 462 110 460 140 460 c 0
 170 460 248 462 248 462 c 1
 250 460 l 1
 250 438 l 2
 250 435 248 433 244 433 c 2
 218 431 l 2
 183 428 178 424 178 384 c 2
 178 85 l 2
 178 45 184 36 219 36 c 2
 329 36 l 2
 364 36 369 47 369 84 c 2
 369 384 l 2
 369 422 364.8 428.2 329 431 c 2
 303 433 l 2
 299 433 297 434 297 437 c 2
 297 460 l 1
 299 462 l 1
 299 462 376 460 406 460 c 0
 436 460 514 462 514 462 c 1
 516 460 l 1
 516 438 l 2
 516 435 514 433 510 433 c 2
 484 431 l 2
 449 428 444 424 444 384 c 2
 444 85 l 2
 444 43 456 36 484 36 c 2
 595 36 l 2
 632 36 635 54 635 85 c 2
 635 384 l 2
 635 422 630.8 428.2 595 431 c 2
 569 433 l 2
 565 433 563 434 563 437 c 2
 563 460 l 1
 565 462 l 1
 565 462 642 460 672 460 c 0
 702 460 780 462 780 462 c 1
 782 460 l 1
 782 438 l 2
 782 435 780 433 776 433 c 2
 750 431 l 2
 715 428 710 424 710 384 c 2
 710 74 l 2
 710 49 723 31 747 28 c 0
 759.9 26.4 775 27 775 8 c 2
 781 -128 l 1
 756 -128 l 1
 744 -79 717 0 637 0 c 2
EndSplineSet
EndChar

StartChar: afii10092
Encoding: 1098 1098 99
Width: 547
VWidth: 999
Flags: HW
HStem: -2 29<129 154 284.513 396.645> 234 31<273 399.013> 424 36<97.4637 194.161> 433 29<315 340>
VStem: 26 27<310.704 359.167> 196 77<33.9245 234 265 423.42> 442 75<66.8761 200.297>
LayerCount: 2
Fore
SplineSet
442 131 m 0
 442 184 415 234 344 234 c 2
 273 234 l 1
 273 74 l 2
 273 38 294 27 340 27 c 0
 390 27 442 49 442 131 c 0
196 387 m 2
 196 416 189 424 167 424 c 0
 85 424 70 389 53 307 c 1
 26 312 l 1
 33 357 37 403 38 460 c 1
 40 462 l 1
 100 460 l 1
 233 460 l 2
 272 460 340 462 340 462 c 1
 342 460 l 1
 342 441 l 2
 342 436 338 433 334 433 c 2
 315 431 l 2
 281.4 427.5 273 415 273 387 c 2
 273 265 l 1
 334 265 l 2
 430 265 517 235 517 141 c 0
 517 57 450 -2 339 -2 c 0
 309 -2 263 0 233 0 c 0
 197 0 129 -2 129 -2 c 1
 127 0 l 1
 127 19 l 2
 127 24 130 26 135 27 c 2
 154 29 l 2
 186.7 32.4 196 43 196 72 c 2
 196 387 l 2
EndSplineSet
EndChar

StartChar: afii10093
Encoding: 1099 1099 100
Width: 691
VWidth: 999
Flags: HW
HStem: -2 29<38 63 192.897 305.645 450 475 637 663> 234 31<181 308.013> 433 29<38 63 224 249> 434 28<449 475 637 663>
VStem: 106 75<34.4888 234 265 426.167> 351 75<66.8761 200.297> 518 77<33.9549 428.246>
LayerCount: 2
Fore
SplineSet
595 400 m 2
 595 67 l 2
 595 45 605 32 637 29 c 2
 658 27 l 2
 661 27 664 25 664 21 c 2
 664 0 l 1
 663 -2 l 1
 663 -2 587 0 556 0 c 0
 528 0 450 -2 450 -2 c 1
 448 0 l 1
 448 21 l 2
 448 25 451 27 455 27 c 2
 475 29 l 2
 508 32.3 518 48 518 67 c 2
 518 400 l 2
 518 422 506 428.9 475 432 c 2
 455 434 l 2
 451 434 448 435 448 438 c 2
 448 460 l 1
 449 462 l 1
 449 462 528 460 559 460 c 0
 586 460 663 462 663 462 c 1
 664 460 l 1
 664 439 l 2
 664 436 662 434 658 434 c 2
 637 432 l 2
 606 429 595 420 595 400 c 2
351 131 m 0
 351 184 324 234 253 234 c 2
 182 234 l 1
 182 74 l 2
 182 38 203 27 249 27 c 0
 299 27 351 49 351 131 c 0
105 72 m 2
 105 387 l 2
 105 415 97.6 427.4 63 431 c 2
 44 433 l 2
 39 434 36 436 36 441 c 2
 36 460 l 1
 38 462 l 1
 38 462 106 460 142 460 c 0
 181 460 249 462 249 462 c 1
 251 460 l 1
 251 441 l 2
 251 436 247 433 243 433 c 2
 224 431 l 2
 190.4 427.5 182 415 182 387 c 2
 182 265 l 1
 243 265 l 2
 339 265 426 235 426 141 c 0
 426 57 359 -2 248 -2 c 0
 218 -2 172 0 142 0 c 0
 106 0 38 -2 38 -2 c 1
 36 0 l 1
 36 19 l 2
 36 24 39 26 44 27 c 2
 63 29 l 2
 95.7 32.4 105 43 105 72 c 2
EndSplineSet
Colour: ff00ff
EndChar

StartChar: afii10094
Encoding: 1100 1100 101
Width: 457
VWidth: 999
Flags: HW
HStem: -2 29<38 63 193.513 305.645> 234 31<182 308.013> 433 29<38 63 224 249>
VStem: 105 77<33.9245 234 265 426.525> 351 75<66.8761 200.297>
LayerCount: 2
Fore
SplineSet
351 131 m 0
 351 184 324 234 253 234 c 2
 182 234 l 1
 182 74 l 2
 182 38 203 27 249 27 c 0
 299 27 351 49 351 131 c 0
105 72 m 2
 105 387 l 2
 105 415 97.6 427.4 63 431 c 2
 44 433 l 2
 39 434 36 436 36 441 c 2
 36 460 l 1
 38 462 l 1
 38 462 106 460 142 460 c 0
 181 460 249 462 249 462 c 1
 251 460 l 1
 251 441 l 2
 251 436 247 433 243 433 c 2
 224 431 l 2
 190.4 427.5 182 415 182 387 c 2
 182 265 l 1
 243 265 l 2
 339 265 426 235 426 141 c 0
 426 57 359 -2 248 -2 c 0
 218 -2 172 0 142 0 c 0
 106 0 38 -2 38 -2 c 1
 36 0 l 1
 36 19 l 2
 36 24 39 26 44 27 c 2
 63 29 l 2
 95.7 32.4 105 43 105 72 c 2
EndSplineSet
EndChar

StartChar: afii10095
Encoding: 1101 1101 102
Width: 439
VWidth: 999
Flags: HW
HStem: -12 31<125 246> 198 48<161 307> 219 46<89 105 97 194> 442 31<114 241>
VStem: 40 27<329 374> 319 76<125 334>
LayerCount: 2
Fore
SplineSet
185 19 m 0
 279 19 319 141 319 218 c 0
 319 220.4 319 222.9 318.9 225.5 c 1
 296 213.5 259.5 198 228 198 c 0
 184 198 155 225 120 225 c 0
 108 225 98 219 90 219 c 0
 84 219 83 229 83 233 c 0
 83 248 128 265 171 265 c 0
 216 265 233 246 271 246 c 0
 286.7 246 303 249.1 316.8 253.4 c 1
 307.7 331.1 269.4 442 182 442 c 0
 102 442 81 385 67 325 c 1
 40 329 l 1
 46 373 49 407 51 461 c 1
 121 461 121 474 192 474 c 0
 315 474 396 345 396 235 c 0
 396 78 284 -12 178 -12 c 0
 96 -12 37 32 37 84 c 0
 37 98 49 113 67 113 c 0
 78 113 100 109 105 76 c 0
 111 42 142 19 185 19 c 0
EndSplineSet
EndChar

StartChar: afii10096
Encoding: 1102 1102 103
Width: 695
VWidth: 999
Flags: HW
HStem: -10 35<428.762 523.885> -2 29<34 59 221 247> 214 39<171 268> 433 29<33 59 221 247> 436 34<408.732 507.229>
VStem: 102 77<34.1038 427.433> 268 79<126.786 214 253 341.615> 581 78<122.155 344.022>
LayerCount: 2
Fore
SplineSet
454 436 m 0
 380 436 347 329 347 242 c 0
 347 165 386 25 479 25 c 0
 521 25 581 69 581 201 c 0
 581 347 532 436 454 436 c 0
179 214 m 1
 179 67 l 2
 179 45 189.5 32 221 29 c 2
 242 27 l 2
 245 26.7 248 25 248 21 c 2
 248 0 l 1
 247 -2 l 1
 247 -2 171 0 140 0 c 0
 112 0 34 -2 34 -2 c 1
 32 0 l 1
 32 21 l 2
 32 25 35 26.6 39 27 c 2
 59 29 l 2
 92.5 32.3 102 48 102 67 c 2
 102 400 l 2
 102 422 89.8 427.9 59 431 c 2
 39 433 l 2
 35 433.4 32 434 32 437 c 2
 32 460 l 1
 33 462 l 1
 33 462 112 460 143 460 c 0
 170 460 247 462 247 462 c 1
 248 460 l 1
 248 438 l 2
 248 435 246 433.4 242 433 c 2
 221 431 l 2
 190.2 428.1 179 420 179 400 c 2
 179 253 l 1
 269 253 l 1
 280 375 349 470 464 470 c 0
 607 470 659 337 659 233 c 0
 659 133 602 -10 463 -10 c 0
 335 -10 269 113 268 214 c 1
 179 214 l 1
EndSplineSet
EndChar

StartChar: afii10097
Encoding: 1103 1103 104
Width: 429
VWidth: 999
Flags: HMW
HStem: -1 29<20 63 215 215 215 269 347 395 395 398> 212 35<203 270> 434 28<146 269 345 396>
VStem: 43 75<278 398> 270 75<44 212 247 432>
LayerCount: 2
Fore
SplineSet
270 247 m 1
 270 398 l 2
 270 430 263 434 224 434 c 0
 138 434 118 393 118 347 c 0
 118 296 146 247 203 247 c 2
 270 247 l 1
110 152 m 0
 125 194 147 214 175 221 c 1
 120 221 43 264 43 335 c 0
 43 410 124 461 198 461 c 2
 267 461 l 1
 308 461 l 1
 396 462 l 1
 398 460 l 1
 398 437 l 2
 398 435 397 434 395 434 c 2
 370 434 l 2
 345 434 345 425 345 404 c 2
 345 76 l 2
 345 50 348 28 366 28 c 2
 388 28 l 2
 396 28 398 21 398 19 c 2
 398 -1 l 1
 398 -1 343 1 307 1 c 0
 271 1 214 -1 214 -1 c 1
 214 21 l 2
 214 25 216 28 220 28 c 2
 235 28 l 2
 268 28 270 37 270 76 c 2
 270 212 l 1
 243 212 l 2
 203 212 179.4 160.9 159 101 c 0
 145 60 115 0 83 0 c 2
 20 -1 l 1
 17 1 l 1
 17 20 l 2
 17 27 23 28 27 28 c 2
 35 28 l 2
 64 28 96.8 115.1 110 152 c 0
EndSplineSet
EndChar

StartChar: uni04D0
Encoding: 1232 1232 105
Width: 695
VWidth: 999
Flags: HW
HStem: -1 29<4 4 4 76 136 217 217 217 438 439 439 518 615 686 686 687> 244 39<237 438> 648 10<351 365> 698 31<314 401>
VStem: 234 249<703 797 771 771>
DStem2: 95 81 140 72 0.392235 0.919865<9.08603 526.758> 390 628 339 550 0.353155 -0.935565<55.4419 565.088>
LayerCount: 2
Fore
SplineSet
263 283 m 2
 437 283 l 1
 340 550 l 1
 338 550 l 1
 237.8 296.3 l 2
 233.6 285.5 240.8 283 263 283 c 2
152 79 m 2
 142 53.6 154.5 31.6 192 29 c 2
 221 27 l 2
 225 26.7 229 24 229 19 c 2
 229 0 l 1
 227 -2 l 1
 227 -2 118 0 94 0 c 0
 68 0 4 -2 4 -2 c 1
 2 0 l 1
 2 19 l 2
 2 24 5 26.7 10 27 c 0
 53.5 30 79.2 37.8 107 102 c 2
 329.3 622.3 l 2
 340.3 648.1 348.3 658 363 658 c 0
 377 658 382.4 648.1 390 628 c 2
 595 86 l 2
 609 47 629.2 31.6 669 28 c 2
 680 27 l 2
 685 26.5 690 24 690 19 c 2
 690 0 l 1
 687 -2 l 1
 687 -2 610 0 571 0 c 0
 536 0 438 -2 438 -2 c 1
 437 0 l 1
 437 19 l 2
 437 24 439 26.6 444 27 c 2
 472 29 l 2
 509.8 31.7 524 44.3 514 72 c 2
 453 241 l 1
 245 241 l 2
 221 241 215.1 236.6 210 224 c 2
 152 79 l 2
483 775 m 0
 483 723 421 698 358 698 c 0
 292 698 234 722 234 774 c 0
 234 796 246 805 273 805 c 0
 294 805 304 789 304 774 c 0
 304 772 304 771 304 770 c 0
 304 768 304 767 304 766 c 0
 304 746 326 729 359 729 c 0
 389 729 414 743 414 765 c 0
 414 767 413 768 413 770 c 0
 413 771 413 773 413 774 c 0
 413 789 422 805 445 805 c 0
 471 805 483 795 483 775 c 0
EndSplineSet
LCarets2: 1 0 
Colour: ff00ff
EndChar

StartChar: uni04D1
Encoding: 1233 1233 106
Width: 538
VWidth: 999
Flags: HW
HStem: -1 29<4 4 4 34 121 166 166 167 343 343 343 406 483 537 537 537> 175 29<186 345> 464 10 513 30<233 319>
VStem: 156 242<530 624 600 601>
DStem2: 72 70 112 59 0.419429 0.907788<6.80342 375.15> 318 449 268 393 0.375987 -0.926625<33.1227 394.091>
LayerCount: 2
Fore
SplineSet
398 601 m 0
 398 546 340 513 276 513 c 0
 211 513 156 546 156 600 c 0
 156 618 172 633 195 633 c 0
 217 633 229 619 229 603 c 0
 229 601 228 598 228 595 c 0
 227 592 227 589 227 587 c 0
 227 565 247 544 277 544 c 0
 306 544 327 564 327 586 c 0
 327 589 327 592 326 595 c 0
 325 597 325 600 325 602 c 0
 325 619 341 633 360 633 c 0
 384 633 398 620 398 601 c 0
161 164 m 2
 117 59 l 2
 115 54 113 49 113 46 c 0
 113 33 129 30 154 28 c 2
 167 27 l 2
 170 27 173 24 173 21 c 2
 173 0 l 1
 171 -2 l 1
 171 -2 88 0 69 0 c 0
 49 0 4 -2 4 -2 c 1
 2 0 l 1
 2 21 l 2
 2 24 5 27 8 27 c 0
 33 30 55 34 72 70 c 2
 248 448 l 2
 255 464 271 474 280 474 c 0
 301 474 313 466 320 449 c 2
 466 76 l 1
 483 36 495 30 528 27 c 0
 535 26 536 24 536 21 c 2
 536 0 l 1
 533 -2 l 1
 533 -2 480 0 450 0 c 0
 422 0 338 -2 338 -2 c 1
 336 0 l 1
 336 21 l 2
 336 24 339 27 343 27 c 2
 361 29 l 2
 384 32 401 35 401 48 c 0
 401 51 400 55 399 59 c 2
 354 175 l 1
 183 175 l 2
 170 175 163 171 161 164 c 2
342 204 m 1
 263 401 l 1
 262 401 l 1
 186 218 l 1
 186 213 186 204 206 204 c 2
 342 204 l 1
EndSplineSet
LCarets2: 1 0 
Colour: ff00ff
EndChar

StartChar: uni04D2
Encoding: 1234 1234 107
Width: 695
VWidth: 999
Flags: HW
HStem: -1 29<4 4 4 76 136 217 217 217 438 439 439 518 615 686 686 687> 244 39<237 438> 648 10<351 365> 712 91<245 310 406 470>
VStem: 232 91<725 790> 393 91<725 790>
DStem2: 95 81 140 72 0.392235 0.919865<9.08603 526.758> 390 628 339 550 0.353155 -0.935565<55.4419 565.088>
LayerCount: 2
Fore
SplineSet
263 283 m 2
 437 283 l 1
 340 550 l 1
 338 550 l 1
 237.8 296.3 l 2
 233.6 285.5 240.8 283 263 283 c 2
152 79 m 2
 142 53.6 154.5 31.6 192 29 c 2
 221 27 l 2
 225 26.7 229 24 229 19 c 2
 229 0 l 1
 227 -2 l 1
 227 -2 118 0 94 0 c 0
 68 0 4 -2 4 -2 c 1
 2 0 l 1
 2 19 l 2
 2 24 5 26.7 10 27 c 0
 53.5 30 79.2 37.8 107 102 c 2
 329.3 622.3 l 2
 340.3 648.1 348.3 658 363 658 c 0
 377 658 382.4 648.1 390 628 c 2
 595 86 l 2
 609 47 629.2 31.6 669 28 c 2
 680 27 l 2
 685 26.5 690 24 690 19 c 2
 690 0 l 1
 687 -2 l 1
 687 -2 610 0 571 0 c 0
 536 0 438 -2 438 -2 c 1
 437 0 l 1
 437 19 l 2
 437 24 439 26.6 444 27 c 2
 472 29 l 2
 509.8 31.7 524 44.3 514 72 c 2
 453 241 l 1
 245 241 l 2
 221 241 215.1 236.6 210 224 c 2
 152 79 l 2
392 758 m 0
 392 783 413 803 438 803 c 0
 463 803 483 783 483 758 c 0
 483 733 463 712 438 712 c 0
 413 712 392 733 392 758 c 0
232 758 m 0
 232 783 252 803 277 803 c 0
 302 803 323 783 323 758 c 0
 323 733 302 712 277 712 c 0
 252 712 232 733 232 758 c 0
EndSplineSet
LCarets2: 1 0 
Colour: ff00ff
EndChar

StartChar: uni04D3
Encoding: 1235 1235 108
Width: 538
VWidth: 714
Flags: HW
HStem: -1 29<4 4 4 34 121 166 166 167 343 343 343 406 483 537 537 537> 175 29<186 345> 464 10<277 286> 515 91<173 238 334 398>
VStem: 160 91<528 592> 321 91<528 592>
DStem2: 72 70 112 59 0.419429 0.907788<6.80342 375.15> 318 449 268 393 0.375987 -0.926625<33.1227 394.091>
LayerCount: 2
Fore
SplineSet
161 164 m 2
 117 59 l 2
 115 54 113 49 113 46 c 0
 113 33 129 30 154 28 c 2
 167 27 l 2
 170 27 173 24 173 21 c 2
 173 0 l 1
 171 -2 l 1
 171 -2 88 0 69 0 c 0
 49 0 4 -2 4 -2 c 1
 2 0 l 1
 2 21 l 2
 2 24 5 27 8 27 c 0
 33 30 55 34 72 70 c 2
 248 448 l 2
 255 464 271 474 280 474 c 0
 301 474 313 466 320 449 c 2
 466 76 l 1
 483 36 495 30 528 27 c 0
 535 26 536 24 536 21 c 2
 536 0 l 1
 533 -2 l 1
 533 -2 480 0 450 0 c 0
 422 0 338 -2 338 -2 c 1
 336 0 l 1
 336 21 l 2
 336 24 339 27 343 27 c 2
 361 29 l 2
 384 32 401 35 401 48 c 0
 401 51 400 55 399 59 c 2
 354 175 l 1
 183 175 l 2
 170 175 163 171 161 164 c 2
342 204 m 1
 263 401 l 1
 262 401 l 1
 186 218 l 1
 186 213 186 204 206 204 c 2
 342 204 l 1
322 573 m 0
 322 598 343 618 368 618 c 0
 393 618 413 598 413 573 c 0
 413 548 393 527 368 527 c 0
 343 527 322 548 322 573 c 0
162 573 m 0
 162 598 182 618 207 618 c 0
 232 618 253 598 253 573 c 0
 253 548 232 527 207 527 c 0
 182 527 162 548 162 573 c 0
EndSplineSet
LCarets2: 1 0 
Colour: ff00ff
EndChar

StartChar: uni04D4
Encoding: 1236 1236 109
Width: 870
VWidth: 999
Flags: HW
HStem: -1 29<2 70 127 195 339 413> 0 39<514 761> 266 39<268 426> 332 34<507 642> 606 39<512 736> 618 29<293 350>
VStem: 426 81<38 266 305 332 366 602> 777 27<503 559>
LayerCount: 2
Fore
SplineSet
268 305 m 1
 426 305 l 1
 426 575 l 2
 426 588 426 592 425 598 c 1
 268 305 l 1
468 1 m 2
 433 1 339 -1 339 -1 c 1
 337 1 l 1
 337 19 l 2
 337 24 340 28 345 28 c 2
 372 28 l 2
 413 28 426 44 426 72 c 2
 426 266 l 1
 248 266 l 1
 142 68 l 2
 133 51 129 45 129 39 c 0
 129 30 138 28 162 28 c 2
 191 28 l 2
 195 28 197 25 197 22 c 2
 197 1 l 1
 195 -1 l 1
 195 -1 131 1 92 1 c 0
 57 1 1 -1 1 -1 c 1
 0 1 l 1
 0 20 l 2
 0 25 4 28 10 28 c 2
 32 28 l 2
 61 28 73 35 92 70 c 2
 359 577 l 2
 362 582 363 587 363 591 c 0
 363 608 346 618 331 618 c 2
 299 618 l 2
 294 618 292 621 292 625 c 2
 292 645 l 1
 293 646 l 1
 467 645 l 1
 544 646 l 1
 790 646 l 1
 804 506 l 1
 777 503 l 1
 770 546 736 606 685 606 c 2
 543 606 l 2
 519 606 507 598 507 574 c 2
 507 366 l 1
 608 366 l 2
 643 366 652 382 658 410 c 2
 665 440 l 2
 666 444 668 448 672 448 c 2
 694 448 l 2
 697 448 698 446 698 444 c 0
 695 412 690 382 690 349 c 0
 690 314 694 285 698 253 c 1
 695 250 l 1
 672 250 l 2
 667 250 665 253 664 257 c 2
 658 288 l 2
 653 316 642 332 608 332 c 2
 507 332 l 1
 507 72 l 2
 507 45 521 39 543 39 c 2
 695 39 l 2
 761 39 789 92 805 165 c 1
 831 160 l 1
 806 0 l 1
 544 0 l 1
 468 1 l 2
EndSplineSet
Colour: ff00ff
EndChar

StartChar: uni04D5
Encoding: 1237 1237 110
Width: 662
VWidth: 999
Flags: HW
HStem: 0 28<6 62 126 185 281 342 431 639> 175 28<187 351> 230 32<425 545> 430 32<283 319> 434 28<194 249 435 632>
VStem: 351 75<33 175 203 230 262 417> 651 21<360 400>
LayerCount: 2
Fore
SplineSet
505 34 m 2
 566 34 589 74 604 124 c 1
 630 121 l 1
 618 72 610 32 609 0 c 1
 609 0 467 0 369 0 c 0
 330 0 270 -2 270 -2 c 1
 269 0 l 1
 269 22 l 2
 269 24 270 26.5 274 27 c 2
 291 29 l 2
 322.6 32.7 332 41 332 61 c 2
 332 216 l 1
 220 216 l 2
 201 216 195 211 191 203 c 2
 119 59 l 2
 110 41 122 38 152 29 c 1
 162 27 l 2
 165 26 168 24 168 21 c 2
 168 0 l 1
 167 -2 l 1
 167 -2 85 0 66 0 c 0
 47 0 6 -2 6 -2 c 1
 5 0 l 1
 5 21 l 2
 5 24 7 26.6 11 27 c 0
 44.5 30 63 47 71 61 c 0
 91 93 137 178 168 238 c 0
 184 270 241 384 241 412 c 0
 241 424 234.5 430 208 433 c 0
 202 433.7 202 436 202 437 c 2
 202 460 l 1
 204 462 l 1
 204 462 292 460 368 460 c 2
 505 460 l 2
 535 460 606 462 606 462 c 1
 608 460 l 1
 609 417 616 378 623 340 c 1
 598 336 l 1
 587 373 568 426 504 426 c 2
 434 426 l 2
 415 426 405 420 405 403 c 2
 405 247 l 1
 466 247 l 2
 493 247 500 259 505 279 c 2
 510 300 l 2
 511 304 513 306 516 306 c 2
 533 306 l 2
 535 306 536 305 536 303 c 0
 534 280 530 252 530 228 c 0
 530 203 533 183 536 159 c 1
 534 157 l 1
 516 157 l 2
 512 157 510 160 509 162 c 2
 505 184 l 1
 500 205 492 215 466 215 c 2
 405 215 l 1
 405 59 l 2
 405 40 417 34 434 34 c 2
 505 34 l 2
276 393 m 2
 217 257 l 2
 216 255 215 253 215 252 c 0
 215 248 221 247 235 247 c 2
 332 247 l 1
 332 391 l 2
 332 422 323 433 310 433 c 0
 300 433 287 417 276 393 c 2
EndSplineSet
Colour: ff00ff
EndChar

StartChar: uni04D6
Encoding: 1238 1238 111
Width: 549
VWidth: 999
Flags: HW
HStem: -1 29<14 98> 0 39<183 449> 327 34<182 361> 434 10<381 406> 606 39<183 418> 618 29<14 98> 698 31<229 316>
VStem: 102 81<41 327 361 605> 149 249<703 797 771 771> 375 34<248 283 405 442>
LayerCount: 2
Fore
SplineSet
445.3 646 m 0
 446.7 638.4 461.8 542 467 501 c 1
 438 496 l 1
 416 565 398 605 323 605 c 2
 218 605 l 2
 194 605 182 597 182 573 c 2
 182 361 l 1
 309 361 l 2
 344 361 355.6 374.6 359 403 c 2
 362 428 l 2
 362 432 365 436 369 436 c 2
 391 436 l 2
 394 436 395 434 395 432 c 2
 395 432 391 379 391 346 c 0
 391 312 395 255 395 255 c 1
 392 252 l 1
 369 252 l 2
 364 252 361 256 361 259 c 2
 359 285 l 2
 356.7 314.3 343 323 309 323 c 2
 182 323 l 1
 182 72 l 2
 182 45 196 39 218 39 c 2
 354 39 l 2
 430 39 469 98 489 170 c 1
 520 165 l 1
 508 113 493.5 49.5 483 -2 c 1
 483 -2 402.7 0 355 0 c 2
 142 0 l 1
 14 -2 l 1
 12 0 l 1
 12 20 l 2
 12 23 14 26.6 20 27 c 2
 50 29 l 2
 89.4 31.6 101 44 101 72 c 2
 101 573 l 2
 101 604 88.4 613.4 50 616 c 2
 20 618 l 2
 13 618.5 12 622 12 625 c 2
 12 645 l 1
 14 646 l 1
 14 646 115 645 142 645 c 2
 394.3 645 l 2
 418.5 645 423.8 645.6 441.3 649 c 0
 443.7 649 444.9 648.3 445.3 646 c 0
398 775 m 0
 398 723 336 698 273 698 c 0
 207 698 149 722 149 774 c 0
 149 796 161 805 188 805 c 0
 209 805 219 789 219 774 c 0
 219 772 219 771 219 770 c 0
 219 768 219 767 219 766 c 0
 219 746 241 729 274 729 c 0
 304 729 329 743 329 765 c 0
 329 767 328 768 328 770 c 0
 328 771 328 773 328 774 c 0
 328 789 337 805 360 805 c 0
 386 805 398 795 398 775 c 0
EndSplineSet
LCarets2: 1 0 
Colour: ff00ff
EndChar

StartChar: uni04D7
Encoding: 1239 1239 112
Width: 454
VWidth: 999
Flags: HW
HStem: -1 29<33 100 185 362> 230 32<176 299> 434 29<33 100 176 356> 513 30<195 282>
VStem: 101 75<30 230 262 432> 119 242<530 624 600 601> 307 26<171 199> 395 25<339 380> 402 25<76 125>
LayerCount: 2
Fore
SplineSet
361 601 m 0
 361 546 303 513 239 513 c 0
 174 513 119 546 119 600 c 0
 119 618 135 633 158 633 c 0
 180 633 192 619 192 603 c 0
 192 601 191 598 191 595 c 0
 190 592 190 589 190 587 c 0
 190 565 210 544 240 544 c 0
 269 544 290 564 290 586 c 0
 290 589 290 592 289 595 c 0
 288 597 288 600 288 602 c 0
 288 619 304 633 323 633 c 0
 347 633 361 620 361 601 c 0
307 0 m 2
 132 0 l 2
 102 0 33 -2 33 -2 c 1
 32 0 l 1
 32 22 l 2
 32 24 33 26.6 38 27 c 2
 61 29 l 2
 91.6 31.7 101 52 101 72 c 2
 101 402 l 2
 101 425 89 428.6 61 431 c 2
 38 433 l 2
 32 433.5 32 436 32 437 c 2
 32 460 l 1
 33 462 l 1
 33 462 111 460 141 460 c 2
 288 460 l 2
 318 460 389 462 389 462 c 1
 391 460 l 1
 392 417 399 378 406 340 c 1
 381 336 l 1
 370 373 351 426 287 426 c 2
 207 426 l 2
 188 426 178 419 178 402 c 2
 178 257 l 1
 253 257 l 2
 281 257 288 269 292 289 c 1
 298 310 l 2
 298 313 300 315 304 315 c 2
 321 315 l 2
 323 315 323 314 323 312 c 0
 321 290 317 262 317 238 c 0
 317 213 321 192 323 169 c 1
 321 167 l 1
 304 167 l 2
 299 167 297 169 297 172 c 2
 292 194 l 2
 288 214 279 225 253 225 c 2
 178 225 l 1
 178 72 l 2
 178 53 189 34 207 34 c 2
 302 34 l 2
 353 34 381 66 393 118 c 1
 418 115 l 1
 398 0 l 1
 396 -2 l 1
 396 -2 337 0 307 0 c 2
EndSplineSet
LCarets2: 1 0 
Colour: ff00ff
EndChar

StartChar: uni04D8
Encoding: 1240 1240 113
Width: 668
VWidth: 999
Flags: HW
HStem: -12 34<248 417> 216 44<126 535> 624 34<209 394>
VStem: 546 89<230 436>
LayerCount: 2
Fore
SplineSet
102 523 m 1
 79 547 l 1
 158 621 214 658 324 658 c 0
 540 658 635 485 635 326 c 0
 635 131 523 -12 331 -12 c 0
 139 -12 58 118 46 260 c 1
 544 260 l 1
 545 271 546 283 546 297 c 0
 546 483 444 624 309 624 c 0
 215 624 155 575 102 523 c 1
126 216 m 1
 158 86 240 22 337 22 c 0
 443 22 517 116 535 216 c 1
 126 216 l 1
EndSplineSet
EndChar

StartChar: afii10846
Encoding: 1241 1241 114
Width: 454
VWidth: 999
Flags: HW
HStem: 0 29<105 286 361 428> 201 32<162 286> 435 29<100 276 361 428>
VStem: 34 25<338 386> 42 25<82 124> 128 26<263 291> 286 75<31 201 232 433>
LayerCount: 2
Fore
SplineSet
154 462 m 2
 329 462 l 2
 359 462 428 464 428 464 c 1
 429 462 l 1
 429 440 l 2
 429 438 428 435.4 423 435 c 2
 400 433 l 2
 369.4 430.3 360 410 360 390 c 2
 360 60 l 2
 360 37 372 33.4 400 31 c 2
 423 29 l 2
 429 28.5 429 26 429 25 c 2
 429 2 l 1
 428 0 l 1
 428 0 350 2 320 2 c 2
 173 2 l 2
 143 2 72 0 72 0 c 1
 70 2 l 1
 69 45 62 84 55 122 c 1
 80 126 l 1
 91 89 110 36 174 36 c 2
 254 36 l 2
 273 36 283 43 283 60 c 2
 283 205 l 1
 208 205 l 2
 180 205 173 193 169 173 c 1
 163 152 l 2
 163 149 161 147 157 147 c 2
 140 147 l 2
 138 147 138 148 138 150 c 0
 140 172 144 200 144 224 c 0
 144 249 140 270 138 293 c 1
 140 295 l 1
 157 295 l 2
 162 295 164 293 164 290 c 2
 169 268 l 2
 173 248 182 237 208 237 c 2
 283 237 l 1
 283 390 l 2
 283 409 272 428 254 428 c 2
 159 428 l 2
 108 428 80 396 68 344 c 1
 43 347 l 1
 63 462 l 1
 65 464 l 1
 65 464 124 462 154 462 c 2
EndSplineSet
Colour: ff00ff
EndChar

StartChar: uni04DA
Encoding: 1242 1242 115
Width: 668
VWidth: 999
Flags: HW
HStem: -12 34<248 417> 216 44<126 535> 624 34<209 394> 706 91<199 264 388 453>
VStem: 186 91<719 784> 375 91<719 784> 546 89<230 436>
LayerCount: 2
Fore
SplineSet
102 523 m 1
 79 547 l 1
 158 621 214 658 324 658 c 0
 540 658 635 485 635 326 c 0
 635 131 523 -12 331 -12 c 0
 139 -12 58 118 46 260 c 1
 544 260 l 1
 545 271 546 283 546 297 c 0
 546 483 444 624 309 624 c 0
 215 624 155 575 102 523 c 1
126 216 m 1
 158 86 240 22 337 22 c 0
 443 22 517 116 535 216 c 1
 126 216 l 1
375 752 m 0
 375 776 396 797 420 797 c 0
 445 797 466 776 466 752 c 0
 466 727 445 706 420 706 c 0
 396 706 375 727 375 752 c 0
186 751 m 0
 186 776 206 796 231 796 c 0
 256 796 276 776 276 751 c 0
 276 726 256 706 231 706 c 0
 206 706 186 726 186 751 c 0
EndSplineSet
LCarets2: 1 0 
Colour: ff00ff
EndChar

StartChar: uni04DB
Encoding: 1243 1243 116
Width: 454
VWidth: 999
Flags: HW
HStem: 0 29<105 286 361 428> 201 32<162 286> 435 29<100 276 361 428> 523 91<123 188 284 348>
VStem: 34 25<338 386> 42 25<82 124> 110 91<536 601> 128 26<263 291> 271 91<536 601> 286 75<31 201 232 433>
LayerCount: 2
Fore
SplineSet
270 569 m 0
 270 594 291 614 316 614 c 0
 341 614 361 594 361 569 c 0
 361 544 341 523 316 523 c 0
 291 523 270 544 270 569 c 0
110 569 m 0
 110 594 130 614 155 614 c 0
 180 614 201 594 201 569 c 0
 201 544 180 523 155 523 c 0
 130 523 110 544 110 569 c 0
154 462 m 2
 329 462 l 2
 359 462 428 464 428 464 c 1
 429 462 l 1
 429 440 l 2
 429 438 428 435.4 423 435 c 2
 400 433 l 2
 369.4 430.3 360 410 360 390 c 2
 360 60 l 2
 360 37 372 33.4 400 31 c 2
 423 29 l 2
 429 28.5 429 26 429 25 c 2
 429 2 l 1
 428 0 l 1
 428 0 350 2 320 2 c 2
 173 2 l 2
 143 2 72 0 72 0 c 1
 70 2 l 1
 69 45 62 84 55 122 c 1
 80 126 l 1
 91 89 110 36 174 36 c 2
 254 36 l 2
 273 36 283 43 283 60 c 2
 283 205 l 1
 208 205 l 2
 180 205 173 193 169 173 c 1
 163 152 l 2
 163 149 161 147 157 147 c 2
 140 147 l 2
 138 147 138 148 138 150 c 0
 140 172 144 200 144 224 c 0
 144 249 140 270 138 293 c 1
 140 295 l 1
 157 295 l 2
 162 295 164 293 164 290 c 2
 169 268 l 2
 173 248 182 237 208 237 c 2
 283 237 l 1
 283 390 l 2
 283 409 272 428 254 428 c 2
 159 428 l 2
 108 428 80 396 68 344 c 1
 43 347 l 1
 63 462 l 1
 65 464 l 1
 65 464 124 462 154 462 c 2
EndSplineSet
LCarets2: 1 0 
Colour: ff00ff
EndChar

StartChar: uni04E0
Encoding: 1248 1248 117
Width: 608
VWidth: 999
Flags: HW
HStem: -211 37<215 357> 605 39<141 167 167 446>
VStem: 475 89<-42 146>
DStem2: 250 252 367 288 0.48636 0.873758<88.8042 404.592>
LayerCount: 2
Fore
SplineSet
167 645 m 2
 522 645 l 2
 543 645 550 639 550 631 c 0
 550 621 544 605 535 590 c 2
 367 288 l 1
 501 261 564 162 564 51 c 0
 564 -88 432 -211 272 -211 c 0
 192 -211 42 -176 42 -110 c 0
 42 -87 52 -60 86 -60 c 0
 113 -60 141 -74 154 -95 c 0
 186 -144 236 -174 291 -174 c 0
 378 -174 475 -53 475 42 c 0
 475 201 360 255 291 255 c 0
 275 255 264 255 250 252 c 1
 446 605 l 1
 197 605 l 1
 123 604 94 521 90 477 c 1
 64 479 l 1
 85 667 l 1
 108 662 143 645 167 645 c 2
EndSplineSet
EndChar

StartChar: uni04E1
Encoding: 1249 1249 118
Width: 416
VWidth: 999
Flags: HW
HStem: -235 35<149 244> 103 34<216 268> 395 34<107 295>
VStem: 40 27<303 337> 312 81<-120 61>
DStem2: 127 107 216 137 0.505072 0.863077<70.4402 332.658>
LayerCount: 2
Fore
SplineSet
113 117 m 1
 309 426 l 1
 148 426 l 2
 118 426 84 405 64 332 c 1
 38 335 l 1
 46 384 52 428 53 473 c 1
 78 473 l 1
 80 467 89 460 104 460 c 2
 327 460 l 2
 356 460 392 466 394 466 c 0
 401 466 407 464 407 460 c 0
 407 456 400.9 442.1 385 418 c 2
 206 147 l 1
 302 147 393 84 393 -22 c 0
 393 -141 308 -235 185 -235 c 0
 100 -235 42 -174 42 -142 c 0
 42 -124 52 -106 74 -106 c 0
 97 -106 110 -116 118 -140 c 0
 126 -162 153 -200 193 -200 c 0
 243 -200 308 -146 308 -38 c 0
 308 63 271 113 193 113 c 0
 182 113 152 106 134 102 c 1
 113 117 l 1
EndSplineSet
EndChar

StartChar: uni04E6
Encoding: 1254 1254 119
Width: 698
VWidth: 999
Flags: HW
HStem: -12 34<279 448> 624 34<252 429> 706 91<220 285 410 474>
VStem: 37 92<199 440> 207 91<719 784> 396 91<719 784> 570 92<198 455>
LayerCount: 2
Fore
SplineSet
334 624 m 0
 238 624 129 537 129 327 c 0
 129 135 248 24 368 24 c 0
 482 24 570 131 570 310 c 0
 570 518 475 624 334 624 c 0
662 329 m 0
 662 129 539 -10 348 -10 c 0
 176 -10 37 113 37 310 c 0
 37 506 168 658 347 658 c 0
 527 658 662 527 662 329 c 0
396 752 m 0
 396 776 417 797 441 797 c 0
 466 797 487 776 487 752 c 0
 487 727 466 706 441 706 c 0
 417 706 396 727 396 752 c 0
207 751 m 0
 207 776 227 796 252 796 c 0
 277 796 297 776 297 751 c 0
 297 726 277 706 252 706 c 0
 227 706 207 726 207 751 c 0
EndSplineSet
LCarets2: 1 0 
Colour: ff00ff
EndChar

StartChar: uni04E7
Encoding: 1255 1255 120
Width: 555
VWidth: 999
Flags: HW
HStem: -12 32<206 363> 442 32<198 343> 515 91<160 225 321 386>
VStem: 37 81<120 330> 147 91<528 592> 308 91<528 592> 436 81<126 333>
LayerCount: 2
Fore
SplineSet
308 560 m 0
 308 585 329 605 354 605 c 0
 379 605 399 585 399 560 c 0
 399 535 379 514 354 514 c 0
 329 514 308 535 308 560 c 0
148 560 m 0
 148 585 168 605 193 605 c 0
 218 605 239 585 239 560 c 0
 239 535 218 514 193 514 c 0
 168 514 148 535 148 560 c 0
270 439 m 0
 195 439 120 369 120 234 c 0
 120 111 189 22 286 22 c 0
 375 22 436 98 436 221 c 0
 436 355 359 439 270 439 c 0
519 235 m 0
 519 105 435 -12 271 -12 c 0
 136 -12 37 86 37 222 c 0
 37 369 140 474 279 474 c 0
 409 474 519 377 519 235 c 0
EndSplineSet
LCarets2: 1 0 
Colour: ff00ff
EndChar

StartChar: uni04E8
Encoding: 1256 1256 121
Width: 698
VWidth: 999
Flags: HW
HStem: -12 34<279 448> 265 58<379 529> 311 58<169 337> 624 34<252 429>
VStem: 37 92<199 440> 570 92<198 455>
LayerCount: 2
Fore
SplineSet
334 624 m 0
 238 624 129 537 129 327 c 0
 129 326 129 325 129 324 c 1
 168.1 355.5 230.1 369 267 369 c 0
 366 369 396 323 459 323 c 0
 490.1 323 535.3 335.1 568.2 357.6 c 1
 554.6 534.2 463.8 624 334 624 c 0
662 329 m 0
 662 129 539 -10 348 -10 c 0
 176 -10 37 113 37 310 c 0
 37 506 168 658 347 658 c 0
 527 658 662 527 662 329 c 0
570 315.2 m 1
 528.2 276.9 478.6 265 441 265 c 0
 349 265 325 311 250 311 c 0
 220.2 311 165.9 306.4 131.2 282.8 c 1
 147.9 118 257.5 24 368 24 c 0
 482 24 570 131 570 310 c 0
 570 311.7 570 313.5 570 315.2 c 1
EndSplineSet
Colour: ff00ff
EndChar

StartChar: uni04E9
Encoding: 1257 1257 122
Width: 555
VWidth: 999
Flags: HW
HStem: -12 32<206 363> 192 49<260 400> 229 42<119 241> 442 32<198 343>
VStem: 37 81<120 330> 436 81<126 333>
AnchorPoint: "unten_punkt" 246 -107 basechar 0
AnchorPoint: "top_punkt" 244 550 basechar 0
AnchorPoint: "top_akzent" 236 645 basechar 0
LayerCount: 2
Fore
SplineSet
519 235 m 0
 519 105 435 -12 271 -12 c 0
 136 -12 37 86 37 222 c 0
 37 369 140 474 279 474 c 0
 409 474 519 377 519 235 c 0
434.1 257.1 m 1
 421.6 369.9 350.7 439 270 439 c 0
 198 439 126 374.4 120.4 249.8 c 1
 143.6 261 180.2 271 208 271 c 0
 252 271 320 241 359 241 c 0
 377.3 241 413.8 250 434.1 257.1 c 1
435.9 229.8 m 1
 407.9 215.5 349.3 192 315 192 c 0
 271 192 191 229 156 229 c 0
 148.2 229 132.4 223.9 120.3 220.4 c 1
 125.2 104.5 192.6 22 286 22 c 0
 375 22 436 98 436 221 c 0
 436 224 436 226.9 435.9 229.8 c 1
EndSplineSet
Colour: ff87bf
EndChar

StartChar: uni04EA
Encoding: 1258 1258 123
Width: 698
VWidth: 999
Flags: HW
HStem: -12 34<279 448> 265 58<379 529> 311 58<169 337> 624 34<252 429> 708 91<217 281 406 471>
VStem: 37 92<199 440> 204 91<721 785> 393 91<721 786> 570 92<198 455>
LayerCount: 2
Fore
SplineSet
334 624 m 0
 238 624 129 537 129 327 c 0
 129 326 129 325 129 324 c 1
 168.1 355.5 230.1 369 267 369 c 0
 366 369 396 323 459 323 c 0
 490.1 323 535.3 335.1 568.2 357.6 c 1
 554.6 534.2 463.8 624 334 624 c 0
662 329 m 0
 662 129 539 -10 348 -10 c 0
 176 -10 37 113 37 310 c 0
 37 506 168 658 347 658 c 0
 527 658 662 527 662 329 c 0
393 754 m 0
 393 778 414 799 438 799 c 0
 463 799 484 778 484 754 c 0
 484 729 463 708 438 708 c 0
 414 708 393 729 393 754 c 0
204 753 m 0
 204 778 224 798 249 798 c 0
 274 798 294 778 294 753 c 0
 294 728 274 708 249 708 c 0
 224 708 204 728 204 753 c 0
570 315.2 m 1
 528.2 276.9 478.6 265 441 265 c 0
 349 265 325 311 250 311 c 0
 220.2 311 165.9 306.4 131.2 282.8 c 1
 147.9 118 257.5 24 368 24 c 0
 482 24 570 131 570 310 c 0
 570 311.7 570 313.5 570 315.2 c 1
EndSplineSet
LCarets2: 1 0 
Colour: ff00ff
EndChar

StartChar: uni04EB
Encoding: 1259 1259 124
Width: 555
VWidth: 999
Flags: HW
HStem: -12 32<206 363> 192 49<260 400> 229 42<119 241> 442 32<198 343> 515 91<160 225 321 386>
VStem: 37 81<120 330> 147 91<528 592> 308 91<528 592> 436 81<126 333>
LayerCount: 2
Fore
SplineSet
308 560 m 0
 308 585 329 605 354 605 c 0
 379 605 399 585 399 560 c 0
 399 535 379 514 354 514 c 0
 329 514 308 535 308 560 c 0
148 560 m 0
 148 585 168 605 193 605 c 0
 218 605 239 585 239 560 c 0
 239 535 218 514 193 514 c 0
 168 514 148 535 148 560 c 0
519 235 m 0
 519 105 435 -12 271 -12 c 0
 136 -12 37 86 37 222 c 0
 37 369 140 474 279 474 c 0
 409 474 519 377 519 235 c 0
434.1 257.1 m 1
 421.6 369.9 350.7 439 270 439 c 0
 198 439 126 374.4 120.4 249.8 c 1
 143.6 261 180.2 271 208 271 c 0
 252 271 320 241 359 241 c 0
 377.3 241 413.8 250 434.1 257.1 c 1
435.9 229.8 m 1
 407.9 215.5 349.3 192 315 192 c 0
 271 192 191 229 156 229 c 0
 148.2 229 132.4 223.9 120.3 220.4 c 1
 125.2 104.5 192.6 22 286 22 c 0
 375 22 436 98 436 221 c 0
 436 224 436 226.9 435.9 229.8 c 1
EndSplineSet
LCarets2: 1 0 
Colour: ff00ff
EndChar

StartChar: uni04EF
Encoding: 1263 1263 125
Width: 505
VWidth: 999
Flags: HW
HStem: -1 29<108 140 140 174 251 285 285 318> 434 29<-16 5 5 41 123 167 291 313 313 334 371 410 410 436> 513 44<94 357>
VStem: 175 75<30 201>
DStem2: 131 404 48 403 0.534224 -0.845343<0 190.948> 235 244 250 205 0.505719 0.862698<0 185.084>
LayerCount: 2
Fore
SplineSet
341 513 m 2
 97 513 l 2
 88 513 84 521 84 528 c 0
 84 540 95 557 106 557 c 2
 351 557 l 2
 361 557 365 549 365 543 c 0
 365 531 354 513 341 513 c 2
276.8 187.6 m 1
 370 390 l 2
 388.9 431 366.3 428.9 337 432 c 2
 318 434 l 2
 314 434 312 437 312 441 c 2
 312 460 l 1
 313 462 l 1
 313 462 369 460 411 460 c 0
 443 460 491 462 491 462 c 1
 493 460 l 1
 493 441 l 2
 493 435 486 434.3 482 434 c 0
 436 431 429 420 411 381 c 2
 310 161 l 2
 259.2 50.4 208 -22 123 -22 c 0
 83 -22 39 0 39 31 c 0
 39 57 53 75 84 75 c 0
 97 75 118 68 128 56 c 0
 134 48 149 37 162 37 c 0
 187.2 37 210.1 54.6 237 103.9 c 1
 100 374 l 2
 88.9 395.9 70 431 22 434 c 0
 16 434.4 12 436 12 440 c 2
 12 460 l 1
 13 462 l 1
 13 462 76 460 117 460 c 0
 167 460 228 462 228 462 c 1
 230 460 l 1
 230 441 l 2
 230 436 228 434 223 434 c 2
 200 432 l 2
 167 429 165.8 414.9 178 390 c 2
 276.8 187.6 l 1
EndSplineSet
LCarets2: 1 0 
Colour: ff00ff
EndChar

StartChar: uni04F1
Encoding: 1265 1265 126
Width: 523
VWidth: 999
Flags: HW
HStem: -1 29<138 170 170 204 281 315 315 348> 434 29<14 35 35 71 153 197 321 343 343 364 401 440 440 466> 525 91<140 205 301 365>
VStem: 127 91<538 603> 205 75<30 201> 288 91<538 603>
DStem2: 161 404 78 403 0.534224 -0.845343<0 190.948> 265 244 280 205 0.505719 0.862698<0 185.084>
LayerCount: 2
Fore
SplineSet
276.8 187.6 m 1
 370 390 l 2
 388.9 431 366.3 428.9 337 432 c 2
 318 434 l 2
 314 434 312 437 312 441 c 2
 312 460 l 1
 313 462 l 1
 313 462 369 460 411 460 c 0
 443 460 491 462 491 462 c 1
 493 460 l 1
 493 441 l 2
 493 435 486 434.3 482 434 c 0
 436 431 429 420 411 381 c 2
 310 161 l 2
 259.2 50.4 208 -22 123 -22 c 0
 83 -22 39 0 39 31 c 0
 39 57 53 75 84 75 c 0
 97 75 118 68 128 56 c 0
 134 48 149 37 162 37 c 0
 187.2 37 210.1 54.6 237 103.9 c 1
 100 374 l 2
 88.9 395.9 70 431 22 434 c 0
 16 434.4 12 436 12 440 c 2
 12 460 l 1
 13 462 l 1
 13 462 76 460 117 460 c 0
 167 460 228 462 228 462 c 1
 230 460 l 1
 230 441 l 2
 230 436 228 434 223 434 c 2
 200 432 l 2
 167 429 165.8 414.9 178 390 c 2
 276.8 187.6 l 1
287 571 m 0
 287 596 308 616 333 616 c 0
 358 616 378 596 378 571 c 0
 378 546 358 525 333 525 c 0
 308 525 287 546 287 571 c 0
127 571 m 0
 127 596 147 616 172 616 c 0
 197 616 218 596 218 571 c 0
 218 546 197 525 172 525 c 0
 147 525 127 546 127 571 c 0
EndSplineSet
LCarets2: 1 0 
Colour: ff00ff
EndChar

StartChar: uni04F3
Encoding: 1267 1267 127
Width: 523
VWidth: 999
Flags: HW
HStem: -1 29<138 170 170 204 281 315 315 348> 434 29<14 35 35 71 153 197 321 343 343 364 401 440 440 466>
VStem: 205 75<30 201>
DStem2: 161 404 78 403 0.534224 -0.845343<0 190.948> 265 244 280 205 0.505719 0.862698<0 185.084>
LayerCount: 2
Fore
SplineSet
276.8 187.6 m 1
 370 390 l 2
 388.9 431 366.3 428.9 337 432 c 2
 318 434 l 2
 314 434 312 437 312 441 c 2
 312 460 l 1
 313 462 l 1
 313 462 369 460 411 460 c 0
 443 460 491 462 491 462 c 1
 493 460 l 1
 493 441 l 2
 493 435 486 434.3 482 434 c 0
 436 431 429 420 411 381 c 2
 310 161 l 2
 259.2 50.4 208 -22 123 -22 c 0
 83 -22 39 0 39 31 c 0
 39 57 53 75 84 75 c 0
 97 75 118 68 128 56 c 0
 134 48 149 37 162 37 c 0
 187.2 37 210.1 54.6 237 103.9 c 1
 100 374 l 2
 88.9 395.9 70 431 22 434 c 0
 16 434.4 12 436 12 440 c 2
 12 460 l 1
 13 462 l 1
 13 462 76 460 117 460 c 0
 167 460 228 462 228 462 c 1
 230 460 l 1
 230 441 l 2
 230 436 228 434 223 434 c 2
 200 432 l 2
 167 429 165.8 414.9 178 390 c 2
 276.8 187.6 l 1
440 674 m 0
 449 667 454 656 454 646 c 0
 454 640 453 633 447 627 c 2
 333 517 l 2
 331 515 329 515 327 515 c 0
 322 515 313 520 313 528 c 0
 313 529 313 531 314 532 c 2
 392 671 l 2
 397 680 404 683 416 683 c 0
 425 683 433 680 440 674 c 0
305 682 m 0
 316 675 322 664 322 652 c 0
 322 647 321 641 317 636 c 2
 215 515 l 2
 213 513 210 512 207 512 c 0
 201 512 193 517 193 525 c 0
 193 526 193 527 194 528 c 2
 258 674 l 2
 264 687 280 688 284 688 c 0
 292 688 298 686 305 682 c 0
EndSplineSet
LCarets2: 1 0 
Colour: ff00ff
EndChar

StartChar: uni1E00
Encoding: 7680 7680 128
Width: 695
VWidth: 999
Flags: HW
HStem: -215 27<295 376> -76 27<295 374> -1 29<4 4 4 76 136 217 217 217 438 439 439 518 615 686 686 687> 244 39<237 438> 648 10<351 365>
VStem: 250 32<-169 -94> 389 32<-169 -92>
DStem2: 95 81 140 72 0.392235 0.919865<9.08603 526.758> 390 628 339 550 0.353155 -0.935565<55.4419 565.088>
LayerCount: 2
Fore
SplineSet
263 283 m 2
 437 283 l 1
 340 550 l 1
 338 550 l 1
 237.8 296.3 l 2
 233.6 285.5 240.8 283 263 283 c 2
152 79 m 2
 142 53.6 154.5 31.6 192 29 c 2
 221 27 l 2
 225 26.7 229 24 229 19 c 2
 229 0 l 1
 227 -2 l 1
 227 -2 118 0 94 0 c 0
 68 0 4 -2 4 -2 c 1
 2 0 l 1
 2 19 l 2
 2 24 5 26.7 10 27 c 0
 53.5 30 79.2 37.8 107 102 c 2
 329.3 622.3 l 2
 340.3 648.1 348.3 658 363 658 c 0
 377 658 382.4 648.1 390 628 c 2
 595 86 l 2
 609 47 629.2 31.6 669 28 c 2
 680 27 l 2
 685 26.5 690 24 690 19 c 2
 690 0 l 1
 687 -2 l 1
 687 -2 610 0 571 0 c 0
 536 0 438 -2 438 -2 c 1
 437 0 l 1
 437 19 l 2
 437 24 439 26.6 444 27 c 2
 472 29 l 2
 509.8 31.7 524 44.3 514 72 c 2
 453 241 l 1
 245 241 l 2
 221 241 215.1 236.6 210 224 c 2
 152 79 l 2
336 -76 m 0
 305 -76 282 -102 282 -132 c 0
 282 -160 305 -188 336 -188 c 0
 367 -188 390 -160 390 -132 c 0
 390 -101 365 -76 336 -76 c 0
250 -132 m 0
 250 -86 289 -49 335 -49 c 0
 381 -49 421 -85 421 -132 c 0
 421 -177 383 -215 335 -215 c 0
 289 -215 250 -178 250 -132 c 0
EndSplineSet
LCarets2: 1 0 
Colour: ff00ff
EndChar

StartChar: uni1E01
Encoding: 7681 7681 129
Width: 538
VWidth: 999
Flags: HW
HStem: -207 27<239 320> -67 27<239 317> -1 29<4 4 4 34 121 166 166 167 343 343 343 406 483 537 537 537> 175 29<186 345> 464 10
VStem: 194 32<-160 -85> 333 32<-160 -84>
DStem2: 72 70 112 59 0.419429 0.907788<6.80342 375.15> 318 449 268 393 0.375987 -0.926625<33.1227 394.091>
LayerCount: 2
Fore
SplineSet
333 -123 m 0
 333 -92 308 -67 279 -67 c 0
 248 -67 225 -94 225 -123 c 0
 225 -152 248 -180 279 -180 c 0
 310 -180 333 -152 333 -123 c 0
194 -123 m 0
 194 -78 232 -40 279 -40 c 0
 325 -40 365 -77 365 -123 c 0
 365 -168 327 -207 279 -207 c 0
 233 -207 194 -170 194 -123 c 0
161 164 m 2
 117 59 l 2
 115 54 113 49 113 46 c 0
 113 33 129 30 154 28 c 2
 167 27 l 2
 170 27 173 24 173 21 c 2
 173 0 l 1
 171 -2 l 1
 171 -2 88 0 69 0 c 0
 49 0 4 -2 4 -2 c 1
 2 0 l 1
 2 21 l 2
 2 24 5 27 8 27 c 0
 33 30 55 34 72 70 c 2
 247 446 l 2
 256.9 467.4 271 472 280 472 c 0
 301 472 313 464 320 447 c 2
 466 76 l 2
 482 36 495 30 528 27 c 0
 535 26 536 24 536 21 c 2
 536 0 l 1
 533 -2 l 1
 533 -2 480 0 450 0 c 0
 422 0 338 -2 338 -2 c 1
 336 0 l 1
 336 21 l 2
 336 24 339 27 343 27 c 2
 361 29 l 2
 384 32 401 35 401 48 c 0
 401 51 400 55 399 59 c 2
 354 175 l 1
 183 175 l 2
 170 175 163 171 161 164 c 2
342 204 m 1
 265 401 l 1
 263 401 l 1
 186 218 l 1
 186 213 186 204 206 204 c 2
 342 204 l 1
EndSplineSet
LCarets2: 1 0 
Colour: ff00ff
EndChar

StartChar: uni1E02
Encoding: 7682 7682 130
Width: 582
VWidth: 999
Flags: HW
HStem: -1 29<19 103 190 371> 338 34<187 359> 618 29<19 103 190 355> 693 96<248 317>
VStem: 106 81<38 338 373 607> 235 96<707 775> 415 77<423 564> 462 89<107 264>
LayerCount: 2
Fore
SplineSet
187 569 m 2
 187 366 l 1
 261 366 l 2
 344 366 405 396 405 481 c 0
 405 583 330 612 274 612 c 0
 187 612 187 602 187 569 c 2
187 332 m 1
 187 78 l 2
 187 45 200 32 270 32 c 0
 422 32 452 92 452 165 c 0
 452 255 393 332 276 332 c 2
 187 332 l 1
17 19 m 2
 17 24 19 26.7 24 27 c 2
 54 29 l 2
 95.7 31.8 106 36 106 71 c 2
 106 574 l 2
 106 608 96.7 613.2 54 616 c 2
 24 618 l 2
 19 618.3 17 621 17 625 c 2
 17 645 l 1
 19 646 l 1
 19 646 96.5 645 146 645 c 0
 193.2 645 232 646 267 646 c 0
 453 646 482 560 482 493 c 0
 482 438 440 385 389 360 c 1
 476 335 541 280 541 184 c 0
 541 98 488 -2 289 -2 c 0
 200 -2 201.8 0 146 0 c 0
 96.5 0 19 -2 19 -2 c 1
 17 0 l 1
 17 19 l 2
235 741 m 0
 235 768 256 789 283 789 c 0
 309 789 331 768 331 741 c 0
 331 715 309 694 283 694 c 0
 256 694 235 715 235 741 c 0
EndSplineSet
LCarets2: 1 0 
Colour: ff00ff
EndChar

StartChar: uni1E03
Encoding: 7683 7683 131
Width: 487
VWidth: 999
Flags: HW
HStem: -1 29<32 100 179 332> 239 25<176 316> 434 29<32 94 177 317> 513 96<209 278>
VStem: 101 75<29 239 264 432> 196 96<527 595> 342 72<295 411> 372 82<62 197>
LayerCount: 2
Fore
SplineSet
196 561 m 0
 196 588 217 609 244 609 c 0
 270 609 292 588 292 561 c 0
 292 535 270 514 244 514 c 0
 217 514 196 535 196 561 c 0
178 402 m 2
 178 262 l 1
 246 262 l 2
 311 262 340 291 340 351 c 0
 340 424 288 433 244 433 c 0
 180 433 178 426 178 402 c 2
178 233 m 1
 178 72 l 2
 178 48 178 27 242 27 c 0
 344 27 360 88 360 132 c 0
 360 197 337 233 246 233 c 2
 178 233 l 1
32 21 m 2
 32 24 33 26.6 38 27 c 2
 61 29 l 2
 91.6 31.7 101 47 101 72 c 2
 101 402 l 2
 101 426 93 428.2 61 431 c 2
 38 433 l 2
 33 433.4 32 435 32 437 c 2
 32 462 l 1
 66 461 134 460 134 460 c 1
 134 460 217 462 245 462 c 0
 390 462 416 400 416 352 c 0
 416 313 384 268 344 250 c 1
 414 234 446 190 446 125 c 0
 446 63 379 -2 267 -2 c 0
 211 -2 164 0 134 0 c 0
 109 0 32 -2 32 -2 c 1
 32 21 l 2
EndSplineSet
LCarets2: 1 0 
Colour: ff00ff
EndChar

StartChar: uni1E04
Encoding: 7684 7684 132
Width: 582
VWidth: 999
Flags: HW
HStem: -163 96<236 304> -1 29<19 103 190 371> 338 34<187 359> 618 29<19 103 190 355>
VStem: 106 81<38 338 373 607> 222 96<-150 -81> 415 77<423 564> 462 89<107 264>
LayerCount: 2
Fore
SplineSet
187 569 m 2
 187 366 l 1
 261 366 l 2
 344 366 405 396 405 481 c 0
 405 583 330 612 274 612 c 0
 187 612 187 602 187 569 c 2
187 332 m 1
 187 78 l 2
 187 45 200 32 270 32 c 0
 422 32 452 92 452 165 c 0
 452 255 393 332 276 332 c 2
 187 332 l 1
17 19 m 2
 17 24 19 26.7 24 27 c 2
 54 29 l 2
 95.7 31.8 106 36 106 71 c 2
 106 574 l 2
 106 608 96.7 613.2 54 616 c 2
 24 618 l 2
 19 618.3 17 621 17 625 c 2
 17 645 l 1
 19 646 l 1
 19 646 96.5 645 146 645 c 0
 193.2 645 232 646 267 646 c 0
 453 646 482 560 482 493 c 0
 482 438 440 385 389 360 c 1
 476 335 541 280 541 184 c 0
 541 98 488 -2 289 -2 c 0
 200 -2 201.8 0 146 0 c 0
 96.5 0 19 -2 19 -2 c 1
 17 0 l 1
 17 19 l 2
222 -115 m 0
 222 -88 243 -67 270 -67 c 0
 296 -67 318 -88 318 -115 c 0
 318 -141 296 -162 270 -162 c 0
 243 -162 222 -141 222 -115 c 0
EndSplineSet
LCarets2: 1 0 
Colour: ff00ff
EndChar

StartChar: uni1E05
Encoding: 7685 7685 133
Width: 487
VWidth: 999
Flags: HW
HStem: -171 108<181 257> -1 29<32 100 179 332> 239 25<176 316> 434 29<32 94 177 317>
VStem: 101 75<29 239 264 432> 164 108<-155 -79> 342 72<295 411> 372 82<62 197>
LayerCount: 2
Fore
SplineSet
164 -117 m 0
 164 -84 190 -63 219 -63 c 0
 251 -63 273 -88 273 -117 c 0
 273 -149 248 -171 219 -171 c 0
 187 -171 164 -146 164 -117 c 0
178 402 m 2
 178 262 l 1
 246 262 l 2
 311 262 340 291 340 351 c 0
 340 424 288 433 244 433 c 0
 180 433 178 426 178 402 c 2
178 233 m 1
 178 72 l 2
 178 48 178 27 242 27 c 0
 344 27 360 88 360 132 c 0
 360 197 337 233 246 233 c 2
 178 233 l 1
32 21 m 2
 32 24 33 26.6 38 27 c 2
 61 29 l 2
 91.6 31.7 101 47 101 72 c 2
 101 402 l 2
 101 426 93 428.2 61 431 c 2
 38 433 l 2
 33 433.4 32 435 32 437 c 2
 32 462 l 1
 66 461 134 460 134 460 c 1
 134 460 217 462 245 462 c 0
 390 462 416 400 416 352 c 0
 416 313 384 268 344 250 c 1
 414 234 446 190 446 125 c 0
 446 63 379 -2 267 -2 c 0
 211 -2 164 0 134 0 c 0
 109 0 32 -2 32 -2 c 1
 32 21 l 2
EndSplineSet
LCarets2: 1 0 
Colour: ff00ff
EndChar

StartChar: uni1E06
Encoding: 7686 7686 134
Width: 582
VWidth: 999
Flags: HW
HStem: -106 44<146 409> -1 29<19 103 190 371> 338 34<187 359> 618 29<19 103 190 355>
VStem: 106 81<38 338 373 607> 415 77<423 564> 462 89<107 264>
LayerCount: 2
Fore
SplineSet
187 569 m 2
 187 366 l 1
 261 366 l 2
 344 366 405 396 405 481 c 0
 405 583 330 612 274 612 c 0
 187 612 187 602 187 569 c 2
187 332 m 1
 187 78 l 2
 187 45 200 32 270 32 c 0
 422 32 452 92 452 165 c 0
 452 255 393 332 276 332 c 2
 187 332 l 1
17 19 m 2
 17 24 19 26.7 24 27 c 2
 54 29 l 2
 95.7 31.8 106 36 106 71 c 2
 106 574 l 2
 106 608 96.7 613.2 54 616 c 2
 24 618 l 2
 19 618.3 17 621 17 625 c 2
 17 645 l 1
 19 646 l 1
 19 646 96.5 645 146 645 c 0
 193.2 645 232 646 267 646 c 0
 453 646 482 560 482 493 c 0
 482 438 440 385 389 360 c 1
 476 335 541 280 541 184 c 0
 541 98 488 -2 289 -2 c 0
 200 -2 201.8 0 146 0 c 0
 96.5 0 19 -2 19 -2 c 1
 17 0 l 1
 17 19 l 2
393 -106 m 2
 148 -106 l 2
 140 -106 136 -98 136 -91 c 0
 136 -79 146 -62 158 -62 c 2
 403 -62 l 2
 412 -62 416 -69 416 -76 c 0
 416 -88 406 -106 393 -106 c 2
EndSplineSet
LCarets2: 1 0 
Colour: ff00ff
EndChar

StartChar: uni1E07
Encoding: 7687 7687 135
Width: 487
VWidth: 999
Flags: HW
HStem: -109 44<116 379> -1 29<32 100 179 332> 239 25<176 316> 434 29<32 94 177 317>
VStem: 101 75<29 239 264 432> 342 72<295 411> 372 82<62 197>
LayerCount: 2
Fore
SplineSet
363 -110 m 2
 118 -110 l 2
 110 -110 106 -102 106 -95 c 0
 106 -83 116 -66 128 -66 c 2
 373 -66 l 2
 382 -66 386 -73 386 -80 c 0
 386 -92 376 -110 363 -110 c 2
178 402 m 2
 178 262 l 1
 246 262 l 2
 311 262 340 291 340 351 c 0
 340 424 288 433 244 433 c 0
 180 433 178 426 178 402 c 2
178 233 m 1
 178 72 l 2
 178 48 178 27 242 27 c 0
 344 27 360 88 360 132 c 0
 360 197 337 233 246 233 c 2
 178 233 l 1
32 21 m 2
 32 24 33 26.6 38 27 c 2
 61 29 l 2
 91.6 31.7 101 47 101 72 c 2
 101 402 l 2
 101 426 93 428.2 61 431 c 2
 38 433 l 2
 33 433.4 32 435 32 437 c 2
 32 462 l 1
 66 461 134 460 134 460 c 1
 134 460 217 462 245 462 c 0
 390 462 416 400 416 352 c 0
 416 313 384 268 344 250 c 1
 414 234 446 190 446 125 c 0
 446 63 379 -2 267 -2 c 0
 211 -2 164 0 134 0 c 0
 109 0 32 -2 32 -2 c 1
 32 21 l 2
EndSplineSet
LCarets2: 1 0 
Colour: ff00ff
EndChar

StartChar: uni1E08
Encoding: 7688 7688 136
Width: 644
VWidth: 999
Flags: HW
HStem: -186 25<307 379> -84 31<349 388> -12 42<263 464> 621 37<270 453>
VStem: 37 87<204 436> 400 53<-154 -92>
LayerCount: 2
Fore
SplineSet
358 -84 m 0
 339 -84 329 -85 313 -90 c 1
 307 -84 l 1
 340.3 -9.7 l 1
 135.3 -2.4 37 157.7 37 315 c 0
 37 512 190 658 356 658 c 0
 479 658 518 616 575 613 c 1
 579 559 587 510 597 458 c 1
 567 454 l 1
 541 540 483 621 345 621 c 0
 266 621 124 537 124 334 c 0
 124 188 199 31 354 31 c 0
 447 31 515 62 586 140 c 1
 609 125 l 1
 545.7 42.1 464.1 -3.4 374.9 -9.3 c 1
 356 -55 l 1
 364 -53 373 -52 382 -52 c 0
 422 -52 453 -76 453 -114 c 0
 453 -157 407 -185 346 -185 c 0
 314 -185 297 -179 272 -168 c 1
 282 -146 l 1
 309 -156 320 -160 340 -160 c 0
 370 -160 400 -146 400 -119 c 0
 400 -98 381 -84 358 -84 c 0
408 819 m 1
 470 767 l 1
 326 709 l 2
 305 700 292 697 283 697 c 0
 274 697 269 702 269 712 c 0
 269 719 271 724 284 733 c 2
 408 819 l 1
EndSplineSet
LCarets2: 1 0 
Colour: ff00ff
EndChar

StartChar: uni1E09
Encoding: 7689 7689 137
Width: 492
VWidth: 999
Flags: HW
HStem: -182 25<219 291> -80 31<261 300> -12 35<203 373> 445 29<197 362>
VStem: 37 80<128 331> 312 53<-150 -88> 422 26<325 372>
LayerCount: 2
Fore
SplineSet
286 663 m 1
 289 664 295 665 300 665 c 0
 328 665 341 654 349 647 c 0
 351 645 353 643 355 642 c 1
 358 631 l 1
 243 522 l 2
 228 507 221 502 214 502 c 0
 207 502 200 508 200 514 c 0
 200 520 200 527 206 537 c 2
 286 663 l 1
270 -80 m 0
 251 -80 241 -81 225 -86 c 1
 219 -80 l 1
 250 -10.8 l 1
 112.5 2 37 115.6 37 224 c 0
 37 370 139 474 271 474 c 0
 351 474 396 456 434 456 c 1
 435 411 440 369 446 328 c 1
 420 325 l 1
 408 395 364 445 277 445 c 0
 202 445 119 402 119 234 c 0
 119 135 160 22 281 22 c 0
 348 22 383 42 429 96 c 1
 449 80 l 1
 403.7 19.2 357.4 -9.9 284.2 -11.9 c 1
 268 -51 l 1
 276 -49 285 -48 294 -48 c 0
 334 -48 365 -72 365 -110 c 0
 365 -153 319 -181 258 -181 c 0
 226 -181 209 -175 184 -164 c 1
 194 -142 l 1
 221 -152 232 -156 252 -156 c 0
 282 -156 312 -142 312 -115 c 0
 312 -94 293 -80 270 -80 c 0
EndSplineSet
LCarets2: 1 0 
Colour: ff00ff
EndChar

StartChar: uni1E0A
Encoding: 7690 7690 138
Width: 697
VWidth: 999
Flags: HW
HStem: -1 29<19 24 24 104 206 431> 618 29<19 26 26 104 206 387> 698 96<262 331>
VStem: 106 81<39 605> 249 96<711 780> 562 92<179 419>
LayerCount: 2
Fore
SplineSet
17 18 m 2
 17 23 20 26.7 24 27 c 2
 54 29 l 2
 88.9 31.3 106 42 106 74 c 2
 106 572 l 2
 106 608 94.6 613.1 54 616 c 2
 26 618 l 2
 21 618.4 17 621 17 626 c 2
 17 645 l 1
 19 647 l 1
 68.1 646.2 95.9 645 145 645 c 0
 209.3 645 245 647 309 647 c 0
 501 647 654 494 654 308 c 0
 654 62 468 -2 327 -2 c 0
 224 -2 216 0 145 0 c 0
 95.9 0 63 0 19 -2 c 1
 17 0 l 1
 17 18 l 2
187 72 m 2
 187 40 198 32 296 32 c 0
 437 32 562 82 562 284 c 0
 562 438 487 612 271 612 c 0
 222 612 187 609 187 574 c 2
 187 72 l 2
248 745 m 0
 248 772 269 793 296 793 c 0
 322 793 344 772 344 745 c 0
 344 719 322 698 296 698 c 0
 269 698 248 719 248 745 c 0
EndSplineSet
LCarets2: 1 0 
Colour: ff00ff
EndChar

StartChar: uni1E0B
Encoding: 7691 7691 139
Width: 561
VWidth: 999
Flags: HW
HStem: -1 29<33 98 189 376> 434 29<33 100 192 345> 513 96<244 313>
VStem: 101 75<35 430> 230 96<527 595> 452 78<116 319>
LayerCount: 2
Fore
SplineSet
230 561 m 0
 230 588 251 609 278 609 c 0
 304 609 326 588 326 561 c 0
 326 535 304 514 278 514 c 0
 251 514 230 535 230 561 c 0
32 21 m 2
 32 24 34 26.7 38 27 c 2
 61 29 l 2
 90.6 31.6 101 41 101 72 c 2
 101 402 l 2
 101 428 93.8 428 61 431 c 2
 39 433 l 2
 35 433.4 32 435 32 438 c 2
 32 460 l 1
 33 462 l 1
 33 462 121 460 139 460 c 0
 158 460 245 462 271 462 c 0
 438 462 520 358 520 225 c 0
 520 50 396 -2 285 -2 c 0
 205 -2 170 0 139 0 c 0
 109 0 33 -2 33 -2 c 1
 32 0 l 1
 32 21 l 2
178 72 m 2
 178 44 185 27 261 27 c 0
 371 27 433 68 433 208 c 0
 433 312 410 433 242 433 c 0
 203 433 178 427 178 402 c 2
 178 72 l 2
EndSplineSet
LCarets2: 1 0 
Colour: ff00ff
EndChar

StartChar: uni1E0C
Encoding: 7692 7692 140
Width: 697
VWidth: 999
Flags: HW
HStem: -163 96<255 324> -1 29<19 24 24 104 206 431> 618 29<19 26 26 104 206 387>
VStem: 106 81<39 605> 242 96<-150 -81> 562 92<179 419>
LayerCount: 2
Fore
SplineSet
17 18 m 2
 17 23 20 26.7 24 27 c 2
 54 29 l 2
 88.9 31.3 106 42 106 74 c 2
 106 572 l 2
 106 608 94.6 613.1 54 616 c 2
 26 618 l 2
 21 618.4 17 621 17 626 c 2
 17 645 l 1
 19 647 l 1
 68.1 646.2 95.9 645 145 645 c 0
 209.3 645 245 647 309 647 c 0
 501 647 654 494 654 308 c 0
 654 62 468 -2 327 -2 c 0
 224 -2 216 0 145 0 c 0
 95.9 0 63 0 19 -2 c 1
 17 0 l 1
 17 18 l 2
187 72 m 2
 187 40 198 32 296 32 c 0
 437 32 562 82 562 284 c 0
 562 438 487 612 271 612 c 0
 222 612 187 609 187 574 c 2
 187 72 l 2
242 -115 m 0
 242 -88 263 -67 290 -67 c 0
 316 -67 338 -88 338 -115 c 0
 338 -141 316 -162 290 -162 c 0
 263 -162 242 -141 242 -115 c 0
EndSplineSet
LCarets2: 1 0 
Colour: ff00ff
EndChar

StartChar: uni1E0D
Encoding: 7693 7693 141
Width: 561
VWidth: 999
Flags: HW
HStem: -162 96<256 325> -1 29<33 98 189 376> 434 29<33 100 192 345>
VStem: 101 75<35 430> 243 96<-148 -79> 452 78<116 319>
LayerCount: 2
Fore
SplineSet
243 -114 m 0
 243 -87 264 -66 291 -66 c 0
 317 -66 339 -87 339 -114 c 0
 339 -140 317 -161 291 -161 c 0
 264 -161 243 -140 243 -114 c 0
32 21 m 2
 32 24 34 26.7 38 27 c 2
 61 29 l 2
 90.6 31.6 101 41 101 72 c 2
 101 402 l 2
 101 428 93.8 428 61 431 c 2
 39 433 l 2
 35 433.4 32 435 32 438 c 2
 32 460 l 1
 33 462 l 1
 33 462 121 460 139 460 c 0
 158 460 245 462 271 462 c 0
 438 462 520 358 520 225 c 0
 520 50 396 -2 285 -2 c 0
 205 -2 170 0 139 0 c 0
 109 0 33 -2 33 -2 c 1
 32 0 l 1
 32 21 l 2
178 72 m 2
 178 44 185 27 261 27 c 0
 371 27 433 68 433 208 c 0
 433 312 410 433 242 433 c 0
 203 433 178 427 178 402 c 2
 178 72 l 2
EndSplineSet
Colour: ff00ff
EndChar

StartChar: uni1E0E
Encoding: 7694 7694 142
Width: 697
VWidth: 999
Flags: HW
HStem: -105 44<153 416> -1 29<19 24 24 104 206 431> 618 29<19 26 26 104 206 387>
VStem: 106 81<39 605> 562 92<179 419>
LayerCount: 2
Fore
SplineSet
17 18 m 2
 17 23 20 26.7 24 27 c 2
 54 29 l 2
 88.9 31.3 106 42 106 74 c 2
 106 572 l 2
 106 608 94.6 613.1 54 616 c 2
 26 618 l 2
 21 618.4 17 621 17 626 c 2
 17 645 l 1
 19 647 l 1
 68.1 646.2 95.9 645 145 645 c 0
 209.3 645 245 647 309 647 c 0
 501 647 654 494 654 308 c 0
 654 62 468 -2 327 -2 c 0
 224 -2 216 0 145 0 c 0
 95.9 0 63 0 19 -2 c 1
 17 0 l 1
 17 18 l 2
187 72 m 2
 187 40 198 32 296 32 c 0
 437 32 562 82 562 284 c 0
 562 438 487 612 271 612 c 0
 222 612 187 609 187 574 c 2
 187 72 l 2
400 -105 m 2
 155 -105 l 2
 147 -105 143 -97 143 -90 c 0
 143 -78 153 -61 165 -61 c 2
 410 -61 l 2
 419 -61 423 -68 423 -75 c 0
 423 -87 413 -105 400 -105 c 2
EndSplineSet
LCarets2: 1 0 
Colour: ff00ff
EndChar

StartChar: uni1E0F
Encoding: 7695 7695 143
Width: 561
VWidth: 999
Flags: HW
HStem: -109 44<104 367> -1 29<33 98 189 376> 434 29<33 100 192 345>
VStem: 101 75<35 430> 452 78<116 319>
LayerCount: 2
Fore
SplineSet
351 -109 m 2
 106 -109 l 2
 98 -109 94 -101 94 -94 c 0
 94 -82 104 -65 116 -65 c 2
 361 -65 l 2
 370 -65 374 -72 374 -79 c 0
 374 -91 364 -109 351 -109 c 2
32 21 m 2
 32 24 34 26.7 38 27 c 2
 61 29 l 2
 90.6 31.6 101 41 101 72 c 2
 101 402 l 2
 101 428 93.8 428 61 431 c 2
 39 433 l 2
 35 433.4 32 435 32 438 c 2
 32 460 l 1
 33 462 l 1
 33 462 121 460 139 460 c 0
 158 460 245 462 271 462 c 0
 438 462 520 358 520 225 c 0
 520 50 396 -2 285 -2 c 0
 205 -2 170 0 139 0 c 0
 109 0 33 -2 33 -2 c 1
 32 0 l 1
 32 21 l 2
178 72 m 2
 178 44 185 27 261 27 c 0
 371 27 433 68 433 208 c 0
 433 312 410 433 242 433 c 0
 203 433 178 427 178 402 c 2
 178 72 l 2
EndSplineSet
LCarets2: 1 0 
Colour: ff00ff
EndChar

StartChar: uni1E10
Encoding: 7696 7696 144
Width: 697
VWidth: 999
Flags: HW
HStem: -182 25<124 196> -80 31<166 205> -1 29<19 24 24 104 206 431> 618 29<19 26 26 104 206 387>
VStem: 106 81<39 605> 217 53<-150 -88> 562 92<179 419>
LayerCount: 2
Fore
SplineSet
17 18 m 2
 17 23 20 26.7 24 27 c 2
 54 29 l 2
 88.9 31.3 106 42 106 74 c 2
 106 572 l 2
 106 608 94.6 613.1 54 616 c 2
 26 618 l 2
 21 618.4 17 621 17 626 c 2
 17 645 l 1
 19 647 l 1
 68.1 646.2 95.9 645 145 645 c 0
 209.3 645 245 647 309 647 c 0
 501 647 654 494 654 308 c 0
 654 62 468 -2 327 -2 c 0
 253.3 -2 228.2 -1 193.9 -0.4 c 1
 173 -51 l 1
 181 -49 190 -48 199 -48 c 0
 239 -48 270 -72 270 -110 c 0
 270 -153 224 -181 163 -181 c 0
 131 -181 114 -175 89 -164 c 1
 99 -142 l 1
 126 -152 137 -156 157 -156 c 0
 187 -156 217 -142 217 -115 c 0
 217 -94 198 -80 175 -80 c 0
 156 -80 146 -81 130 -86 c 1
 124 -80 l 1
 159.8 -0 l 1
 155.2 0 150.3 0 145 0 c 0
 95.9 0 63 0 19 -2 c 1
 17 0 l 1
 17 18 l 2
187 72 m 2
 187 40 198 32 296 32 c 0
 437 32 562 82 562 284 c 0
 562 438 487 612 271 612 c 0
 222 612 187 609 187 574 c 2
 187 72 l 2
EndSplineSet
LCarets2: 1 0 
Colour: ff00ff
EndChar

StartChar: uni1E11
Encoding: 7697 7697 145
Width: 561
VWidth: 999
Flags: HW
HStem: -177 25<171 242> -76 31<212 252> -1 29<33 98 189 376> 434 29<33 100 192 345>
VStem: 101 75<35 430> 263 53<-146 -84> 452 78<116 319>
LayerCount: 2
Fore
SplineSet
221 -76 m 0
 202 -76 192 -77 176 -82 c 1
 170 -76 l 1
 203.5 -1.2 l 1
 175.6 -0.6 156.7 0 139 0 c 0
 109 0 33 -2 33 -2 c 1
 32 0 l 1
 32 21 l 2
 32 24 34 26.7 38 27 c 2
 61 29 l 2
 90.6 31.6 101 41 101 72 c 2
 101 402 l 2
 101 428 93.8 428 61 431 c 2
 39 433 l 2
 35 433.4 32 435 32 438 c 2
 32 460 l 1
 33 462 l 1
 33 462 121 460 139 460 c 0
 158 460 245 462 271 462 c 0
 438 462 520 358 520 225 c 0
 520 50 396 -2 285 -2 c 0
 267.2 -2 251.5 -1.9 237.7 -1.7 c 1
 219 -47 l 1
 227 -45 236 -44 245 -44 c 0
 285 -44 316 -68 316 -106 c 0
 316 -149 270 -177 209 -177 c 0
 177 -177 160 -171 135 -160 c 1
 145 -138 l 1
 172 -148 183 -152 203 -152 c 0
 233 -152 263 -138 263 -111 c 0
 263 -90 244 -76 221 -76 c 0
178 72 m 2
 178 44 185 27 261 27 c 0
 371 27 433 68 433 208 c 0
 433 312 410 433 242 433 c 0
 203 433 178 427 178 402 c 2
 178 72 l 2
EndSplineSet
LCarets2: 1 0 
Colour: ff00ff
EndChar

StartChar: uni1E12
Encoding: 7698 7698 146
Width: 697
VWidth: 999
Flags: HW
HStem: -1 29<19 24 24 104 206 431> 618 29<19 26 26 104 206 387>
VStem: 106 81<39 605> 562 92<179 419>
LayerCount: 2
Fore
SplineSet
17 18 m 2
 17 23 20 26.7 24 27 c 2
 54 29 l 2
 88.9 31.3 106 42 106 74 c 2
 106 572 l 2
 106 608 94.6 613.1 54 616 c 2
 26 618 l 2
 21 618.4 17 621 17 626 c 2
 17 645 l 1
 19 647 l 1
 68.1 646.2 95.9 645 145 645 c 0
 209.3 645 245 647 309 647 c 0
 501 647 654 494 654 308 c 0
 654 62 468 -2 327 -2 c 0
 224 -2 216 0 145 0 c 0
 95.9 0 63 0 19 -2 c 1
 17 0 l 1
 17 18 l 2
187 72 m 2
 187 40 198 32 296 32 c 0
 437 32 562 82 562 284 c 0
 562 438 487 612 271 612 c 0
 222 612 187 609 187 574 c 2
 187 72 l 2
292 -57 m 1
 321 -104 357 -146 393 -186 c 1
 372 -200 l 1
 333 -171 300 -146 266 -110 c 1
 229 -148 197 -173 159 -200 c 1
 139 -186 l 1
 175 -146 213 -103 242 -57 c 1
 292 -57 l 1
EndSplineSet
LCarets2: 1 0 
Colour: ff00ff
EndChar

StartChar: uni1E13
Encoding: 7699 7699 147
Width: 561
VWidth: 999
Flags: HW
HStem: -1 29<33 98 189 376> 434 29<33 100 192 345>
VStem: 101 75<35 430> 452 78<116 319>
LayerCount: 2
Fore
SplineSet
241 -60 m 1
 270 -107 306 -149 342 -189 c 1
 321 -203 l 1
 282 -174 249 -149 215 -113 c 1
 178 -151 146 -176 108 -203 c 1
 88 -189 l 1
 124 -149 162 -106 191 -60 c 1
 241 -60 l 1
32 21 m 2
 32 24 34 26.7 38 27 c 2
 61 29 l 2
 90.6 31.6 101 41 101 72 c 2
 101 402 l 2
 101 428 93.8 428 61 431 c 2
 39 433 l 2
 35 433.4 32 435 32 438 c 2
 32 460 l 1
 33 462 l 1
 33 462 121 460 139 460 c 0
 158 460 245 462 271 462 c 0
 438 462 520 358 520 225 c 0
 520 50 396 -2 285 -2 c 0
 205 -2 170 0 139 0 c 0
 109 0 33 -2 33 -2 c 1
 32 0 l 1
 32 21 l 2
178 72 m 2
 178 44 185 27 261 27 c 0
 371 27 433 68 433 208 c 0
 433 312 410 433 242 433 c 0
 203 433 178 427 178 402 c 2
 178 72 l 2
EndSplineSet
LCarets2: 1 0 
Colour: ff00ff
EndChar

StartChar: uni1E14
Encoding: 7700 7700 148
Width: 549
VWidth: 999
Flags: HW
HStem: -1 29<14 98> 0 39<183 449> 327 34<182 361> 434 10<381 406> 606 39<183 418> 618 29<14 98> 733 44<173 436>
VStem: 102 81<41 327 361 605> 375 34<248 283 405 442>
LayerCount: 2
Fore
SplineSet
20.9 831.1 m 1
 114.1 757.2 l 2
 122.6 750.2 125.6 744.9 125.6 738.7 c 0
 125.6 729.9 121.8 725.5 114.1 725.5 c 0
 107.9 725.5 97.9 728.1 81 736 c 2
 -37.6 791.5 l 1
 20.9 831.1 l 1
445.3 646 m 0
 446.7 638.4 461.8 542 467 501 c 1
 438 496 l 1
 416 565 398 605 323 605 c 2
 218 605 l 2
 194 605 182 597 182 573 c 2
 182 361 l 1
 309 361 l 2
 344 361 355.6 374.6 359 403 c 2
 362 428 l 2
 362 432 365 436 369 436 c 2
 391 436 l 2
 394 436 395 434 395 432 c 2
 395 432 391 379 391 346 c 0
 391 312 395 255 395 255 c 1
 392 252 l 1
 369 252 l 2
 364 252 361 256 361 259 c 2
 359 285 l 2
 356.7 314.3 343 323 309 323 c 2
 182 323 l 1
 182 72 l 2
 182 45 196 39 218 39 c 2
 354 39 l 2
 430 39 469 98 489 170 c 1
 520 165 l 1
 508 113 493.5 49.5 483 -2 c 1
 483 -2 402.7 0 355 0 c 2
 142 0 l 1
 14 -2 l 1
 12 0 l 1
 12 20 l 2
 12 23 14 26.6 20 27 c 2
 50 29 l 2
 89.4 31.6 101 44 101 72 c 2
 101 573 l 2
 101 604 88.4 613.4 50 616 c 2
 20 618 l 2
 13 618.5 12 622 12 625 c 2
 12 645 l 1
 14 646 l 1
 14 646 115 645 142 645 c 2
 394.3 645 l 2
 418.5 645 423.8 645.6 441.3 649 c 0
 443.7 649 444.9 648.3 445.3 646 c 0
420 733 m 2
 176 733 l 2
 167 733 163 741 163 748 c 0
 163 760 174 777 185 777 c 2
 430 777 l 2
 440 777 444 769 444 763 c 0
 444 751 433 733 420 733 c 2
EndSplineSet
LCarets2: 1 0 
Colour: ff00ff
EndChar

StartChar: uni1E15
Encoding: 7701 7701 149
Width: 454
VWidth: 999
Flags: HW
HStem: -1 29<33 100 185 362> 230 32<176 299> 434 29<33 100 176 356> 509 44<130 393>
VStem: 101 75<30 230 262 432> 307 26<171 199> 395 25<339 380> 402 25<76 125>
LayerCount: 2
Fore
SplineSet
212.2 755.2 m 1
 268.2 641.8 l 2
 272.2 632.8 273 626.5 273 620.2 c 0
 273 615.7 267.4 610.3 261 610.3 c 0
 256.2 610.3 250.6 614.8 237.8 628.3 c 2
 146.6 726.4 l 1
 148.2 736.3 l 1
 154.6 741.7 173 757 200.2 757 c 0
 204.2 757 209 756.1 212.2 755.2 c 1
357 509 m 2
 113 509 l 2
 104 509 100 517 100 524 c 0
 100 536 111 553 122 553 c 2
 367 553 l 2
 377 553 381 545 381 539 c 0
 381 527 370 509 357 509 c 2
307 0 m 2
 132 0 l 2
 102 0 33 -2 33 -2 c 1
 32 0 l 1
 32 22 l 2
 32 24 33 26.6 38 27 c 2
 61 29 l 2
 91.6 31.7 101 52 101 72 c 2
 101 402 l 2
 101 425 89 428.6 61 431 c 2
 38 433 l 2
 32 433.5 32 436 32 437 c 2
 32 460 l 1
 33 462 l 1
 33 462 111 460 141 460 c 2
 288 460 l 2
 318 460 389 462 389 462 c 1
 391 460 l 1
 392 417 399 378 406 340 c 1
 381 336 l 1
 370 373 351 426 287 426 c 2
 207 426 l 2
 188 426 178 419 178 402 c 2
 178 257 l 1
 253 257 l 2
 281 257 288 269 292 289 c 1
 298 310 l 2
 298 313 300 315 304 315 c 2
 321 315 l 2
 323 315 323 314 323 312 c 0
 321 290 317 262 317 238 c 0
 317 213 321 192 323 169 c 1
 321 167 l 1
 304 167 l 2
 299 167 297 169 297 172 c 2
 292 194 l 2
 288 214 279 225 253 225 c 2
 178 225 l 1
 178 72 l 2
 178 53 189 34 207 34 c 2
 302 34 l 2
 353 34 381 66 393 118 c 1
 418 115 l 1
 398 0 l 1
 396 -2 l 1
 396 -2 337 0 307 0 c 2
EndSplineSet
LCarets2: 1 0 
Colour: ff00ff
EndChar

StartChar: uni1E16
Encoding: 7702 7702 150
Width: 549
VWidth: 999
Flags: HW
HStem: -1 29<14 98> 0 39<183 449> 327 34<182 361> 434 10<381 406> 606 39<183 418> 618 29<14 98> 733 44<117 380>
VStem: 102 81<41 327 361 605> 375 34<248 283 405 442>
LayerCount: 2
Fore
SplineSet
535.1 831.8 m 1
 582.8 786.1 l 1
 472 735 l 2
 455.8 727.1 445.8 724.5 438.9 724.5 c 0
 432 724.5 428.1 728.9 428.1 737.7 c 0
 428.1 743.9 429.6 748.3 439.6 756.2 c 2
 535.1 831.8 l 1
445.3 646 m 0
 446.7 638.4 461.8 542 467 501 c 1
 438 496 l 1
 416 565 398 605 323 605 c 2
 218 605 l 2
 194 605 182 597 182 573 c 2
 182 361 l 1
 309 361 l 2
 344 361 355.6 374.6 359 403 c 2
 362 428 l 2
 362 432 365 436 369 436 c 2
 391 436 l 2
 394 436 395 434 395 432 c 2
 395 432 391 379 391 346 c 0
 391 312 395 255 395 255 c 1
 392 252 l 1
 369 252 l 2
 364 252 361 256 361 259 c 2
 359 285 l 2
 356.7 314.3 343 323 309 323 c 2
 182 323 l 1
 182 72 l 2
 182 45 196 39 218 39 c 2
 354 39 l 2
 430 39 469 98 489 170 c 1
 520 165 l 1
 508 113 493.5 49.5 483 -2 c 1
 483 -2 402.7 0 355 0 c 2
 142 0 l 1
 14 -2 l 1
 12 0 l 1
 12 20 l 2
 12 23 14 26.6 20 27 c 2
 50 29 l 2
 89.4 31.6 101 44 101 72 c 2
 101 573 l 2
 101 604 88.4 613.4 50 616 c 2
 20 618 l 2
 13 618.5 12 622 12 625 c 2
 12 645 l 1
 14 646 l 1
 14 646 115 645 142 645 c 2
 394.3 645 l 2
 418.5 645 423.8 645.6 441.3 649 c 0
 443.7 649 444.9 648.3 445.3 646 c 0
363 733 m 2
 119 733 l 2
 110 733 106 741 106 748 c 0
 106 760 117 777 128 777 c 2
 373 777 l 2
 383 777 387 769 387 763 c 0
 387 751 376 733 363 733 c 2
EndSplineSet
LCarets2: 1 0 
Colour: ff00ff
EndChar

StartChar: uni1E17
Encoding: 7703 7703 151
Width: 454
VWidth: 999
Flags: HW
HStem: -1 29<33 100 185 362> 230 32<176 299> 434 29<33 100 176 356> 509 44<130 393>
VStem: 101 75<30 230 262 432> 307 26<171 199> 395 25<339 380> 402 25<76 125>
LayerCount: 2
Fore
SplineSet
264.4 750.2 m 1
 266.8 751.1 271.6 752 275.6 752 c 0
 298 752 308.4 742.1 314.8 735.8 c 0
 316.4 734 318 732.2 319.6 731.3 c 1
 322 721.4 l 1
 230 623.3 l 2
 218 609.8 212.4 605.3 206.8 605.3 c 0
 201.2 605.3 195.6 610.7 195.6 616.1 c 0
 195.6 621.5 195.6 627.8 200.4 636.8 c 2
 264.4 750.2 l 1
357 509 m 2
 113 509 l 2
 104 509 100 517 100 524 c 0
 100 536 111 553 122 553 c 2
 367 553 l 2
 377 553 381 545 381 539 c 0
 381 527 370 509 357 509 c 2
307 0 m 2
 132 0 l 2
 102 0 33 -2 33 -2 c 1
 32 0 l 1
 32 22 l 2
 32 24 33 26.6 38 27 c 2
 61 29 l 2
 91.6 31.7 101 52 101 72 c 2
 101 402 l 2
 101 425 89 428.6 61 431 c 2
 38 433 l 2
 32 433.5 32 436 32 437 c 2
 32 460 l 1
 33 462 l 1
 33 462 111 460 141 460 c 2
 288 460 l 2
 318 460 389 462 389 462 c 1
 391 460 l 1
 392 417 399 378 406 340 c 1
 381 336 l 1
 370 373 351 426 287 426 c 2
 207 426 l 2
 188 426 178 419 178 402 c 2
 178 257 l 1
 253 257 l 2
 281 257 288 269 292 289 c 1
 298 310 l 2
 298 313 300 315 304 315 c 2
 321 315 l 2
 323 315 323 314 323 312 c 0
 321 290 317 262 317 238 c 0
 317 213 321 192 323 169 c 1
 321 167 l 1
 304 167 l 2
 299 167 297 169 297 172 c 2
 292 194 l 2
 288 214 279 225 253 225 c 2
 178 225 l 1
 178 72 l 2
 178 53 189 34 207 34 c 2
 302 34 l 2
 353 34 381 66 393 118 c 1
 418 115 l 1
 398 0 l 1
 396 -2 l 1
 396 -2 337 0 307 0 c 2
EndSplineSet
LCarets2: 1 0 
Colour: ff00ff
EndChar

StartChar: uni1E18
Encoding: 7704 7704 152
Width: 549
VWidth: 999
Flags: HW
HStem: -1 29<14 98> 0 39<183 449> 327 34<182 361> 434 10<381 406> 606 39<183 418> 618 29<14 98>
VStem: 102 81<41 327 361 605> 375 34<248 283 405 442>
LayerCount: 2
Fore
SplineSet
445.3 646 m 0
 446.7 638.4 461.8 542 467 501 c 1
 438 496 l 1
 416 565 398 605 323 605 c 2
 218 605 l 2
 194 605 182 597 182 573 c 2
 182 361 l 1
 309 361 l 2
 344 361 355.6 374.6 359 403 c 2
 362 428 l 2
 362 432 365 436 369 436 c 2
 391 436 l 2
 394 436 395 434 395 432 c 2
 395 432 391 379 391 346 c 0
 391 312 395 255 395 255 c 1
 392 252 l 1
 369 252 l 2
 364 252 361 256 361 259 c 2
 359 285 l 2
 356.7 314.3 343 323 309 323 c 2
 182 323 l 1
 182 72 l 2
 182 45 196 39 218 39 c 2
 354 39 l 2
 430 39 469 98 489 170 c 1
 520 165 l 1
 508 113 493.5 49.5 483 -2 c 1
 483 -2 402.7 0 355 0 c 2
 142 0 l 1
 14 -2 l 1
 12 0 l 1
 12 20 l 2
 12 23 14 26.6 20 27 c 2
 50 29 l 2
 89.4 31.6 101 44 101 72 c 2
 101 573 l 2
 101 604 88.4 613.4 50 616 c 2
 20 618 l 2
 13 618.5 12 622 12 625 c 2
 12 645 l 1
 14 646 l 1
 14 646 115 645 142 645 c 2
 394.3 645 l 2
 418.5 645 423.8 645.6 441.3 649 c 0
 443.7 649 444.9 648.3 445.3 646 c 0
300 -57 m 1
 329 -104 365 -146 401 -186 c 1
 380 -200 l 1
 341 -171 308 -146 274 -110 c 1
 237 -148 205 -173 167 -200 c 1
 147 -186 l 1
 183 -146 221 -103 250 -57 c 1
 300 -57 l 1
EndSplineSet
LCarets2: 1 0 
Colour: ff00ff
EndChar

StartChar: uni1E19
Encoding: 7705 7705 153
Width: 454
VWidth: 999
Flags: HW
HStem: -1 29<33 100 185 362> 230 32<176 299> 434 29<33 100 176 356>
VStem: 101 75<30 230 262 432> 307 26<171 199> 395 25<339 380> 402 25<76 125>
LayerCount: 2
Fore
SplineSet
263 -64 m 1
 292 -111 328 -153 364 -193 c 1
 343 -207 l 1
 304 -178 271 -153 237 -117 c 1
 200 -155 168 -180 130 -207 c 1
 110 -193 l 1
 146 -153 184 -110 213 -64 c 1
 263 -64 l 1
307 0 m 2
 132 0 l 2
 102 0 33 -2 33 -2 c 1
 32 0 l 1
 32 22 l 2
 32 24 33 26.6 38 27 c 2
 61 29 l 2
 91.6 31.7 101 52 101 72 c 2
 101 402 l 2
 101 425 89 428.6 61 431 c 2
 38 433 l 2
 32 433.5 32 436 32 437 c 2
 32 460 l 1
 33 462 l 1
 33 462 111 460 141 460 c 2
 288 460 l 2
 318 460 389 462 389 462 c 1
 391 460 l 1
 392 417 399 378 406 340 c 1
 381 336 l 1
 370 373 351 426 287 426 c 2
 207 426 l 2
 188 426 178 419 178 402 c 2
 178 257 l 1
 253 257 l 2
 281 257 288 269 292 289 c 1
 298 310 l 2
 298 313 300 315 304 315 c 2
 321 315 l 2
 323 315 323 314 323 312 c 0
 321 290 317 262 317 238 c 0
 317 213 321 192 323 169 c 1
 321 167 l 1
 304 167 l 2
 299 167 297 169 297 172 c 2
 292 194 l 2
 288 214 279 225 253 225 c 2
 178 225 l 1
 178 72 l 2
 178 53 189 34 207 34 c 2
 302 34 l 2
 353 34 381 66 393 118 c 1
 418 115 l 1
 398 0 l 1
 396 -2 l 1
 396 -2 337 0 307 0 c 2
EndSplineSet
Colour: ff00ff
EndChar

StartChar: uni1E1A
Encoding: 7706 7706 154
Width: 549
VWidth: 999
Flags: HW
HStem: -164 44<312 364> -116 46<171 228> -1 29<14 98> 0 39<183 449> 327 34<182 361> 434 10<381 406> 606 39<183 418> 618 29<14 98>
VStem: 102 81<41 327 361 605> 133 277<-159 -74> 375 34<248 283 405 442>
LayerCount: 2
Fore
SplineSet
445.3 646 m 0
 446.7 638.4 461.8 542 467 501 c 1
 438 496 l 1
 416 565 398 605 323 605 c 2
 218 605 l 2
 194 605 182 597 182 573 c 2
 182 361 l 1
 309 361 l 2
 344 361 355.6 374.6 359 403 c 2
 362 428 l 2
 362 432 365 436 369 436 c 2
 391 436 l 2
 394 436 395 434 395 432 c 2
 395 432 391 379 391 346 c 0
 391 312 395 255 395 255 c 1
 392 252 l 1
 369 252 l 2
 364 252 361 256 361 259 c 2
 359 285 l 2
 356.7 314.3 343 323 309 323 c 2
 182 323 l 1
 182 72 l 2
 182 45 196 39 218 39 c 2
 354 39 l 2
 430 39 469 98 489 170 c 1
 520 165 l 1
 508 113 493.5 49.5 483 -2 c 1
 483 -2 402.7 0 355 0 c 2
 142 0 l 1
 14 -2 l 1
 12 0 l 1
 12 20 l 2
 12 23 14 26.6 20 27 c 2
 50 29 l 2
 89.4 31.6 101 44 101 72 c 2
 101 573 l 2
 101 604 88.4 613.4 50 616 c 2
 20 618 l 2
 13 618.5 12 622 12 625 c 2
 12 645 l 1
 14 646 l 1
 14 646 115 645 142 645 c 2
 394.3 645 l 2
 418.5 645 423.8 645.6 441.3 649 c 0
 443.7 649 444.9 648.3 445.3 646 c 0
336 -120 m 0
 358 -120 372 -110 386 -68 c 1
 410 -74 l 1
 398 -134 369 -164 323 -164 c 0
 301 -164 280 -152 259 -138 c 0
 241 -127 222 -116 205 -116 c 0
 179 -116 166 -131 156 -164 c 1
 132 -159 l 1
 146 -100 169 -70 212 -70 c 0
 242 -70 264 -84 284 -98 c 0
 300 -110 317 -120 336 -120 c 0
EndSplineSet
Colour: ff00ff
EndChar

StartChar: uni1E1B
Encoding: 7707 7707 155
Width: 454
VWidth: 999
Flags: HW
HStem: -159 44<275 328> -111 46<135 191> -1 29<33 100 185 362> 230 32<176 299> 434 29<33 100 176 356>
VStem: 96 277<-154 -69> 101 75<30 230 262 432> 307 26<171 199> 395 25<339 380> 402 25<76 125>
LayerCount: 2
Fore
SplineSet
300 -115 m 0
 322 -115 336 -105 350 -63 c 1
 374 -69 l 1
 362 -129 333 -159 287 -159 c 0
 265 -159 244 -147 223 -133 c 0
 205 -122 186 -111 169 -111 c 0
 143 -111 130 -126 120 -159 c 1
 96 -154 l 1
 110 -95 133 -65 176 -65 c 0
 206 -65 228 -79 248 -93 c 0
 264 -105 281 -115 300 -115 c 0
307 0 m 2
 132 0 l 2
 102 0 33 -2 33 -2 c 1
 32 0 l 1
 32 22 l 2
 32 24 33 26.6 38 27 c 2
 61 29 l 2
 91.6 31.7 101 52 101 72 c 2
 101 402 l 2
 101 425 89 428.6 61 431 c 2
 38 433 l 2
 32 433.5 32 436 32 437 c 2
 32 460 l 1
 33 462 l 1
 33 462 111 460 141 460 c 2
 288 460 l 2
 318 460 389 462 389 462 c 1
 391 460 l 1
 392 417 399 378 406 340 c 1
 381 336 l 1
 370 373 351 426 287 426 c 2
 207 426 l 2
 188 426 178 419 178 402 c 2
 178 257 l 1
 253 257 l 2
 281 257 288 269 292 289 c 1
 298 310 l 2
 298 313 300 315 304 315 c 2
 321 315 l 2
 323 315 323 314 323 312 c 0
 321 290 317 262 317 238 c 0
 317 213 321 192 323 169 c 1
 321 167 l 1
 304 167 l 2
 299 167 297 169 297 172 c 2
 292 194 l 2
 288 214 279 225 253 225 c 2
 178 225 l 1
 178 72 l 2
 178 53 189 34 207 34 c 2
 302 34 l 2
 353 34 381 66 393 118 c 1
 418 115 l 1
 398 0 l 1
 396 -2 l 1
 396 -2 337 0 307 0 c 2
EndSplineSet
Colour: ff00ff
EndChar

StartChar: uni1E1C
Encoding: 7708 7708 156
Width: 549
VWidth: 999
Flags: HW
HStem: -182 25<216 287> -80 31<257 296> -1 29<14 98> 0 39<183 449> 327 34<182 361> 434 10<381 406> 606 39<183 418> 618 29<14 98> 692 52<232 364> 795 10<165 192 408 435>
VStem: 102 81<41 327 361 605> 165 271<758 805 805 805> 308 53<-150 -88> 375 34<248 283 405 442>
LayerCount: 2
Fore
SplineSet
445.3 646 m 0
 446.7 638.4 461.8 542 467 501 c 1
 438 496 l 1
 416 565 398 605 323 605 c 2
 218 605 l 2
 194 605 182 597 182 573 c 2
 182 361 l 1
 309 361 l 2
 344 361 355.6 374.6 359 403 c 2
 362 428 l 2
 362 432 365 436 369 436 c 2
 391 436 l 2
 394 436 395 434 395 432 c 2
 395 432 391 379 391 346 c 0
 391 312 395 255 395 255 c 1
 392 252 l 1
 369 252 l 2
 364 252 361 256 361 259 c 2
 359 285 l 2
 356.7 314.3 343 323 309 323 c 2
 182 323 l 1
 182 72 l 2
 182 45 196 39 218 39 c 2
 354 39 l 2
 430 39 469 98 489 170 c 1
 520 165 l 1
 508 113 493.5 49.5 483 -2 c 1
 483 -2 402.7 0 355 0 c 2
 285.1 -0 l 1
 264 -51 l 1
 272 -49 281 -48 290 -48 c 0
 330 -48 361 -72 361 -110 c 0
 361 -153 315 -181 254 -181 c 0
 222 -181 205 -175 180 -164 c 1
 190 -142 l 1
 217 -152 228 -156 248 -156 c 0
 278 -156 308 -142 308 -115 c 0
 308 -94 289 -80 266 -80 c 0
 247 -80 237 -81 221 -86 c 1
 215 -80 l 1
 250.9 -0 l 1
 142 0 l 1
 14 -2 l 1
 12 0 l 1
 12 20 l 2
 12 23 14 26.6 20 27 c 2
 50 29 l 2
 89.4 31.6 101 44 101 72 c 2
 101 573 l 2
 101 604 88.4 613.4 50 616 c 2
 20 618 l 2
 13 618.5 12 622 12 625 c 2
 12 645 l 1
 14 646 l 1
 14 646 115 645 142 645 c 2
 394.3 645 l 2
 418.5 645 423.8 645.6 441.3 649 c 0
 443.7 649 444.9 648.3 445.3 646 c 0
435 805 m 1
 429 734 366 692 300 692 c 0
 227 692 169 735 164 805 c 1
 192 805 l 1
 200 766 247 744 300 744 c 0
 349 744 401 766 408 805 c 1
 435 805 l 1
EndSplineSet
LCarets2: 1 0 
Colour: ff00ff
EndChar

StartChar: uni1E1D
Encoding: 7709 7709 157
Width: 454
Flags: HW
HStem: -183 25<152.659 249.933> -82 32<222.31 259.165> -2 29<33 61> 0 34<182.797 354.792> 225 32<178 286.802> 426 34<178.729 338.551> 433 29<33 61> 501 57<150.968 287.898>
VStem: 85 26<607.805 639.769> 101 77<35.0744 225 257 425.576> 266 53<-148.949 -86.278> 298 25<167 194 289 314.548> 328 27<609.333 639.63> 381 25<338.88 369.481> 393 25<82.9375 115.84>
DStem2: 173 -82 222 -53 0.397156 0.917751<46.0754 95.3334>
LayerCount: 2
Fore
SplineSet
224 -82 m 0
 205 -82 195 -83 179 -88 c 1
 173 -82 l 1
 209.8 -0 l 1
 132 0 l 2
 102 0 33 -2 33 -2 c 1
 32 0 l 1
 32 22 l 2
 32 24 33 26.6 38 27 c 2
 61 29 l 2
 91.6 31.7 101 52 101 72 c 2
 101 402 l 2
 101 425 89 428.6 61 431 c 2
 38 433 l 2
 32 433.5 32 436 32 437 c 2
 32 460 l 1
 33 462 l 1
 33 462 111 460 141 460 c 2
 288 460 l 2
 318 460 389 462 389 462 c 1
 391 460 l 1
 392 417 399 378 406 340 c 1
 381 336 l 1
 370 373 351 426 287 426 c 2
 207 426 l 2
 188 426 178 419 178 402 c 2
 178 257 l 1
 253 257 l 2
 281 257 288 269 292 289 c 1
 298 310 l 2
 298 313 300 315 304 315 c 2
 321 315 l 2
 323 315 323 314 323 312 c 0
 321 290 317 262 317 238 c 0
 317 213 321 192 323 169 c 1
 321 167 l 1
 304 167 l 2
 299 167 297 169 297 172 c 2
 292 194 l 2
 288 214 279 225 253 225 c 2
 178 225 l 1
 178 72 l 2
 178 53 189 34 207 34 c 2
 302 34 l 2
 353 34 381 66 393 118 c 1
 418 115 l 1
 398 0 l 1
 396 -2 l 1
 396 -2 337 0 307 0 c 2
 243.9 -0 l 1
 222 -53 l 1
 230 -51 239 -50 248 -50 c 0
 288 -50 319 -74 319 -112 c 0
 319 -155 273 -183 212 -183 c 0
 180 -183 163 -177 138 -166 c 1
 148 -144 l 1
 175 -154 186 -158 206 -158 c 0
 236 -158 266 -144 266 -117 c 0
 266 -96 247 -82 224 -82 c 0
111 650 m 1
 113 598 160 558 220 558 c 0
 266 558 326 588 328 650 c 1
 355 636 l 1
 345 535 270 501 220 501 c 0
 143 501 92 558 85 636 c 1
 111 650 l 1
EndSplineSet
Colour: ff00ff
EndChar

StartChar: uni1E1E
Encoding: 7710 7710 158
Width: 477
VWidth: 999
Flags: HW
HStem: -1 29<15 95 186 270> 327 34<182 360> 434 10<380 406> 606 40<183 409> 618 29<16 99> 705 96<251 319>
VStem: 102 81<34 327 361 605> 237 96<718 787> 374 34<248 270 420 442>
LayerCount: 2
Fore
SplineSet
101 573 m 2
 101 604 88.4 613.4 50 616 c 2
 20 618 l 2
 13 618.5 12 622 12 625 c 2
 12 645 l 1
 14 646 l 1
 14 646 115 645 142 645 c 2
 394.3 645 l 2
 418.5 645 423.8 645.6 441.3 649 c 0
 443.7 649 444.9 648.3 445.3 646 c 0
 446.7 638.4 461.8 542 467 501 c 1
 438 496 l 1
 416 565 398 605 323 605 c 2
 218 605 l 2
 194 605 182 597 182 573 c 2
 182 361 l 1
 309 361 l 2
 344 361 355.6 374.6 359 403 c 2
 362 428 l 2
 362 432 365 436 369 436 c 2
 391 436 l 2
 394 436 395 434 395 432 c 2
 395 432 391 377 391 344 c 0
 391 310 395 255 395 255 c 1
 392 252 l 1
 369 252 l 2
 364 252 361 256 361 259 c 2
 359 285 l 2
 356.7 314.3 343 323 309 323 c 2
 182 323 l 1
 182 72 l 2
 182 41 197 27 237 27 c 2
 263 27 l 2
 268 27 271 24 271 19 c 2
 271 0 l 1
 270 -2 l 1
 270 -2 193.1 0 144 0 c 0
 93.7 0 15 -2 15 -2 c 1
 13 0 l 1
 13 19 l 2
 13 24 16 27 21 27 c 2
 47 27 l 2
 88 27 101 44 101 72 c 2
 101 573 l 2
237 752 m 0
 237 779 258 800 285 800 c 0
 311 800 333 779 333 752 c 0
 333 726 311 705 285 705 c 0
 258 705 237 726 237 752 c 0
EndSplineSet
LCarets2: 1 0 
Colour: ff00ff
EndChar

StartChar: uni1E1F
Encoding: 7711 7711 159
Width: 436
VWidth: 999
Flags: HW
HStem: 1 27<31 98 174 242> 230 32<173 303> 434 29<32 98 173 353> 513 96<199 268>
VStem: 99 75<30 230 262 432> 186 96<527 595>
LayerCount: 2
Fore
SplineSet
185 561 m 0
 185 588 206 609 233 609 c 0
 259 609 281 588 281 561 c 0
 281 535 259 514 233 514 c 0
 206 514 185 535 185 561 c 0
176 403 m 2
 176 242 l 1
 262 242 l 2
 289 242 296 254 301 274 c 2
 306 295 l 2
 307 298 309 301 312 301 c 2
 329 301 l 2
 331 301 332 300 332 298 c 2
 332 298 326 247 326 223 c 0
 326 198 332 154 332 154 c 1
 330 152 l 1
 312 152 l 2
 308 152 306 155 305 157 c 2
 301 179 l 1
 296 200 288 210 262 210 c 2
 176 210 l 1
 176 61 l 2
 176 39 189.6 32.2 218 29 c 2
 236 27 l 2
 240 26.6 243 24 243 21 c 2
 243 0 l 1
 242 -2 l 1
 242 -2 162 0 131 0 c 0
 104 0 31 -2 31 -2 c 1
 29 0 l 1
 29 21 l 2
 29 24 32 26.6 36 27 c 2
 56 29 l 2
 86.5 32 99 41 99 61 c 2
 99 402 l 2
 99 423 92.8 428.2 59 431 c 2
 35 433 l 2
 30 433.4 29 437 29 438 c 2
 29 461 l 1
 32 462 l 1
 32 462 103 460 133 460 c 2
 278 460 l 2
 308 460 368 462 368 462 c 1
 370 460 l 1
 371 419 372 380 378 342 c 1
 353 339 l 1
 345 375 326 426 277 426 c 2
 204 426 l 2
 185 426 176 420 176 403 c 2
EndSplineSet
LCarets2: 1 0 
Colour: ff00ff
EndChar

StartChar: uni1E20
Encoding: 7712 7712 160
Width: 693
VWidth: 999
Flags: HW
HStem: -12 37<292 497> 271 36<453 535 624 672> 621 37<269 472> 733 44<237 500>
VStem: 32 87<215 431> 540 81<97 266>
LayerCount: 2
Fore
SplineSet
375 658 m 0
 497 658 533 613 593 613 c 1
 600 541 606 501 615 459 c 1
 585 453 l 1
 559 539 506 621 361 621 c 0
 226 621 119 502 119 327 c 0
 119 195 215 26 393 26 c 0
 447 26 506 42 540 74 c 1
 540 227 l 2
 540 258 525.2 265.9 485 269 c 2
 459 271 l 2
 455 271.3 451 274 451 279 c 2
 451 305 l 1
 453 307 l 1
 453 307 540 305 579 305 c 0
 614 305 672 307 672 307 c 1
 674 305 l 1
 674 279 l 2
 674 274 671 271.5 666 271 c 0
 637 268 621 262.2 621 227 c 2
 621 111 l 2
 621 100 626 92 637 83 c 1
 569 25 488 -10 370 -10 c 0
 169 -10 32 134 32 307 c 0
 32 527 203 658 375 658 c 0
483 733 m 2
 239 733 l 2
 230 733 226 741 226 748 c 0
 226 760 237 777 248 777 c 2
 493 777 l 2
 503 777 507 769 507 763 c 0
 507 751 496 733 483 733 c 2
EndSplineSet
LCarets2: 1 0 
Colour: ff00ff
EndChar

StartChar: uni1E21
Encoding: 7713 7713 161
Width: 545
VWidth: 999
Flags: HW
HStem: -12 27<225 371> 193 26<330 396 473 512> 447 27<204 376> 513 44<161 424>
VStem: 38 78<139 328> 398 74<75 191>
LayerCount: 2
Fore
SplineSet
407 513 m 2
 163 513 l 2
 154 513 150 521 150 528 c 0
 150 540 161 557 172 557 c 2
 417 557 l 2
 427 557 431 549 431 543 c 0
 431 531 420 513 407 513 c 2
397 160 m 2
 397 182 382.7 188.1 354 191 c 2
 334 193 l 2
 331 193.3 328 195 328 199 c 2
 328 221 l 1
 329 222 l 1
 329 222 409 221 439 221 c 0
 467 221 514 222 514 222 c 1
 516 221 l 1
 516 199 l 2
 516 195 513.9 193.7 510 193 c 0
 486 189 474 184.8 474 160 c 2
 474 85 l 2
 474 78 481 69 488 62 c 1
 426 19 353 -10 285 -10 c 0
 142 -10 38 92 38 220 c 0
 38 379 151 470 298 470 c 0
 354 470 428 454 458 454 c 1
 459 407 464 366 471 326 c 1
 445 323 l 1
 432 391 389 441 285 441 c 0
 180 441 124 354 124 233 c 0
 124 151 178 19 303 19 c 0
 338 19 372 32 397 57 c 1
 397 160 l 2
EndSplineSet
LCarets2: 1 0 
Colour: ff00ff
EndChar

StartChar: uni1E22
Encoding: 7714 7714 162
Width: 700
VWidth: 999
Flags: HW
HStem: -1 29<20 100 192 274 427 507 600 682> 324 39<187 514> 618 29<19 101 193 274 426 508 601 681> 698 96<320 388>
VStem: 106 81<34 324 363 612> 306 96<711 780> 514 81<34 324 363 612>
LayerCount: 2
Fore
SplineSet
306 745 m 0
 306 772 327 793 354 793 c 0
 380 793 402 772 402 745 c 0
 402 719 380 698 354 698 c 0
 327 698 306 719 306 745 c 0
513 74 m 2
 513 321 l 1
 187 321 l 1
 187 72 l 2
 187 41 202.3 32.1 242 29 c 2
 268 27 l 2
 272 26.7 276 24 276 19 c 2
 276 0 l 1
 274 -2 l 1
 274 -2 188 0 148 0 c 0
 113 0 20 -2 20 -2 c 1
 18 0 l 1
 18 19 l 2
 18 24 21 26.7 25 27 c 2
 52 29 l 2
 92.8 32 106 44 106 72 c 2
 106 574 l 2
 106 604 89.8 613.2 52 616 c 2
 25 618 l 2
 21 618.3 17 621 17 626 c 2
 17 645 l 1
 19 647 l 1
 19 647 106 645 145 645 c 0
 181 645 274 647 274 647 c 1
 276 645 l 1
 276 626 l 2
 276 621 273 618.4 268 618 c 2
 242 616 l 2
 201.8 612.9 187 602 187 574 c 2
 187 363 l 1
 513 363 l 1
 513 574 l 2
 513 604 498.3 613 459 616 c 2
 433 618 l 2
 428 618.4 424 621 424 626 c 2
 424 645 l 1
 426 647 l 1
 426 647 513 645 552 645 c 0
 588 645 681 647 681 647 c 1
 683 645 l 1
 683 626 l 2
 683 621 680 618.4 675 618 c 2
 649 616 l 2
 608.7 612.9 594 602 594 574 c 2
 594 74 l 2
 594 43 608.4 32.1 649 29 c 2
 675 27 l 2
 680 26.6 684 24 684 19 c 2
 684 0 l 1
 682 -2 l 1
 682 -2 595 0 556 0 c 0
 520 0 427 -2 427 -2 c 1
 425 0 l 1
 425 19 l 2
 425 24 428 26.6 433 27 c 2
 459 29 l 2
 502 32.3 513 46 513 74 c 2
EndSplineSet
LCarets2: 1 0 
Colour: ff00ff
EndChar

StartChar: uni1E23
Encoding: 7715 7715 163
Width: 590
VWidth: 999
Flags: HW
HStem: 1 27<34 101 177 244 352 418 495 562> 234 32<176 419> 434 27<34 92 92 93 93 101 177 244 351 419 495 562> 513 96<257 326>
VStem: 102 75<30 234 266 431> 244 96<527 595> 419 74<30 234 266 431>
LayerCount: 2
Fore
SplineSet
244 561 m 0
 244 588 265 609 292 609 c 0
 318 609 340 588 340 561 c 0
 340 535 318 514 292 514 c 0
 265 514 244 535 244 561 c 0
412 61 m 2
 412 220 l 1
 179 220 l 1
 179 61 l 2
 179 39 190.5 31.9 221 29 c 2
 242 27 l 2
 245 26.7 248 24 248 21 c 2
 248 0 l 1
 247 -2 l 1
 247 -2 170 0 140 0 c 0
 112 0 34 -2 34 -2 c 1
 32 0 l 1
 32 21 l 2
 32 24 35 26.6 39 27 c 2
 59 29 l 2
 93.5 32.4 102 41 102 61 c 2
 102 402 l 2
 102 424 91 427.8 59 431 c 2
 39 433 l 2
 35 433.4 32 435 32 439 c 2
 32 460 l 1
 34 462 l 1
 34 462 109 460 140 460 c 0
 167 460 247 462 247 462 c 1
 248 460 l 1
 248 439 l 2
 248 435 246 433.4 242 433 c 2
 221 431 l 2
 191.2 428.2 179 422 179 402 c 2
 179 251 l 1
 412 251 l 1
 412 402 l 2
 412 424 399 428 369 431 c 2
 349 433 l 2
 345 433.4 342 435 342 439 c 2
 342 460 l 1
 344 462 l 1
 344 462 418 460 449 460 c 0
 477 460 557 462 557 462 c 1
 558 460 l 1
 558 439 l 2
 558 435 556 433.4 552 433 c 2
 532 431 l 2
 499.2 427.7 489 422 489 402 c 2
 489 61 l 2
 489 39 499.5 32.2 532 29 c 2
 552 27 l 2
 556 26.6 559 24 559 21 c 2
 559 0 l 1
 557 -2 l 1
 557 -2 478 0 448 0 c 0
 420 0 344 -2 344 -2 c 1
 343 0 l 1
 343 21 l 2
 343 24 345 26.6 349 27 c 2
 369 29 l 2
 399.5 32 412 41 412 61 c 2
EndSplineSet
LCarets2: 1 0 
Colour: ff00ff
EndChar

StartChar: uni1E24
Encoding: 7716 7716 164
Width: 700
VWidth: 999
Flags: HW
HStem: -163 96<319 388> -1 29<20 100 192 274 427 507 600 682> 324 39<187 514> 618 29<19 101 193 274 426 508 601 681>
VStem: 106 81<34 324 363 612> 306 96<-150 -81> 514 81<34 324 363 612>
LayerCount: 2
Fore
SplineSet
306 -115 m 0
 306 -88 327 -67 354 -67 c 0
 380 -67 402 -88 402 -115 c 0
 402 -141 380 -162 354 -162 c 0
 327 -162 306 -141 306 -115 c 0
513 74 m 2
 513 321 l 1
 187 321 l 1
 187 72 l 2
 187 41 202.3 32.1 242 29 c 2
 268 27 l 2
 272 26.7 276 24 276 19 c 2
 276 0 l 1
 274 -2 l 1
 274 -2 188 0 148 0 c 0
 113 0 20 -2 20 -2 c 1
 18 0 l 1
 18 19 l 2
 18 24 21 26.7 25 27 c 2
 52 29 l 2
 92.8 32 106 44 106 72 c 2
 106 574 l 2
 106 604 89.8 613.2 52 616 c 2
 25 618 l 2
 21 618.3 17 621 17 626 c 2
 17 645 l 1
 19 647 l 1
 19 647 106 645 145 645 c 0
 181 645 274 647 274 647 c 1
 276 645 l 1
 276 626 l 2
 276 621 273 618.4 268 618 c 2
 242 616 l 2
 201.8 612.9 187 602 187 574 c 2
 187 363 l 1
 513 363 l 1
 513 574 l 2
 513 604 498.3 613 459 616 c 2
 433 618 l 2
 428 618.4 424 621 424 626 c 2
 424 645 l 1
 426 647 l 1
 426 647 513 645 552 645 c 0
 588 645 681 647 681 647 c 1
 683 645 l 1
 683 626 l 2
 683 621 680 618.4 675 618 c 2
 649 616 l 2
 608.7 612.9 594 602 594 574 c 2
 594 74 l 2
 594 43 608.4 32.1 649 29 c 2
 675 27 l 2
 680 26.6 684 24 684 19 c 2
 684 0 l 1
 682 -2 l 1
 682 -2 595 0 556 0 c 0
 520 0 427 -2 427 -2 c 1
 425 0 l 1
 425 19 l 2
 425 24 428 26.6 433 27 c 2
 459 29 l 2
 502 32.3 513 46 513 74 c 2
EndSplineSet
Colour: ff00ff
EndChar

StartChar: uni1E25
Encoding: 7717 7717 165
Width: 590
VWidth: 999
Flags: HW
HStem: -157 96<245 313> 1 27<34 101 177 244 352 418 495 562> 234 32<176 419> 434 27<34 92 92 93 93 101 177 244 351 419 495 562>
VStem: 102 75<30 234 266 431> 231 96<-143 -75> 419 74<30 234 266 431>
LayerCount: 2
Fore
SplineSet
231 -109 m 0
 231 -82 252 -61 279 -61 c 0
 305 -61 327 -82 327 -109 c 0
 327 -135 305 -156 279 -156 c 0
 252 -156 231 -135 231 -109 c 0
412 61 m 2
 412 220 l 1
 179 220 l 1
 179 61 l 2
 179 39 190.5 31.9 221 29 c 2
 242 27 l 2
 245 26.7 248 24 248 21 c 2
 248 0 l 1
 247 -2 l 1
 247 -2 170 0 140 0 c 0
 112 0 34 -2 34 -2 c 1
 32 0 l 1
 32 21 l 2
 32 24 35 26.6 39 27 c 2
 59 29 l 2
 93.5 32.4 102 41 102 61 c 2
 102 402 l 2
 102 424 91 427.8 59 431 c 2
 39 433 l 2
 35 433.4 32 435 32 439 c 2
 32 460 l 1
 34 462 l 1
 34 462 109 460 140 460 c 0
 167 460 247 462 247 462 c 1
 248 460 l 1
 248 439 l 2
 248 435 246 433.4 242 433 c 2
 221 431 l 2
 191.2 428.2 179 422 179 402 c 2
 179 251 l 1
 412 251 l 1
 412 402 l 2
 412 424 399 428 369 431 c 2
 349 433 l 2
 345 433.4 342 435 342 439 c 2
 342 460 l 1
 344 462 l 1
 344 462 418 460 449 460 c 0
 477 460 557 462 557 462 c 1
 558 460 l 1
 558 439 l 2
 558 435 556 433.4 552 433 c 2
 532 431 l 2
 499.2 427.7 489 422 489 402 c 2
 489 61 l 2
 489 39 499.5 32.2 532 29 c 2
 552 27 l 2
 556 26.6 559 24 559 21 c 2
 559 0 l 1
 557 -2 l 1
 557 -2 478 0 448 0 c 0
 420 0 344 -2 344 -2 c 1
 343 0 l 1
 343 21 l 2
 343 24 345 26.6 349 27 c 2
 369 29 l 2
 399.5 32 412 41 412 61 c 2
EndSplineSet
Colour: ff00ff
EndChar

StartChar: uni1E26
Encoding: 7718 7718 166
Width: 700
VWidth: 999
Flags: HW
HStem: -1 29<20 100 192 274 427 507 600 682> 324 39<187 514> 618 29<19 101 193 274 426 508 601 681> 704 91<223 288 412 477>
VStem: 106 81<34 324 363 612> 210 91<717 781> 399 91<717 782> 514 81<34 324 363 612>
LayerCount: 2
Fore
SplineSet
399 750 m 0
 399 774 420 795 444 795 c 0
 469 795 490 774 490 750 c 0
 490 725 469 704 444 704 c 0
 420 704 399 725 399 750 c 0
210 749 m 0
 210 774 230 794 255 794 c 0
 280 794 300 774 300 749 c 0
 300 724 280 704 255 704 c 0
 230 704 210 724 210 749 c 0
513 74 m 2
 513 321 l 1
 187 321 l 1
 187 72 l 2
 187 41 202.3 32.1 242 29 c 2
 268 27 l 2
 272 26.7 276 24 276 19 c 2
 276 0 l 1
 274 -2 l 1
 274 -2 188 0 148 0 c 0
 113 0 20 -2 20 -2 c 1
 18 0 l 1
 18 19 l 2
 18 24 21 26.7 25 27 c 2
 52 29 l 2
 92.8 32 106 44 106 72 c 2
 106 574 l 2
 106 604 89.8 613.2 52 616 c 2
 25 618 l 2
 21 618.3 17 621 17 626 c 2
 17 645 l 1
 19 647 l 1
 19 647 106 645 145 645 c 0
 181 645 274 647 274 647 c 1
 276 645 l 1
 276 626 l 2
 276 621 273 618.4 268 618 c 2
 242 616 l 2
 201.8 612.9 187 602 187 574 c 2
 187 363 l 1
 513 363 l 1
 513 574 l 2
 513 604 498.3 613 459 616 c 2
 433 618 l 2
 428 618.4 424 621 424 626 c 2
 424 645 l 1
 426 647 l 1
 426 647 513 645 552 645 c 0
 588 645 681 647 681 647 c 1
 683 645 l 1
 683 626 l 2
 683 621 680 618.4 675 618 c 2
 649 616 l 2
 608.7 612.9 594 602 594 574 c 2
 594 74 l 2
 594 43 608.4 32.1 649 29 c 2
 675 27 l 2
 680 26.6 684 24 684 19 c 2
 684 0 l 1
 682 -2 l 1
 682 -2 595 0 556 0 c 0
 520 0 427 -2 427 -2 c 1
 425 0 l 1
 425 19 l 2
 425 24 428 26.6 433 27 c 2
 459 29 l 2
 502 32.3 513 46 513 74 c 2
EndSplineSet
LCarets2: 1 0 
Colour: ff00ff
EndChar

StartChar: uni1E27
Encoding: 7719 7719 167
Width: 590
VWidth: 999
Flags: HW
HStem: 1 27<34 101 177 244 352 418 495 562> 234 32<176 419> 434 27<34 92 92 93 93 101 177 244 351 419 495 562> 515 91<182 247 343 408>
VStem: 102 75<30 234 266 431> 169 91<528 592> 330 91<528 592> 419 74<30 234 266 431>
LayerCount: 2
Fore
SplineSet
330 560 m 0
 330 585 351 605 376 605 c 0
 401 605 421 585 421 560 c 0
 421 535 401 514 376 514 c 0
 351 514 330 535 330 560 c 0
170 560 m 0
 170 585 190 605 215 605 c 0
 240 605 261 585 261 560 c 0
 261 535 240 514 215 514 c 0
 190 514 170 535 170 560 c 0
412 61 m 2
 412 220 l 1
 179 220 l 1
 179 61 l 2
 179 39 190.5 31.9 221 29 c 2
 242 27 l 2
 245 26.7 248 24 248 21 c 2
 248 0 l 1
 247 -2 l 1
 247 -2 170 0 140 0 c 0
 112 0 34 -2 34 -2 c 1
 32 0 l 1
 32 21 l 2
 32 24 35 26.6 39 27 c 2
 59 29 l 2
 93.5 32.4 102 41 102 61 c 2
 102 402 l 2
 102 424 91 427.8 59 431 c 2
 39 433 l 2
 35 433.4 32 435 32 439 c 2
 32 460 l 1
 34 462 l 1
 34 462 109 460 140 460 c 0
 167 460 247 462 247 462 c 1
 248 460 l 1
 248 439 l 2
 248 435 246 433.4 242 433 c 2
 221 431 l 2
 191.2 428.2 179 422 179 402 c 2
 179 251 l 1
 412 251 l 1
 412 402 l 2
 412 424 399 428 369 431 c 2
 349 433 l 2
 345 433.4 342 435 342 439 c 2
 342 460 l 1
 344 462 l 1
 344 462 418 460 449 460 c 0
 477 460 557 462 557 462 c 1
 558 460 l 1
 558 439 l 2
 558 435 556 433.4 552 433 c 2
 532 431 l 2
 499.2 427.7 489 422 489 402 c 2
 489 61 l 2
 489 39 499.5 32.2 532 29 c 2
 552 27 l 2
 556 26.6 559 24 559 21 c 2
 559 0 l 1
 557 -2 l 1
 557 -2 478 0 448 0 c 0
 420 0 344 -2 344 -2 c 1
 343 0 l 1
 343 21 l 2
 343 24 345 26.6 349 27 c 2
 369 29 l 2
 399.5 32 412 41 412 61 c 2
EndSplineSet
LCarets2: 1 0 
Colour: ff00ff
EndChar

StartChar: uni1E28
Encoding: 7720 7720 168
Width: 700
VWidth: 999
Flags: HW
HStem: -177 25<105 177> -75 31<147 186> -1 29<20 100 192 274 427 507 600 682> 324 39<187 514> 618 29<19 101 193 274 426 508 601 681>
VStem: 106 81<34 324 363 612> 197 53<-146 -83> 514 81<34 324 363 612>
LayerCount: 2
Fore
SplineSet
155 -76 m 0
 136 -76 126 -77 110 -82 c 1
 104 -76 l 1
 138.1 -0 l 1
 98.1 -0.3 20 -2 20 -2 c 2
 18 0 l 1
 18 19 l 2
 18 24 21 26.7 25 27 c 2
 52 29 l 2
 92.8 32 106 44 106 72 c 2
 106 574 l 2
 106 604 89.8 613.2 52 616 c 2
 25 618 l 2
 21 618.3 17 621 17 626 c 2
 17 645 l 1
 19 647 l 1
 19 647 106 645 145 645 c 0
 181 645 274 647 274 647 c 1
 276 645 l 1
 276 626 l 2
 276 621 273 618.4 268 618 c 2
 242 616 l 2
 201.8 612.9 187 602 187 574 c 2
 187 363 l 1
 513 363 l 1
 513 574 l 2
 513 604 498.3 613 459 616 c 2
 433 618 l 2
 428 618.4 424 621 424 626 c 2
 424 645 l 1
 426 647 l 1
 426 647 513 645 552 645 c 0
 588 645 681 647 681 647 c 1
 683 645 l 1
 683 626 l 2
 683 621 680 618.4 675 618 c 2
 649 616 l 2
 608.7 612.9 594 602 594 574 c 2
 594 74 l 2
 594 43 608.4 32.1 649 29 c 2
 675 27 l 2
 680 26.6 684 24 684 19 c 2
 684 0 l 1
 682 -2 l 1
 682 -2 595 0 556 0 c 0
 520 0 427 -2 427 -2 c 1
 425 0 l 1
 425 19 l 2
 425 24 428 26.6 433 27 c 2
 459 29 l 2
 502 32.3 513 46 513 74 c 2
 513 321 l 1
 187 321 l 1
 187 72 l 2
 187 41 202.3 32.1 242 29 c 2
 268 27 l 2
 272 26.7 276 24 276 19 c 2
 276 0 l 1
 274 -2 l 1
 274 -2 215.4 -0.7 172.4 -0.2 c 1
 153 -47 l 1
 161 -45 170 -44 179 -44 c 0
 219 -44 250 -68 250 -106 c 0
 250 -149 204 -177 143 -177 c 0
 111 -177 94 -171 69 -160 c 1
 79 -138 l 1
 106 -148 117 -152 137 -152 c 0
 167 -152 197 -138 197 -111 c 0
 197 -90 178 -76 155 -76 c 0
EndSplineSet
LCarets2: 1 0 
Colour: ff00ff
EndChar

StartChar: uni1E29
Encoding: 7721 7721 169
Width: 590
VWidth: 999
Flags: HW
HStem: -172 25<140 212> -71 31<182 221> 1 27<34 101 177 244 352 418 495 562> 234 32<176 419> 434 27<34 92 92 93 93 101 177 244 351 419 495 562>
VStem: 102 75<30 234 266 431> 232 53<-141 -79> 419 74<30 234 266 431>
LayerCount: 2
Fore
SplineSet
190 -71 m 0
 171 -71 161 -72 145 -77 c 1
 139 -71 l 1
 170.7 -0.3 l 1
 158.8 -0.1 147.8 0 140 0 c 0
 112 0 34 -2 34 -2 c 1
 32 0 l 1
 32 21 l 2
 32 24 35 26.6 39 27 c 2
 59 29 l 2
 93.5 32.4 102 41 102 61 c 2
 102 402 l 2
 102 424 91 427.8 59 431 c 2
 39 433 l 2
 35 433.4 32 435 32 439 c 2
 32 460 l 1
 34 462 l 1
 34 462 109 460 140 460 c 0
 167 460 247 462 247 462 c 1
 248 460 l 1
 248 439 l 2
 248 435 246 433.4 242 433 c 2
 221 431 l 2
 191.2 428.2 179 422 179 402 c 2
 179 251 l 1
 412 251 l 1
 412 402 l 2
 412 424 399 428 369 431 c 2
 349 433 l 2
 345 433.4 342 435 342 439 c 2
 342 460 l 1
 344 462 l 1
 344 462 418 460 449 460 c 0
 477 460 557 462 557 462 c 1
 558 460 l 1
 558 439 l 2
 558 435 556 433.4 552 433 c 2
 532 431 l 2
 499.2 427.7 489 422 489 402 c 2
 489 61 l 2
 489 39 499.5 32.2 532 29 c 2
 552 27 l 2
 556 26.6 559 24 559 21 c 2
 559 0 l 1
 557 -2 l 1
 557 -2 478 0 448 0 c 0
 420 0 344 -2 344 -2 c 1
 343 0 l 1
 343 21 l 2
 343 24 345 26.6 349 27 c 2
 369 29 l 2
 399.5 32 412 41 412 61 c 2
 412 220 l 1
 179 220 l 1
 179 61 l 2
 179 39 190.5 31.9 221 29 c 2
 242 27 l 2
 245 26.7 248 24 248 21 c 2
 248 0 l 1
 247 -2 l 1
 247 -2 227.9 -1.5 205 -1 c 1
 188 -42 l 1
 196 -40 205 -39 214 -39 c 0
 254 -39 285 -63 285 -101 c 0
 285 -144 239 -172 178 -172 c 0
 146 -172 129 -166 104 -155 c 1
 114 -133 l 1
 141 -143 152 -147 172 -147 c 0
 202 -147 232 -133 232 -106 c 0
 232 -85 213 -71 190 -71 c 0
EndSplineSet
LCarets2: 1 0 
Colour: ff00ff
EndChar

StartChar: uni1E2A
Encoding: 7722 7722 170
Width: 700
VWidth: 999
Flags: HW
HStem: -199 57<266 404> -1 29<20 100 192 274 427 507 600 682> 324 39<187 514> 618 29<19 101 193 274 426 508 601 681>
VStem: 106 81<34 324 363 612> 208 27<-119 -53> 452 26<-118 -50> 514 81<34 324 363 612>
LayerCount: 2
Fore
SplineSet
235 -50 m 1
 237 -102 284 -142 344 -142 c 0
 390 -142 450 -112 452 -50 c 1
 479 -64 l 1
 469 -165 394 -199 344 -199 c 0
 267 -199 216 -142 209 -64 c 1
 235 -50 l 1
513 74 m 2
 513 321 l 1
 187 321 l 1
 187 72 l 2
 187 41 202.3 32.1 242 29 c 2
 268 27 l 2
 272 26.7 276 24 276 19 c 2
 276 0 l 1
 274 -2 l 1
 274 -2 188 0 148 0 c 0
 113 0 20 -2 20 -2 c 1
 18 0 l 1
 18 19 l 2
 18 24 21 26.7 25 27 c 2
 52 29 l 2
 92.8 32 106 44 106 72 c 2
 106 574 l 2
 106 604 89.8 613.2 52 616 c 2
 25 618 l 2
 21 618.3 17 621 17 626 c 2
 17 645 l 1
 19 647 l 1
 19 647 106 645 145 645 c 0
 181 645 274 647 274 647 c 1
 276 645 l 1
 276 626 l 2
 276 621 273 618.4 268 618 c 2
 242 616 l 2
 201.8 612.9 187 602 187 574 c 2
 187 363 l 1
 513 363 l 1
 513 574 l 2
 513 604 498.3 613 459 616 c 2
 433 618 l 2
 428 618.4 424 621 424 626 c 2
 424 645 l 1
 426 647 l 1
 426 647 513 645 552 645 c 0
 588 645 681 647 681 647 c 1
 683 645 l 1
 683 626 l 2
 683 621 680 618.4 675 618 c 2
 649 616 l 2
 608.7 612.9 594 602 594 574 c 2
 594 74 l 2
 594 43 608.4 32.1 649 29 c 2
 675 27 l 2
 680 26.6 684 24 684 19 c 2
 684 0 l 1
 682 -2 l 1
 682 -2 595 0 556 0 c 0
 520 0 427 -2 427 -2 c 1
 425 0 l 1
 425 19 l 2
 425 24 428 26.6 433 27 c 2
 459 29 l 2
 502 32.3 513 46 513 74 c 2
EndSplineSet
LCarets2: 1 0 
Colour: ff00ff
EndChar

StartChar: uni1E2B
Encoding: 7723 7723 171
Width: 590
VWidth: 999
Flags: HW
HStem: -209 57<201 339> 1 27<34 101 177 244 352 418 495 562> 234 32<176 419> 434 27<34 92 92 93 93 101 177 244 351 419 495 562>
VStem: 102 75<30 234 266 431> 144 27<-129 -63> 387 26<-128 -60> 419 74<30 234 266 431>
LayerCount: 2
Fore
SplineSet
170 -60 m 1
 172 -112 219 -152 279 -152 c 0
 325 -152 385 -122 387 -60 c 1
 414 -74 l 1
 404 -175 329 -209 279 -209 c 0
 202 -209 151 -152 144 -74 c 1
 170 -60 l 1
412 61 m 2
 412 220 l 1
 179 220 l 1
 179 61 l 2
 179 39 190.5 31.9 221 29 c 2
 242 27 l 2
 245 26.7 248 24 248 21 c 2
 248 0 l 1
 247 -2 l 1
 247 -2 170 0 140 0 c 0
 112 0 34 -2 34 -2 c 1
 32 0 l 1
 32 21 l 2
 32 24 35 26.6 39 27 c 2
 59 29 l 2
 93.5 32.4 102 41 102 61 c 2
 102 402 l 2
 102 424 91 427.8 59 431 c 2
 39 433 l 2
 35 433.4 32 435 32 439 c 2
 32 460 l 1
 34 462 l 1
 34 462 109 460 140 460 c 0
 167 460 247 462 247 462 c 1
 248 460 l 1
 248 439 l 2
 248 435 246 433.4 242 433 c 2
 221 431 l 2
 191.2 428.2 179 422 179 402 c 2
 179 251 l 1
 412 251 l 1
 412 402 l 2
 412 424 399 428 369 431 c 2
 349 433 l 2
 345 433.4 342 435 342 439 c 2
 342 460 l 1
 344 462 l 1
 344 462 418 460 449 460 c 0
 477 460 557 462 557 462 c 1
 558 460 l 1
 558 439 l 2
 558 435 556 433.4 552 433 c 2
 532 431 l 2
 499.2 427.7 489 422 489 402 c 2
 489 61 l 2
 489 39 499.5 32.2 532 29 c 2
 552 27 l 2
 556 26.6 559 24 559 21 c 2
 559 0 l 1
 557 -2 l 1
 557 -2 478 0 448 0 c 0
 420 0 344 -2 344 -2 c 1
 343 0 l 1
 343 21 l 2
 343 24 345 26.6 349 27 c 2
 369 29 l 2
 399.5 32 412 41 412 61 c 2
EndSplineSet
Colour: ff00ff
EndChar

StartChar: uni1E2C
Encoding: 7724 7724 172
Width: 293
VWidth: 999
Flags: HW
HStem: -164 44<191 244> -116 46<51 107> -1 29<20 100 192 274> 618 29<19 101 193 274>
VStem: 12 277<-159 -74> 106 81<33 612>
LayerCount: 2
Fore
SplineSet
187 574 m 2
 187 71 l 2
 187 41 202.3 32.1 242 29 c 2
 268 27 l 2
 272 26.7 276 24 276 19 c 2
 276 0 l 1
 274 -2 l 1
 226.5 0 196.5 0 147 0 c 0
 97.5 0 69 0 20 -2 c 1
 18 0 l 1
 18 19 l 2
 18 24 21 26.7 25 27 c 2
 52 29 l 2
 93.6 32.1 106 43 106 71 c 2
 106 574 l 2
 106 604 91.3 613.1 52 616 c 2
 25 618 l 2
 21 618.3 17 621 17 626 c 2
 17 645 l 1
 19 647 l 1
 69 646 96.5 645 146 645 c 0
 195.9 645 225 646 274 647 c 1
 276 645 l 1
 276 626 l 2
 276 621 273 618.4 268 618 c 2
 242 616 l 2
 202.2 612.9 187 602 187 574 c 2
216 -120 m 0
 238 -120 252 -110 266 -68 c 1
 290 -74 l 1
 278 -134 249 -164 203 -164 c 0
 181 -164 160 -152 139 -138 c 0
 121 -127 102 -116 85 -116 c 0
 59 -116 46 -131 36 -164 c 1
 12 -159 l 1
 26 -100 49 -70 92 -70 c 0
 122 -70 144 -84 164 -98 c 0
 180 -110 197 -120 216 -120 c 0
EndSplineSet
Colour: ff00ff
EndChar

StartChar: uni1E2D
Encoding: 7725 7725 173
Width: 279
VWidth: 999
Flags: HW
HStem: -153 44<177 230> -104 46<37 93> 1 27<34 99 179 244> 434 27<33 92 92 92 92 101 177 244>
VStem: -2 277<-147 -62> 102 75<31 431>
LayerCount: 2
Fore
SplineSet
202 -109 m 0
 224 -109 238 -99 252 -57 c 1
 276 -63 l 1
 264 -123 235 -153 189 -153 c 0
 167 -153 146 -141 125 -127 c 0
 107 -116 88 -105 71 -105 c 0
 45 -105 32 -120 22 -153 c 1
 -2 -148 l 1
 12 -89 35 -59 78 -59 c 0
 108 -59 130 -73 150 -87 c 0
 166 -99 183 -109 202 -109 c 0
179 400 m 2
 179 67 l 2
 179 45 189.5 32 221 29 c 2
 242 27 l 2
 245 26.7 248 25 248 21 c 2
 248 0 l 1
 247 -2 l 1
 247 -2 171 0 140 0 c 0
 112 0 34 -2 34 -2 c 1
 32 0 l 1
 32 21 l 2
 32 25 35 26.6 39 27 c 2
 59 29 l 2
 92.5 32.3 102 48 102 67 c 2
 102 400 l 2
 102 422 89.8 427.9 59 431 c 2
 39 433 l 2
 35 433.4 32 434 32 437 c 2
 32 460 l 1
 33 462 l 1
 33 462 112 460 143 460 c 0
 170 460 247 462 247 462 c 1
 248 460 l 1
 248 438 l 2
 248 435 246 433.4 242 433 c 2
 221 431 l 2
 190.2 428.1 179 420 179 400 c 2
EndSplineSet
LCarets2: 1 0 
Colour: ff00ff
EndChar

StartChar: uni1E2E
Encoding: 7726 7726 174
Width: 293
VWidth: 999
Flags: HW
HStem: -1 29<20 100 192 274> 618 29<19 101 193 274> 703 91<19 84 209 274>
VStem: 6 91<716 781> 106 81<33 612> 196 91<717 781>
LayerCount: 2
Fore
SplineSet
187 574 m 2
 187 71 l 2
 187 41 202.3 32.1 242 29 c 2
 268 27 l 2
 272 26.7 276 24 276 19 c 2
 276 0 l 1
 274 -2 l 1
 226.5 0 196.5 0 147 0 c 0
 97.5 0 69 0 20 -2 c 1
 18 0 l 1
 18 19 l 2
 18 24 21 26.7 25 27 c 2
 52 29 l 2
 93.6 32.1 106 43 106 71 c 2
 106 574 l 2
 106 604 91.3 613.1 52 616 c 2
 25 618 l 2
 21 618.3 17 621 17 626 c 2
 17 645 l 1
 19 647 l 1
 69 646 96.5 645 146 645 c 0
 195.9 645 225 646 274 647 c 1
 276 645 l 1
 276 626 l 2
 276 621 273 618.4 268 618 c 2
 242 616 l 2
 202.2 612.9 187 602 187 574 c 2
196 750 m 0
 196 774 217 795 241 795 c 0
 266 795 287 774 287 750 c 0
 287 725 266 704 241 704 c 0
 217 704 196 725 196 750 c 0
7 749 m 0
 7 774 27 794 52 794 c 0
 77 794 97 774 97 749 c 0
 97 724 77 704 52 704 c 0
 27 704 7 724 7 749 c 0
225.1 889.8 m 1
 272.8 844.1 l 1
 162 793 l 2
 145.8 785.1 135.8 782.5 128.9 782.5 c 0
 122 782.5 118.1 786.9 118.1 795.7 c 0
 118.1 801.9 119.6 806.3 129.6 814.2 c 2
 225.1 889.8 l 1
EndSplineSet
LCarets2: 1 0 
Colour: ff00ff
EndChar

StartChar: uni1E2F
Encoding: 7727 7727 175
Width: 279
VWidth: 999
Flags: HW
HStem: 1 27<34 99 179 244> 434 27<33 92 92 92 92 101 177 244> 528 91<23 88 183 248>
VStem: 10 91<541 606> 102 75<31 431> 170 91<541 606>
LayerCount: 2
Fore
SplineSet
189 740 m 1
 191.3 740.9 195.8 741.8 199.7 741.8 c 0
 221.3 741.8 231.3 732.2 237.5 726 c 0
 239 724.2 240.6 722.5 242.1 721.6 c 1
 244.4 711.9 l 1
 155.8 616 l 2
 144.3 602.8 138.9 598.4 133.5 598.4 c 0
 128.1 598.4 122.7 603.6 122.7 608.9 c 0
 122.7 614.2 122.8 620.4 127.4 629.2 c 2
 189 740 l 1
179 400 m 2
 179 67 l 2
 179 45 189 32 221 29 c 2
 242 27 l 2
 245 27 248 25 248 21 c 2
 248 0 l 1
 247 -2 l 1
 247 -2 171 0 140 0 c 0
 112 0 34 -2 34 -2 c 1
 32 0 l 1
 32 21 l 2
 32 25 35 27 39 27 c 2
 59 29 l 2
 92 32.3 102 48 102 67 c 2
 102 400 l 2
 102 422 90 428.9 59 432 c 2
 39 434 l 2
 35 434 32 435 32 438 c 2
 32 460 l 1
 33 462 l 1
 33 462 112 460 143 460 c 0
 170 460 247 462 247 462 c 1
 248 460 l 1
 248 439 l 2
 248 436 246 434 242 434 c 2
 221 432 l 2
 190 429 179 420 179 400 c 2
170 574 m 0
 170 599 191 619 216 619 c 0
 241 619 261 599 261 574 c 0
 261 549 241 528 216 528 c 0
 191 528 170 549 170 574 c 0
10 574 m 0
 10 599 30 619 55 619 c 0
 80 619 101 599 101 574 c 0
 101 549 80 528 55 528 c 0
 30 528 10 549 10 574 c 0
EndSplineSet
LCarets2: 1 0 
Colour: ff00ff
EndChar

StartChar: uni1E30
Encoding: 7728 7728 176
Width: 637
VWidth: 999
Flags: HW
HStem: -1 29<20 100 192 274 561 596 596 630> 309 39<187 248> 618 29<19 101 193 274 404 456 532 616>
VStem: 106 81<33 612>
DStem2: 267 386 345 407 0.688802 0.724949<68.6411 243.147> 320 333 271 271 0.644136 -0.764911<15.7901 271.98>
LayerCount: 2
Fore
SplineSet
409 819 m 1
 471 767 l 1
 327 709 l 2
 306 700 293 697 284 697 c 0
 275 697 270 702 270 712 c 0
 270 719 272 724 285 733 c 2
 409 819 l 1
187 309 m 1
 187 71 l 2
 187 41 202.3 32.1 242 29 c 2
 268 27 l 2
 272 26.7 276 24 276 19 c 2
 276 0 l 1
 274 -2 l 1
 226.5 0 196.5 0 147 0 c 0
 97.5 0 69 0 20 -2 c 1
 18 0 l 1
 18 19 l 2
 18 24 21 26.7 25 27 c 2
 52 29 l 2
 93.6 32.1 106 43 106 71 c 2
 106 574 l 2
 106 604 91.3 613.1 52 616 c 2
 25 618 l 2
 21 618.3 17 621 17 626 c 2
 17 645 l 1
 19 647 l 1
 69 646 96.5 645 146 645 c 0
 195.9 645 225 646 274 647 c 1
 276 645 l 1
 276 626 l 2
 276 621 273 618.4 268 618 c 2
 242 616 l 2
 202.2 612.9 187 602 187 574 c 2
 187 347.1 l 1
 224.4 349.3 246.2 364.2 267 386 c 2
 435 562 l 1
 463 593.1 469.2 612.4 431 616 c 2
 410 618 l 2
 406 618.4 402 621 402 626 c 2
 402 645 l 1
 404 647 l 1
 404 647 480 645 520 645 c 0
 555 645 616 647 616 647 c 1
 621 645 l 1
 621 626 l 2
 621 621 616 618 610 618 c 0
 570 613 531 607 485 558 c 2
 345 407 l 2
 312.3 371.7 308 365 308 358 c 0
 308 350 311 343 320 333 c 2
 539 73 l 2
 564 42 588.2 32.1 617 28 c 2
 624 27 l 2
 628 26.4 633 24 633 19 c 2
 633 0 l 1
 630 -2 l 1
 630 -2 555 0 516 0 c 0
 480 0 456 -2 456 -2 c 1
 454 0 l 1
 454 6 l 2
 454 24 454 48 434 73 c 2
 271 271 l 2
 250.2 297.7 222.5 308.8 187 309 c 1
EndSplineSet
LCarets2: 1 0 
Colour: ff00ff
EndChar

